<svg width="25" height="22" viewBox="0 0 25 22" fill="none" xmlns="http://www.w3.org/2000/svg">
<path d="M9.875 1.71875H18.125V8.25C18.125 9.34402 17.6904 10.3932 16.9168 11.1668C16.1432 11.9404 15.094 12.375 14 12.375C12.906 12.375 11.8568 11.9404 11.0832 11.1668C10.3096 10.3932 9.875 9.34402 9.875 8.25V1.71875Z" stroke="white" stroke-width="0.5" stroke-linejoin="round"/>
<path d="M13.3127 12.3164V19.6211C12.3296 19.6967 10.9065 20.2811 10.5215 20.6523L17.4377 20.6248C17.094 20.2811 15.6537 19.6967 14.6877 19.6211V12.3164" stroke="white" stroke-width="0.5" stroke-linejoin="round"/>
<path d="M9.875 6.875H18.125" stroke="white" stroke-width="0.5" stroke-linejoin="round"/>
<g clip-path="url(#clip0_2673_1626)">
<path d="M2.10076 9.19031H2.41702V8.64117C2.41702 8.58295 2.44032 8.5271 2.48178 8.48593C2.52323 8.44475 2.57946 8.42162 2.6381 8.42162H5.31984V6.76698L4.31903 5.8087C4.31023 5.80044 4.30317 5.79052 4.29828 5.77951C4.29338 5.76851 4.29075 5.75664 4.29053 5.74462C4.29031 5.73259 4.29252 5.72064 4.29701 5.70947C4.3015 5.69829 4.30819 5.68812 4.31669 5.67955L4.67769 5.3089C4.69451 5.29166 4.71751 5.28172 4.74167 5.28126C4.75365 5.28108 4.76555 5.28327 4.77667 5.28771C4.78779 5.29214 4.7979 5.29873 4.80643 5.30709L5.83533 6.29171C5.84405 6.3002 5.85103 6.31029 5.85588 6.32142L6.01505 6.69311C6.01978 6.70432 6.02225 6.71634 6.02233 6.72849V8.42162H9.92128C9.97991 8.42162 10.0361 8.44475 10.0776 8.48593C10.1191 8.5271 10.1424 8.58295 10.1424 8.64117V9.19031H10.4586C10.5172 9.19038 10.5734 9.21353 10.6149 9.25469C10.6563 9.29585 10.6796 9.35166 10.6797 9.40986V10.8305C10.6797 10.8887 10.6564 10.9446 10.6149 10.9857C10.5735 11.0269 10.5172 11.05 10.4586 11.05H10.1525L9.22763 20.9221C9.22251 20.9766 9.19712 21.0271 9.15642 21.064C9.11573 21.1008 9.06266 21.1212 9.0076 21.1213H3.55178C3.49672 21.1212 3.44365 21.1008 3.40295 21.064C3.36226 21.0271 3.33686 20.9766 3.33175 20.9221L2.40688 11.049H2.10076C2.04213 11.049 1.9859 11.0259 1.94444 10.9847C1.90298 10.9435 1.87969 10.8877 1.87969 10.8295V9.40883C1.88003 9.3508 1.90347 9.29526 1.94488 9.25433C1.98629 9.21339 2.04233 9.19038 2.10076 9.19031ZM5.84027 6.74709L5.69566 6.40924L4.74557 5.49952L4.51149 5.74129L5.47381 6.6634C5.48259 6.67171 5.4896 6.68168 5.49443 6.69273C5.49926 6.70378 5.5018 6.71568 5.5019 6.72772V8.42085H5.84001L5.84027 6.74709ZM9.7002 8.86073H2.85995V9.19031H9.7002V8.86073ZM3.28337 15.6648C4.80513 15.7472 5.4915 16.7101 6.15602 17.643C6.8273 18.5853 7.46399 19.4769 8.91162 19.557L9.1959 16.5205C7.65541 16.4332 6.82028 15.4697 6.01167 14.5368C5.20306 13.6038 4.43243 12.7161 2.9991 12.63L3.28337 15.6648ZM3.75335 20.6822H8.80707L8.8955 19.7373C7.36385 19.6497 6.67515 18.6832 6.00855 17.7484C5.34481 16.8168 4.7154 15.9349 3.30158 15.8484L3.75335 20.6822ZM2.98115 12.4474C4.51097 12.5296 5.34299 13.4894 6.14873 14.419C6.96904 15.3651 7.74618 16.2604 9.21202 16.3397L9.70853 11.049H2.85111L2.98115 12.4474ZM2.32105 10.6099H10.2375V9.62838H2.32183L2.32105 10.6099Z" fill="white"/>
</g>
<defs>
<clipPath id="clip0_2673_1626">
<rect width="8.8" height="15.84" fill="white" transform="matrix(-1 0 0 1 10.6797 5.28125)"/>
</clipPath>
</defs>
</svg>
