<svg width="19" height="20" viewBox="0 0 19 20" fill="none" xmlns="http://www.w3.org/2000/svg">
<path d="M18.9102 7.90406L18.3871 7.37063V1.5625C18.3871 1.47962 18.3548 1.40013 18.2973 1.34153C18.2399 1.28292 18.1619 1.25 18.0806 1.25H16.8548C16.7735 1.25 16.6956 1.28292 16.6381 1.34153C16.5806 1.40013 16.5484 1.47962 16.5484 1.5625V2.5H15.9355V1.875C15.9355 1.79212 15.9032 1.71263 15.8457 1.65403C15.7882 1.59542 15.7103 1.5625 15.629 1.5625H14.4032C14.3219 1.5625 14.244 1.59542 14.1865 1.65403C14.129 1.71263 14.0967 1.79212 14.0967 1.875V2.1875H13.5446L13.7789 1.33438C13.7917 1.28793 13.7937 1.23909 13.7849 1.1917C13.7761 1.1443 13.7566 1.09964 13.728 1.0612C13.6995 1.02276 13.6625 0.991585 13.6202 0.970125C13.5778 0.948665 13.5311 0.937498 13.4838 0.9375H12.258C12.1911 0.937507 12.1261 0.959821 12.0728 1.00104C12.0195 1.04225 11.981 1.10011 11.9629 1.16578L11.6804 2.19478C11.6688 2.1916 11.657 2.18916 11.6451 2.1875H10.7257V0.9375C10.7257 0.85462 10.6935 0.775134 10.636 0.716529C10.5785 0.657924 10.5006 0.625 10.4193 0.625H9.49994V0.3125C9.49994 0.22962 9.46765 0.150134 9.41018 0.0915291C9.35271 0.032924 9.27476 0 9.19348 0L7.96767 0C7.88639 0 7.80845 0.032924 7.75098 0.0915291C7.6935 0.150134 7.66122 0.22962 7.66122 0.3125V1.69825L7.3434 0.540781C7.32537 0.47511 7.28678 0.417254 7.2335 0.376037C7.18022 0.33482 7.11519 0.312507 7.04831 0.3125H5.8225C5.77519 0.312498 5.72853 0.323665 5.68616 0.345125C5.64379 0.366585 5.60687 0.397757 5.57829 0.436197C5.54971 0.474638 5.53024 0.519305 5.52141 0.566699C5.51259 0.614092 5.51464 0.662926 5.52741 0.709375L5.67592 1.25H4.90314V0.9375C4.90314 0.85462 4.87085 0.775134 4.81338 0.716529C4.75591 0.657924 4.67796 0.625 4.59669 0.625H3.67733C3.67733 0.54212 3.64504 0.462634 3.58757 0.404029C3.5301 0.345424 3.45215 0.3125 3.37087 0.3125H2.14506C2.06378 0.3125 1.98584 0.345424 1.92836 0.404029C1.87089 0.462634 1.83861 0.54212 1.83861 0.625V2.8125H0.919247C0.837971 2.8125 0.760023 2.84542 0.702552 2.90403C0.645081 2.96263 0.612794 3.04212 0.612794 3.125V7.37063L0.0896785 7.90406C0.0534529 7.94103 0.0268975 7.98667 0.0124424 8.03681C-0.00201272 8.08695 -0.00390588 8.13998 0.00693612 8.19106L2.45856 19.7536C2.47336 19.8233 2.51114 19.8858 2.56561 19.9307C2.62008 19.9755 2.68796 20 2.75797 20H16.2419C16.3119 20 16.3799 19.9756 16.4344 19.9307C16.4889 19.8859 16.5267 19.8234 16.5415 19.7536L18.9931 8.19106C19.0039 8.13997 19.002 8.08693 18.9875 8.03679C18.973 7.98665 18.9464 7.94101 18.9102 7.90406ZM17.1613 1.875H17.7742V6.74563L17.1613 6.12063V1.875ZM16.5484 3.125V5.49563L15.9355 4.87063V3.125H16.5484ZM14.7096 2.1875H15.3225V4.24563L15.2328 4.15406C15.1726 4.09555 15.0927 4.06279 15.0095 4.0625C14.9681 4.06344 14.9274 4.0729 14.8897 4.09031C14.852 4.10772 14.8181 4.13272 14.7901 4.16381L14.7096 4.25334V2.1875ZM14.0967 4.93519L13.4838 5.61703V2.8125H14.0967V4.93519ZM12.8789 6.29003L12.2155 7.02812L12.8709 4.64103V6.25C12.8726 6.26352 12.8753 6.27689 12.8789 6.29003ZM12.4904 1.5625H13.0798L11.3637 7.8125H10.7743L12.4904 1.5625ZM11.5108 2.8125L10.7257 5.67147V2.8125H11.5108ZM10.1128 1.25V7.8125H9.49994V1.25H10.1128ZM8.27412 0.625H8.88703V6.1625L8.27412 3.93034V0.625ZM6.81593 0.9375L8.70368 7.8125H8.11425L6.2265 0.9375H6.81593ZM7.47269 7.79375L6.12101 6.29009C6.12458 6.27693 6.12723 6.26354 6.12895 6.25V2.9L7.47269 7.79375ZM5.51605 1.875V5.61703L4.90314 4.93519V1.875H5.51605ZM4.29023 1.25V4.25334L4.20973 4.16381C4.18175 4.13272 4.14789 4.10772 4.1102 4.09031C4.0725 4.0729 4.03174 4.06344 3.99037 4.0625C3.90702 4.06181 3.82679 4.09472 3.76712 4.15406L3.67733 4.24563V1.25H4.29023ZM2.45151 0.9375H3.06442V4.87063L2.45151 5.49563V0.9375ZM1.2257 3.4375H1.83861V6.12063L1.2257 6.74563V3.4375ZM15.9945 19.375H3.00534L0.641233 8.22556L3.97422 4.82681L7.12882 8.33619C7.15754 8.36811 7.19246 8.39361 7.23135 8.41105C7.27025 8.42849 7.31227 8.4375 7.35476 8.4375H11.6451C11.6876 8.4375 11.7296 8.42849 11.7685 8.41105C11.8074 8.39361 11.8423 8.36811 11.8711 8.33619L15.0257 4.82681L18.3586 8.22556L15.9945 19.375Z" fill="white"/>
</svg>
