<svg width="60" height="70" viewBox="0 0 60 70" fill="none" xmlns="http://www.w3.org/2000/svg">
<circle cx="23" cy="46" r="9" fill="white"/>
<circle cx="51" cy="9" r="9" fill="white"/>
<circle cx="51" cy="9" r="9" fill="url(#paint0_linear_2811_1660)"/>
<mask id="path-3-inside-1_2811_1660" fill="white">
<path d="M0.599158 45.4919C0.482691 49.8663 1.64433 54.1797 3.94184 57.904C6.23934 61.6283 9.573 64.6018 13.5346 66.4604C17.4962 68.319 21.9138 68.9821 26.2465 68.3684C30.5792 67.7548 34.6389 65.891 37.9285 63.0053C41.2182 60.1197 43.595 56.3374 44.7679 52.1216C45.9408 47.9058 45.8589 43.4394 44.5323 39.2694C43.2056 35.0994 40.6918 31.4068 37.2986 28.6437C33.9053 25.8806 29.78 24.1668 25.4278 23.7124L25.0693 27.1458C28.7538 27.5306 32.2462 28.9813 35.1188 31.3205C37.9914 33.6597 40.1195 36.7858 41.2426 40.316C42.3657 43.8462 42.4351 47.6273 41.4421 51.1963C40.4492 54.7653 38.437 57.9673 35.6521 60.4102C32.8672 62.8531 29.4303 64.4309 25.7624 64.9504C22.0945 65.47 18.3546 64.9086 15.0008 63.3352C11.647 61.7617 8.82486 59.2444 6.87985 56.0915C4.93484 52.9387 3.95143 49.287 4.05003 45.5838L0.599158 45.4919Z"/>
</mask>
<path d="M0.599158 45.4919C0.482691 49.8663 1.64433 54.1797 3.94184 57.904C6.23934 61.6283 9.573 64.6018 13.5346 66.4604C17.4962 68.319 21.9138 68.9821 26.2465 68.3684C30.5792 67.7548 34.6389 65.891 37.9285 63.0053C41.2182 60.1197 43.595 56.3374 44.7679 52.1216C45.9408 47.9058 45.8589 43.4394 44.5323 39.2694C43.2056 35.0994 40.6918 31.4068 37.2986 28.6437C33.9053 25.8806 29.78 24.1668 25.4278 23.7124L25.0693 27.1458C28.7538 27.5306 32.2462 28.9813 35.1188 31.3205C37.9914 33.6597 40.1195 36.7858 41.2426 40.316C42.3657 43.8462 42.4351 47.6273 41.4421 51.1963C40.4492 54.7653 38.437 57.9673 35.6521 60.4102C32.8672 62.8531 29.4303 64.4309 25.7624 64.9504C22.0945 65.47 18.3546 64.9086 15.0008 63.3352C11.647 61.7617 8.82486 59.2444 6.87985 56.0915C4.93484 52.9387 3.95143 49.287 4.05003 45.5838L0.599158 45.4919Z" stroke="white" stroke-width="4" stroke-linejoin="round" mask="url(#path-3-inside-1_2811_1660)"/>
<defs>
<linearGradient id="paint0_linear_2811_1660" x1="39.5" y1="1.5" x2="68" y2="18" gradientUnits="userSpaceOnUse">
<stop stop-color="#DAA520"/>
<stop offset="1" stop-color="#FFC229" stop-opacity="0"/>
</linearGradient>
</defs>
</svg>
