<svg width="253" height="137" viewBox="0 0 253 137" fill="none" xmlns="http://www.w3.org/2000/svg">
<g filter="url(#filter0_d_2501_272)">
<mask id="path-1-inside-1_2501_272" fill="white">
<path d="M242.664 121.986C242.686 106.76 239.705 91.6791 233.893 77.6059C228.081 63.5328 219.552 50.7434 208.793 39.9694C198.034 29.1954 185.257 20.6481 171.192 14.8164C157.127 8.98471 142.05 5.98299 126.824 5.98293C111.598 5.98288 96.5212 8.98452 82.4562 14.8162C68.3911 20.6478 55.6137 29.195 44.8548 39.9689C34.0958 50.7429 25.5663 63.5321 19.7543 77.6053C13.9422 91.6784 10.9615 106.759 10.9827 121.985L20.0477 121.973C20.0281 107.938 22.7756 94.0374 28.1328 81.0655C33.4901 68.0937 41.3521 56.3052 51.2691 46.3744C61.1861 36.4435 72.9637 28.5652 85.9281 23.1899C98.8925 17.8146 112.789 15.0479 126.824 15.0479C140.859 15.0479 154.755 17.8148 167.72 23.1901C180.684 28.5655 192.462 36.4439 202.379 46.3748C212.296 56.3057 220.157 68.0943 225.515 81.0661C230.872 94.038 233.619 107.939 233.6 121.973L242.664 121.986Z"/>
</mask>
<path d="M242.664 121.986C242.686 106.76 239.705 91.6791 233.893 77.6059C228.081 63.5328 219.552 50.7434 208.793 39.9694C198.034 29.1954 185.257 20.6481 171.192 14.8164C157.127 8.98471 142.05 5.98299 126.824 5.98293C111.598 5.98288 96.5212 8.98452 82.4562 14.8162C68.3911 20.6478 55.6137 29.195 44.8548 39.9689C34.0958 50.7429 25.5663 63.5321 19.7543 77.6053C13.9422 91.6784 10.9615 106.759 10.9827 121.985L20.0477 121.973C20.0281 107.938 22.7756 94.0374 28.1328 81.0655C33.4901 68.0937 41.3521 56.3052 51.2691 46.3744C61.1861 36.4435 72.9637 28.5652 85.9281 23.1899C98.8925 17.8146 112.789 15.0479 126.824 15.0479C140.859 15.0479 154.755 17.8148 167.72 23.1901C180.684 28.5655 192.462 36.4439 202.379 46.3748C212.296 56.3057 220.157 68.0943 225.515 81.0661C230.872 94.038 233.619 107.939 233.6 121.973L242.664 121.986Z" stroke="white" stroke-width="18" stroke-linejoin="round" shape-rendering="crispEdges" mask="url(#path-1-inside-1_2501_272)"/>
</g>
<defs>
<filter id="filter0_d_2501_272" x="0.982422" y="0.98291" width="251.683" height="136.003" filterUnits="userSpaceOnUse" color-interpolation-filters="sRGB">
<feFlood flood-opacity="0" result="BackgroundImageFix"/>
<feColorMatrix in="SourceAlpha" type="matrix" values="0 0 0 0 0 0 0 0 0 0 0 0 0 0 0 0 0 0 127 0" result="hardAlpha"/>
<feOffset dy="5"/>
<feGaussianBlur stdDeviation="5"/>
<feComposite in2="hardAlpha" operator="out"/>
<feColorMatrix type="matrix" values="0 0 0 0 0 0 0 0 0 0 0 0 0 0 0 0 0 0 0.25 0"/>
<feBlend mode="normal" in2="BackgroundImageFix" result="effect1_dropShadow_2501_272"/>
<feBlend mode="normal" in="SourceGraphic" in2="effect1_dropShadow_2501_272" result="shape"/>
</filter>
</defs>
</svg>
