<svg width="69" height="72" viewBox="0 0 69 72" fill="none" xmlns="http://www.w3.org/2000/svg">
<mask id="path-1-inside-1_2501_274" fill="white">
<path d="M68.3842 0.19959C50.0321 0.800851 32.6378 8.53532 19.8984 21.7592C7.15896 34.9831 0.0787086 52.6537 0.162469 71.0155L2.50018 71.0049C2.41919 53.2516 9.26476 36.1667 21.582 23.3811C33.8992 10.5955 50.7169 3.11739 68.4608 2.53607L68.3842 0.19959Z"/>
</mask>
<path d="M68.3842 0.19959C50.0321 0.800851 32.6378 8.53532 19.8984 21.7592C7.15896 34.9831 0.0787086 52.6537 0.162469 71.0155L2.50018 71.0049C2.41919 53.2516 9.26476 36.1667 21.582 23.3811C33.8992 10.5955 50.7169 3.11739 68.4608 2.53607L68.3842 0.19959Z" stroke="white" stroke-width="18" stroke-linejoin="round" mask="url(#path-1-inside-1_2501_274)"/>
</svg>
