<svg width="37" height="33" viewBox="0 0 37 33" fill="none" xmlns="http://www.w3.org/2000/svg">
<path d="M16.3906 32.3203C18.1381 32.3203 19.5547 30.9037 19.5547 29.1563C19.5547 27.4088 18.1381 25.9922 16.3906 25.9922C14.6432 25.9922 13.2266 27.4088 13.2266 29.1563C13.2266 30.9037 14.6432 32.3203 16.3906 32.3203Z" fill="#34CEA1"/>
<path d="M27.0078 32.3203C28.7553 32.3203 30.1719 30.9037 30.1719 29.1563C30.1719 27.4088 28.7553 25.9922 27.0078 25.9922C25.2603 25.9922 23.8438 27.4088 23.8438 29.1563C23.8438 30.9037 25.2603 32.3203 27.0078 32.3203Z" fill="#34CEA1"/>
<path d="M1.55468 2.78912H5.95292L11.0448 20.6142L10.6454 21.4129C9.59382 23.5138 11.1204 25.9921 13.4758 25.9921H31.2264C31.8094 25.9921 32.2811 25.5204 32.2811 24.9374C32.2811 24.3545 31.8094 23.8828 31.2264 23.8828H13.4758C12.6925 23.8828 12.1807 23.0581 12.5323 22.3564L12.8238 21.7734H31.2264C31.4557 21.7733 31.6787 21.6986 31.8617 21.5605C32.0448 21.4225 32.1779 21.2286 32.2409 21.0081L36.4597 6.24257C36.5043 6.08559 36.512 5.92041 36.4822 5.75995C36.4523 5.5995 36.3858 5.44812 36.2877 5.31769C36.1891 5.18755 36.0618 5.082 35.9156 5.00927C35.7695 4.93655 35.6085 4.89863 35.4452 4.89849H8.74923L7.76254 1.44496C7.69948 1.22453 7.56637 1.03062 7.38333 0.892555C7.2003 0.754486 6.97728 0.679764 6.74801 0.679688H1.55468C0.971724 0.679688 0.5 1.15141 0.5 1.73437C0.5 2.31733 0.971724 2.78912 1.55468 2.78912Z" fill="#34CEA1"/>
</svg>
