<svg width="198" height="271" viewBox="0 0 198 271" fill="none" xmlns="http://www.w3.org/2000/svg">
<g clip-path="url(#clip0_2494_925)">
<path d="M175.261 270.563H89.0569C76.5181 270.563 66.3184 260.364 66.3184 247.826V22.7362C66.3184 10.1987 76.5181 0 89.0569 0H175.261C187.8 0 198 10.1987 198 22.7362V247.826C198 260.364 187.8 270.563 175.261 270.563Z" fill="#BDBDBD"/>
<path d="M175.325 264.408H88.995C79.7148 264.408 72.1621 256.856 72.1621 247.576V22.5441C72.1621 13.2648 79.7148 5.71289 88.995 5.71289H175.325C184.605 5.71289 192.158 13.2648 192.158 22.5441V247.576C192.158 256.856 184.605 264.408 175.325 264.408Z" fill="white"/>
<path d="M144.173 21H119.827C116.613 21 114 18.7578 114 16C114 13.2422 116.613 11 119.827 11H144.173C147.387 11 150 13.2422 150 16C150 18.7578 147.387 21 144.173 21Z" fill="#BDBDBD"/>
<path d="M169.28 89.409H97.846C96.431 89.409 95.2793 87.9451 95.2793 86.1508C95.2793 84.3566 96.431 82.8926 97.846 82.8926H169.28C170.695 82.8926 171.847 84.3566 171.847 86.1508C171.847 87.9451 170.695 89.409 169.28 89.409Z" fill="#BDBDBD"/>
<path d="M169.28 103.848H97.846C96.431 103.848 95.2793 102.385 95.2793 100.59C95.2793 98.796 96.431 97.332 97.846 97.332H169.28C170.695 97.332 171.847 98.796 171.847 100.59C171.847 102.385 170.695 103.848 169.28 103.848Z" fill="#BDBDBD"/>
<path d="M148.796 118.287H97.846C96.431 118.287 95.2793 116.823 95.2793 115.029C95.2793 113.234 96.431 111.771 97.846 111.771H148.796C150.211 111.771 151.362 113.234 151.362 115.029C151.362 116.823 150.211 118.287 148.796 118.287Z" fill="#BDBDBD"/>
<path d="M132.16 203.18C149 203.18 162.652 189.53 162.652 172.691C162.652 155.853 149 142.202 132.16 142.202C115.32 142.202 101.668 155.853 101.668 172.691C101.668 189.53 115.32 203.18 132.16 203.18Z" fill="#DAA520"/>
<path d="M124.049 173.325C125.625 176.409 127.201 179.498 128.776 182.582C129.227 183.47 130.553 183.189 130.816 182.314C132.883 175.423 136.722 169.143 141.895 164.148C142.931 163.148 141.351 161.573 140.315 162.568C134.869 167.826 130.839 174.472 128.66 181.72L130.7 181.453C129.124 178.368 127.549 175.28 125.973 172.196C125.321 170.915 123.393 172.044 124.045 173.32H124.049V173.325Z" fill="white"/>
<path d="M49.9593 135.81L42.5672 138.332L42.4512 127.66L49.1781 127.584L49.9593 135.81Z" fill="#F3A3A6"/>
<path d="M43.3159 130.606C47.3984 130.606 50.7079 127.297 50.7079 123.215C50.7079 119.132 47.3984 115.823 43.3159 115.823C39.2333 115.823 35.9238 119.132 35.9238 123.215C35.9238 127.297 39.2333 130.606 43.3159 130.606Z" fill="#F3A3A6"/>
<path d="M45.3395 122.461C44.1031 122.438 43.2773 121.198 42.7818 120.059C42.2863 118.926 41.7774 117.618 40.6302 117.158C39.6884 116.783 38.0636 119.403 37.3136 118.72C36.5325 118.006 37.2467 114.284 38.0591 113.61C38.8715 112.936 39.9919 112.793 41.0454 112.731C43.621 112.583 46.21 112.762 48.7409 113.262C50.3033 113.57 51.9191 114.043 53.0574 115.159C54.4992 116.574 54.8876 118.729 55.0125 120.747C55.142 122.809 55.0438 124.974 54.0618 126.795C53.0753 128.611 50.9907 129.968 48.9686 129.531C48.7543 128.437 48.9463 127.312 49.0132 126.197C49.0802 125.085 48.982 123.885 48.2946 123.005C47.6071 122.126 46.1519 121.791 45.3708 122.586" fill="#2F2E43"/>
<path d="M54.4588 124.92C55.1909 124.371 56.0702 123.907 56.9809 124.009C57.9674 124.117 58.8065 124.92 59.0699 125.875C59.3333 126.83 59.061 127.888 58.4628 128.678C57.8647 129.468 56.9675 129.995 56.0122 130.263C55.4587 130.419 54.8561 130.486 54.3249 130.263C53.5437 129.937 53.1152 128.95 53.4098 128.156" fill="#2F2E43"/>
<path d="M26.952 194.749C26.4877 197.181 27.4117 199.391 29.0232 199.681C30.6301 199.971 32.313 198.23 32.7772 195.798C32.9781 194.829 32.9334 193.825 32.6478 192.874L38.3346 154.753L30.6748 153.4L28.1527 192.066C27.5367 192.856 27.1216 193.776 26.952 194.753V194.749Z" fill="#F3A3A6"/>
<path d="M42.4331 133.436L37.2149 133.494C33.5323 134.092 32.5503 136.073 31.7557 139.715C30.5371 145.272 28.9837 152.677 29.3096 152.78C29.8318 152.949 38.7594 157.029 43.2767 156.02L42.4331 133.436Z" fill="#DAA520"/>
<path d="M48.8417 254.593L41.8965 254.671L42.0065 264.521L48.9517 264.443L48.8417 254.593Z" fill="#F3A3A6"/>
<path d="M35.2913 270.563C34.5592 270.572 33.912 270.563 33.421 270.523C31.573 270.375 29.8009 269.032 28.9036 268.246C28.5019 267.894 28.368 267.322 28.5688 266.831C28.7117 266.479 29.0063 266.211 29.3723 266.099L34.2334 264.653L42.0673 259.239L42.1566 259.395C42.1923 259.453 42.9824 260.842 43.2502 261.783C43.3529 262.14 43.3306 262.439 43.1833 262.672C43.0806 262.832 42.9378 262.926 42.8217 262.984C42.9645 263.131 43.4154 263.43 44.7992 263.636C46.8123 263.935 47.2185 261.841 47.2319 261.752L47.2453 261.681L47.3033 261.641C48.2541 261.011 48.8389 260.726 49.0442 260.784C49.1737 260.819 49.3835 260.882 50.0173 266.559C50.0754 266.738 50.4905 268.041 50.2316 269.295C49.9504 270.661 44.0001 270.255 42.8128 270.161C42.7771 270.165 38.3311 270.531 35.2824 270.563H35.2913Z" fill="#2F2E43"/>
<path d="M68.5298 246.618L62.6777 250.358L67.984 258.658L73.8361 254.917L68.5298 246.618Z" fill="#F3A3A6"/>
<path d="M60.9359 268.924C60.119 268.933 59.3691 268.844 58.8334 268.755C58.3067 268.665 57.8916 268.255 57.8023 267.728C57.7354 267.349 57.8469 266.969 58.0969 266.684L61.4537 262.885L65.2345 254.146L65.3952 254.231C65.4532 254.262 66.8593 255.021 67.5869 255.677C67.8637 255.927 68.002 256.19 68.002 256.467C68.002 256.659 67.9306 256.815 67.8592 256.922C68.0601 256.972 68.6002 256.985 69.8813 256.427C71.7472 255.615 70.9839 253.624 70.9481 253.544L70.9214 253.477L70.9526 253.414C71.4258 252.379 71.7739 251.825 71.9748 251.763C72.1043 251.727 72.3141 251.665 75.8583 256.146C76.0011 256.266 77.0457 257.15 77.4876 258.351C77.9697 259.658 72.7113 262.461 71.649 263.01C71.6177 263.037 66.1228 267.121 63.8641 268.291C62.9669 268.755 61.9001 268.906 60.927 268.915L60.9359 268.924Z" fill="#2F2E43"/>
<path d="M53.0261 172.142L33.5819 172.356L32.0195 190.459L40.4829 257.204L50.4103 257.092L46.0135 218.538L62.5027 253.209L71.2562 246.934L58.3201 214.539C58.3201 214.539 62.4982 186.148 58.8915 179.127C55.2848 172.106 53.0306 172.133 53.0306 172.133V172.142H53.0261Z" fill="#2F2E43"/>
<path d="M62.7066 173.137L31.8262 173.481L40.6466 133.458L54.1049 133.307L62.7066 173.137Z" fill="#DAA520"/>
<path d="M65.7241 194.32C66.2419 196.743 65.367 198.97 63.7645 199.296C62.162 199.622 60.4434 197.921 59.9256 195.498C59.7024 194.534 59.7247 193.53 59.9881 192.57L53.4531 154.583L61.0817 153.061L64.4608 191.664C65.0947 192.441 65.5277 193.351 65.7241 194.324V194.32Z" fill="#F3A3A6"/>
<path d="M48.8881 133.365L54.1062 133.307C57.8022 133.824 58.8245 135.784 59.7038 139.408C61.043 144.938 62.7615 152.303 62.4401 152.414C61.9179 152.593 53.0885 156.869 48.5488 155.962L48.8925 133.365H48.8881Z" fill="#DAA520"/>
<path d="M96.007 270.562C96.007 270.803 95.8106 271 95.5696 271H0.437451C0.196406 271 0 270.803 0 270.562C0 270.321 0.196406 270.125 0.437451 270.125H95.5696C95.8106 270.125 96.007 270.321 96.007 270.562Z" fill="#3F3D58"/>
</g>
<defs>
<clipPath id="clip0_2494_925">
<rect width="198" height="271" fill="white"/>
</clipPath>
</defs>
</svg>
