<svg width="31" height="22" viewBox="0 0 31 22" fill="none" xmlns="http://www.w3.org/2000/svg">
<path d="M17.1883 6.06719C17.1969 5.98125 17.1797 5.89531 17.1281 5.81797L15.8391 4.01328C15.8305 4.00469 15.8219 3.99609 15.8133 3.9875V2.92188C15.8133 2.16562 15.1945 1.54688 14.4383 1.54688H10.1414C9.38516 1.54688 8.76641 2.16562 8.76641 2.92188V4.03047C8.74922 4.04766 8.73203 4.07344 8.71484 4.09922L6.92734 6.95234C6.88437 7.02109 6.86719 7.09844 6.87578 7.17578C6.87578 7.19297 6.86719 7.20156 6.86719 7.21875V20.2812C6.86719 20.4703 7.02187 20.625 7.21094 20.625H14.7734C14.8422 20.625 14.9023 20.6078 14.9539 20.5734L16.9992 19.3531C17.1023 19.293 17.1711 19.1812 17.1711 19.0523V6.10156C17.1883 6.09297 17.1883 6.07578 17.1883 6.06719ZM15.7273 5.04453L16.3719 5.94687L15.332 6.44531L15.7273 5.04453ZM9.45391 2.92188C9.45391 2.54375 9.76328 2.23438 10.1414 2.23438H14.4383C14.8164 2.23438 15.1258 2.54375 15.1258 2.92188V3.78125H9.45391V2.92188ZM14.4383 19.9375H7.56328V7.5625H14.4383V19.9375ZM14.4984 6.875H7.78672L9.29922 4.46875H15.1773V4.47734L14.4984 6.875ZM16.5008 18.8547L15.1258 19.6711V7.30469L16.5008 6.65156V18.8547Z" fill="white"/>
<path d="M15.3834 19.2065C15.392 19.2065 15.4006 19.2065 15.4092 19.1979L16.2686 18.6823C16.2858 18.6737 16.2944 18.6479 16.2858 18.6221C16.2772 18.6049 16.2514 18.5963 16.2256 18.6049L15.3663 19.1206C15.3491 19.1292 15.3405 19.1549 15.3491 19.1807C15.3577 19.1979 15.3663 19.2065 15.3834 19.2065Z" fill="white"/>
<path d="M15.3834 18.9487C15.392 18.9487 15.4006 18.9487 15.4092 18.9401L16.2686 18.4245C16.2858 18.4159 16.2944 18.3901 16.2858 18.3643C16.2772 18.3471 16.2514 18.3385 16.2256 18.3471L15.3663 18.8627C15.3491 18.8713 15.3405 18.8971 15.3491 18.9229C15.3577 18.9401 15.3663 18.9487 15.3834 18.9487Z" fill="white"/>
<path d="M15.3834 18.7338C15.392 18.7338 15.4006 18.7338 15.4092 18.7252L16.2686 18.2096C16.2858 18.201 16.2944 18.1752 16.2858 18.1495C16.2772 18.1323 16.2514 18.1237 16.2256 18.1323L15.3663 18.6479C15.3491 18.6565 15.3405 18.6823 15.3491 18.7081C15.3577 18.7252 15.3663 18.7338 15.3834 18.7338Z" fill="white"/>
<path d="M15.3834 18.519C15.392 18.519 15.4006 18.519 15.4092 18.5104L16.2686 17.9948C16.2858 17.9862 16.2944 17.9604 16.2858 17.9346C16.2772 17.9174 16.2514 17.9088 16.2256 17.9174L15.3663 18.4331C15.3491 18.4417 15.3405 18.4674 15.3491 18.4932C15.3577 18.5104 15.3663 18.519 15.3834 18.519Z" fill="white"/>
<path d="M15.3834 18.3042C15.392 18.3042 15.4006 18.3042 15.4092 18.2956L16.2686 17.7799C16.2858 17.7713 16.2944 17.7456 16.2858 17.7198C16.2772 17.7026 16.2514 17.694 16.2256 17.7026L15.3663 18.2182C15.3491 18.2268 15.3405 18.2526 15.3491 18.2784C15.3577 18.2956 15.3663 18.3042 15.3834 18.3042Z" fill="white"/>
<path d="M15.3834 17.2299C15.392 17.2299 15.4006 17.2299 15.4092 17.2213L16.2686 16.7057C16.2858 16.6971 16.2944 16.6713 16.2858 16.6456C16.2772 16.6284 16.2514 16.6198 16.2256 16.6284L15.3663 17.144C15.3491 17.1526 15.3405 17.1784 15.3491 17.2042C15.3577 17.2213 15.3663 17.2299 15.3834 17.2299Z" fill="white"/>
<path d="M15.3834 17.4877C15.392 17.4877 15.4006 17.4877 15.4092 17.4792L16.2686 16.9635C16.2858 16.9549 16.2944 16.9292 16.2858 16.9034C16.2772 16.8862 16.2514 16.8776 16.2256 16.8862L15.3663 17.4018C15.3491 17.4104 15.3405 17.4362 15.3491 17.462C15.3577 17.4792 15.3663 17.4877 15.3834 17.4877Z" fill="white"/>
<path d="M15.3834 17.7026C15.392 17.7026 15.4006 17.7026 15.4092 17.694L16.2686 17.1784C16.2858 17.1698 16.2944 17.144 16.2858 17.1182C16.2772 17.101 16.2514 17.0924 16.2256 17.101L15.3663 17.6167C15.3491 17.6252 15.3405 17.651 15.3491 17.6768C15.3577 17.694 15.3663 17.7026 15.3834 17.7026Z" fill="white"/>
<path d="M15.3834 17.9174C15.392 17.9174 15.4006 17.9174 15.4092 17.9088L16.2686 17.3932C16.2858 17.3846 16.2944 17.3588 16.2858 17.3331C16.2772 17.3159 16.2514 17.3073 16.2256 17.3159L15.3663 17.8315C15.3491 17.8401 15.3405 17.8659 15.3491 17.8917C15.3577 17.9088 15.3663 17.9174 15.3834 17.9174Z" fill="white"/>
<path d="M15.3834 18.1323C15.392 18.1323 15.4006 18.1323 15.4092 18.1237L16.2686 17.6081C16.2858 17.5995 16.2944 17.5737 16.2858 17.5479C16.2772 17.5307 16.2514 17.5221 16.2256 17.5307L15.3663 18.0463C15.3491 18.0549 15.3405 18.0807 15.3491 18.1065C15.3577 18.1237 15.3663 18.1323 15.3834 18.1323Z" fill="white"/>
<path d="M11 14.4375C11.7563 14.4375 12.375 13.8188 12.375 13.0625C12.375 12.3062 11 11 11 11C11 11 9.625 12.3062 9.625 13.0625C9.625 13.8188 10.2437 14.4375 11 14.4375Z" fill="white"/>
<path d="M11.6016 4.64062C11.0344 4.64062 10.5703 4.95 10.5703 5.32812V6.01562C10.6047 6.35938 11.0516 6.70312 11.6016 6.70312C12.1516 6.70312 12.5984 6.35938 12.6328 6.01562V5.32812C12.6328 4.95 12.1687 4.64062 11.6016 4.64062ZM11.6016 4.98438C12.0227 4.98438 12.2891 5.19062 12.2891 5.32812C12.2891 5.46563 12.0227 5.67188 11.6016 5.67188C11.1805 5.67188 10.9141 5.46563 10.9141 5.32812C10.9141 5.19062 11.1805 4.98438 11.6016 4.98438ZM11.1719 6.25625C11.0172 6.17891 10.9313 6.06719 10.9141 5.98984V5.84375C10.9914 5.84375 11.0773 5.92109 11.1719 5.95547V6.25625ZM11.8594 5.98984V6.325C11.8078 6.34219 11.7477 6.35078 11.6875 6.35938V6.01562H11.6016H11.5156V6.35938C11.4555 6.35078 11.3953 6.34219 11.3438 6.325V5.98984C11.4297 6.00703 11.5156 6.01562 11.6016 6.01562C11.6875 6.01562 11.7734 6.00703 11.8594 5.98984ZM12.0312 6.25625V5.95547C12.1258 5.92969 12.2117 5.84375 12.2891 5.84375V5.99844C12.2719 6.06719 12.1859 6.17891 12.0312 6.25625Z" fill="white"/>
<path d="M25.969 9C25.9321 8.9999 25.8958 9.0088 25.8636 9.02583L17.114 13.6092C17.1025 13.6161 17.0917 13.6242 17.0818 13.6331C17.0747 13.6379 17.068 13.6431 17.0615 13.6485C17.0432 13.6663 17.0283 13.6871 17.0177 13.7098C17.0166 13.7123 17.0166 13.7152 17.0155 13.7179C17.0072 13.7391 17.0024 13.7615 17.0015 13.7842C17.0015 13.7869 17 13.789 17 13.7917V18.7917C17 18.8469 17.023 18.8999 17.0641 18.939C17.1051 18.9781 17.1607 19 17.2187 19H30.7813C30.8393 19 30.8949 18.9781 30.9359 18.939C30.977 18.8999 31 18.8469 31 18.7917V13.7917C30.9985 12.5213 30.468 11.3033 29.5248 10.405C28.5816 9.50673 27.3028 9.00143 25.969 9ZM26.0245 9.41667C27.1949 9.43151 28.3153 9.87074 29.1575 10.6449C29.9997 11.419 30.5004 12.4699 30.5575 13.5833H30.0739C29.982 13.2887 29.8294 13.0144 29.625 12.7765C29.4206 12.5386 29.1685 12.3418 28.8835 12.1977C28.7618 11.6731 28.4552 11.2039 28.0147 10.8682C27.5742 10.5325 27.0264 10.3505 26.4622 10.3525C26.3927 10.3525 26.3214 10.3558 26.247 10.3627L26.2446 10.3581C26.1222 10.0656 25.9288 9.8049 25.6802 9.59729L26.0245 9.41667ZM28.3847 12.8958L28.0641 12.7513L28.0118 12.4275C27.9502 12.079 27.7605 11.7628 27.4766 11.5352C27.1928 11.3077 26.8333 11.1836 26.4622 11.1852C26.3829 11.1864 26.3038 11.1927 26.2253 11.2042L25.7262 11.274L25.5064 10.8573C25.323 10.5377 25.0251 10.2915 24.667 10.1638L25.3106 9.85729C25.5783 10.0077 25.6953 10.2354 25.8515 10.5394L25.9244 10.6798C25.9452 10.7192 25.9785 10.7513 26.0197 10.7715C26.0608 10.7916 26.1076 10.7989 26.1534 10.7921C26.2555 10.7763 26.3588 10.7681 26.4622 10.7675C26.9417 10.7643 27.4068 10.9233 27.7747 11.2162C28.1426 11.509 28.3895 11.9167 28.4714 12.3667C28.4768 12.4003 28.4908 12.4322 28.5121 12.4595C28.5335 12.4868 28.5616 12.5087 28.5939 12.5233C29.067 12.736 29.4342 13.1164 29.6171 13.5833H29.121C28.9658 13.2807 28.7058 13.0382 28.3847 12.8969V12.8958ZM24.0327 10.4604C24.2507 10.4619 24.4648 10.5165 24.6544 10.619C24.844 10.7216 25.0029 10.8687 25.1159 11.0463L25.4064 11.5967C25.427 11.6358 25.4601 11.6677 25.5009 11.6879C25.5417 11.7081 25.5882 11.7155 25.6337 11.7092L26.2864 11.6177C26.3443 11.6092 26.4028 11.6042 26.4614 11.6029C26.728 11.6008 26.9867 11.6889 27.1913 11.8517C27.396 12.0145 27.5332 12.2412 27.5785 12.4915L27.6485 12.925C27.6539 12.9587 27.6679 12.9905 27.6892 13.0179C27.7106 13.0452 27.7387 13.0671 27.771 13.0817L28.1969 13.2735C28.3555 13.3452 28.4943 13.4513 28.6022 13.5833H18.0712L24.0327 10.4604ZM17.4381 16.5H29.6876V16.9167H17.4381V16.5ZM29.6876 16.0833H17.4381V14.8333H29.6876V16.0833ZM17.4381 18.5833V17.3333H29.6876V18.5833H17.4381ZM30.5625 18.5833H30.125V14.625C30.125 14.5697 30.102 14.5168 30.061 14.4777C30.02 14.4386 29.9643 14.4167 29.9063 14.4167H17.4381V14H30.5625V18.5833Z" fill="white"/>
<path d="M24.875 11.5296V11.0833C24.875 11.0281 24.8519 10.9751 24.8109 10.936C24.7699 10.8969 24.7142 10.875 24.6562 10.875C24.5982 10.875 24.5426 10.8969 24.5015 10.936C24.4605 10.9751 24.4375 11.0281 24.4375 11.0833V11.5296C24.2313 11.5803 24.0516 11.7009 23.9321 11.8688C23.8125 12.0366 23.7614 12.2402 23.7882 12.4415C23.8151 12.6427 23.918 12.8277 24.0778 12.9617C24.2376 13.0958 24.4433 13.1698 24.6562 13.1698C24.8692 13.1698 25.0748 13.0958 25.2346 12.9617C25.3944 12.8277 25.4974 12.6427 25.5242 12.4415C25.551 12.2402 25.4999 12.0366 25.3804 11.8688C25.2608 11.7009 25.0811 11.5803 24.875 11.5296ZM24.6562 12.75C24.5601 12.7502 24.4665 12.7202 24.3901 12.6646C24.3138 12.6089 24.2588 12.5308 24.2339 12.4424C24.2089 12.3539 24.2154 12.2601 24.2522 12.1755C24.289 12.0909 24.3541 12.0203 24.4375 11.9746V12.125C24.4375 12.1803 24.4605 12.2332 24.5015 12.2723C24.5426 12.3114 24.5982 12.3333 24.6562 12.3333C24.7142 12.3333 24.7699 12.3114 24.8109 12.2723C24.8519 12.2332 24.875 12.1803 24.875 12.125V11.9746C24.9583 12.0203 25.0234 12.0909 25.0602 12.1755C25.097 12.2601 25.1035 12.3539 25.0785 12.4424C25.0536 12.5308 24.9987 12.6089 24.9223 12.6646C24.8459 12.7202 24.7524 12.7502 24.6562 12.75Z" fill="white"/>
</svg>
