<svg width="50" height="50" viewBox="0 0 50 50" fill="none" xmlns="http://www.w3.org/2000/svg">
<g clip-path="url(#clip0_2589_3771)">
<path d="M25 50C38.8071 50 50 38.8071 50 25C50 11.1929 38.8071 0 25 0C11.1929 0 0 11.1929 0 25C0 38.8071 11.1929 50 25 50Z" fill="#6E9583"/>
<mask id="mask0_2589_3771" style="mask-type:luminance" maskUnits="userSpaceOnUse" x="0" y="0" width="50" height="50">
<path d="M25 50C38.8071 50 50 38.8071 50 25C50 11.1929 38.8071 0 25 0C11.1929 0 0 11.1929 0 25C0 38.8071 11.1929 50 25 50Z" fill="white"/>
</mask>
<g mask="url(#mask0_2589_3771)">
<path d="M36.5512 11.5925L49.9996 25V50H21.234L13.0234 41.7601L36.5512 11.5925Z" fill="#648778"/>
</g>
<path d="M32.8297 7.8125H14.0695C13.1168 7.8125 12.5 8.63672 12.5 9.58945V40.4109C12.5 41.3637 13.1168 42.1879 14.0695 42.1879H35.9402C36.893 42.1879 37.5098 41.3637 37.5098 40.4109V12.5559L32.8297 7.8125Z" fill="#F1F1F1"/>
<mask id="mask1_2589_3771" style="mask-type:luminance" maskUnits="userSpaceOnUse" x="12" y="7" width="26" height="36">
<path d="M32.8297 7.8125H14.0695C13.1168 7.8125 12.5 8.63672 12.5 9.58945V40.4109C12.5 41.3637 13.1168 42.1879 14.0695 42.1879H35.9402C36.893 42.1879 37.5098 41.3637 37.5098 40.4109V12.5559L32.8297 7.8125Z" fill="white"/>
</mask>
<g mask="url(#mask1_2589_3771)">
<path d="M19.9012 26.4144L25.6008 32.0476L16.7852 32.4558L19.4437 35.1562L16.7852 35.5808L19.2484 38.1074L16.7852 38.7058L20.7133 42.6972H38.1574V29.573L37.9195 21.1152L31.6633 14.7492L27.7223 17.546L24.4855 13.7136L19.9012 26.4144Z" fill="#DDE1F1"/>
</g>
<path d="M34.448 12.5539L37.5102 12.5559L32.8301 7.8125V10.9219C32.8301 11.8742 33.5039 12.5539 34.448 12.5539Z" fill="#C2DFC9"/>
<path d="M32.8125 32.6172H17.1875C16.8641 32.6172 16.6016 32.3547 16.6016 32.0312C16.6016 31.7078 16.8641 31.4453 17.1875 31.4453H32.8125C33.1359 31.4453 33.3984 31.7078 33.3984 32.0312C33.3984 32.3547 33.1359 32.6172 32.8125 32.6172Z" fill="#495260"/>
<path d="M32.8125 35.7422H17.1875C16.8641 35.7422 16.6016 35.4797 16.6016 35.1562C16.6016 34.8328 16.8641 34.5703 17.1875 34.5703H32.8125C33.1359 34.5703 33.3984 34.8328 33.3984 35.1562C33.3984 35.4797 33.1359 35.7422 32.8125 35.7422Z" fill="#495260"/>
<path d="M32.8125 38.8672H17.1875C16.8641 38.8672 16.6016 38.6047 16.6016 38.2812C16.6016 37.9578 16.8641 37.6953 17.1875 37.6953H32.8125C33.1359 37.6953 33.3984 37.9578 33.3984 38.2812C33.3984 38.6047 33.1359 38.8672 32.8125 38.8672Z" fill="#495260"/>
<path d="M27.1754 12.439L26.6602 16.8542C27.5641 17.198 28.3172 17.9198 28.6648 18.903C28.8887 19.5355 28.9113 20.189 28.7719 20.798L32.7785 22.7101C32.9844 22.8085 33.2297 22.7011 33.2977 22.4831C33.8086 20.8472 33.8145 19.0382 33.1988 17.2984C32.2695 14.6722 30.1414 12.8152 27.6473 12.121C27.4262 12.0593 27.202 12.2109 27.1754 12.439Z" fill="#0E9CD9"/>
<path d="M26.0472 23.3987C24.6202 23.6596 23.1573 22.9612 22.4628 21.6877C22.0355 20.9041 21.9503 20.0573 22.1276 19.2827L18.1214 17.3706C17.9155 17.2725 17.6702 17.3795 17.6023 17.5971C17.0999 19.2057 17.0859 20.9811 17.6706 22.6944C19.1163 26.9295 23.7737 29.2502 28.0233 27.8471C29.8417 27.2467 31.3042 26.0772 32.2855 24.6049C32.412 24.4151 32.3405 24.1569 32.1351 24.0588L28.1284 22.1463C27.6374 22.7717 26.9257 23.2381 26.0472 23.3987Z" fill="#E95037"/>
<path d="M24.3128 16.8257C24.5995 16.7242 24.8906 16.6675 25.18 16.6445L25.6941 12.2402C25.7202 12.0152 25.5421 11.8183 25.3159 11.8218C24.4495 11.8355 23.5702 11.9863 22.7081 12.2914C20.9679 12.907 19.5656 14.0492 18.6148 15.4753C18.4882 15.6652 18.5593 15.9234 18.7652 16.0218L22.7718 17.9339C23.1577 17.4429 23.6804 17.0496 24.3128 16.8257Z" fill="#69B32D"/>
<mask id="mask2_2589_3771" style="mask-type:luminance" maskUnits="userSpaceOnUse" x="17" y="11" width="17" height="18">
<path d="M27.2249 12.0156L26.6601 16.8542C27.564 17.198 28.3171 17.9199 28.6648 18.9031C28.8886 19.5355 28.9112 20.189 28.7718 20.798L32.7784 22.7101C32.9843 22.8085 33.2296 22.7011 33.2976 22.4832C33.8085 20.8472 33.8144 19.0382 33.1987 17.2984C32.2175 14.5253 29.8991 12.6097 27.2249 12.0156ZM26.0472 23.3988C24.6202 23.6597 23.1573 22.9613 22.4628 21.6878C22.0355 20.9042 21.9503 20.0574 22.1276 19.2828L18.1214 17.3707C17.9155 17.2726 17.6702 17.3796 17.6023 17.5972C17.0999 19.2058 17.0858 20.9812 17.6706 22.6945C19.1163 26.9296 23.7737 29.2503 28.0234 27.8472C29.8417 27.2468 31.3042 26.0773 32.2855 24.605C32.412 24.4152 32.3405 24.157 32.1351 24.0589L28.1284 22.1464C27.6374 22.7718 26.9257 23.2382 26.0472 23.3988ZM24.3124 16.8257C24.5991 16.7242 24.8901 16.6675 25.1796 16.6445L25.6937 12.2402C25.7198 12.0152 25.5417 11.8183 25.3155 11.8218C24.4491 11.8355 23.5698 11.9863 22.7077 12.2914C20.9675 12.907 19.5651 14.0492 18.6144 15.4753C18.4878 15.6652 18.5589 15.9234 18.7648 16.0218L22.7714 17.9339C23.1573 17.4429 23.68 17.0496 24.3124 16.8257Z" fill="white"/>
</mask>
<g mask="url(#mask2_2589_3771)">
<path opacity="0.4" d="M25.45 24.9261C28.1482 24.9261 30.3355 22.7388 30.3355 20.0406C30.3355 17.3424 28.1482 15.155 25.45 15.155C22.7518 15.155 20.5645 17.3424 20.5645 20.0406C20.5645 22.7388 22.7518 24.9261 25.45 24.9261Z" fill="white"/>
</g>
</g>
<defs>
<clipPath id="clip0_2589_3771">
<rect width="50" height="50" fill="white"/>
</clipPath>
</defs>
</svg>
