<svg width="105" height="69" viewBox="0 0 105 69" fill="none" xmlns="http://www.w3.org/2000/svg">
<circle cx="102.5" cy="23.5" r="2.5" fill="white"/>
<circle cx="2.5" cy="2.5" r="2.5" fill="white"/>
<circle cx="2.5" cy="23.5" r="2.5" fill="white"/>
<circle cx="2.5" cy="45.5" r="2.5" fill="white"/>
<circle cx="2.5" cy="66.5" r="2.5" fill="white"/>
<circle cx="27.5" cy="2.5" r="2.5" fill="white"/>
<circle cx="27.5" cy="23.5" r="2.5" fill="white"/>
<circle cx="27.5" cy="45.5" r="2.5" fill="white"/>
<circle cx="27.5" cy="66.5" r="2.5" fill="white"/>
<circle cx="52.5" cy="2.5" r="2.5" fill="white"/>
<circle cx="77.5" cy="2.5" r="2.5" fill="white"/>
<circle cx="102.5" cy="2.5" r="2.5" fill="white"/>
<circle cx="52.5" cy="23.5" r="2.5" fill="white"/>
<circle cx="77.5" cy="23.5" r="2.5" fill="white"/>
<circle cx="52.5" cy="45.5" r="2.5" fill="white"/>
<circle cx="77.5" cy="45.5" r="2.5" fill="white"/>
<circle cx="102.5" cy="45.5" r="2.5" fill="white"/>
<circle cx="52.5" cy="66.5" r="2.5" fill="white"/>
<circle cx="77.5" cy="66.5" r="2.5" fill="white"/>
<circle cx="102.5" cy="66.5" r="2.5" fill="white"/>
</svg>
