<svg width="33" height="29" viewBox="0 0 33 29" fill="none" xmlns="http://www.w3.org/2000/svg">
<path d="M23.9344 0.984375H4.05293C2.13067 0.984375 0.575195 2.54664 0.575195 4.4689V15.3436C0.575195 16.3081 0.962365 17.1776 1.59406 17.8093C2.21897 18.441 3.0884 18.8281 4.05293 18.8281C4.28387 18.8281 4.46048 19.0319 4.42652 19.2697L3.84237 23.0191C3.78123 23.3859 4.21595 23.6032 4.47406 23.3451L8.97746 18.9368C9.05218 18.8689 9.14048 18.8281 9.24237 18.8281H23.9344C25.8567 18.8281 27.419 17.2727 27.419 15.3436V4.4689C27.419 2.54664 25.8567 0.984375 23.9344 0.984375ZM8.53595 9.61079L7.57142 10.5481C7.48991 10.6297 7.44916 10.7519 7.46954 10.8674L7.70048 12.1919C7.74803 12.4772 7.44237 12.7014 7.18425 12.5655L5.98878 11.9406C5.93861 11.9138 5.88262 11.8998 5.82576 11.8998C5.7689 11.8998 5.71291 11.9138 5.66274 11.9406L4.46048 12.5655C4.20237 12.7014 3.8967 12.484 3.95104 12.1919L4.1752 10.8674C4.18463 10.811 4.1803 10.7531 4.16256 10.6987C4.14482 10.6443 4.1142 10.595 4.07331 10.5549L3.10878 9.61079C3.06126 9.56407 3.02767 9.50506 3.01177 9.44035C2.99586 9.37565 2.99825 9.30779 3.01869 9.24436C3.03913 9.18094 3.0768 9.12445 3.12749 9.0812C3.17819 9.03795 3.23991 9.00965 3.30576 8.99947L4.63708 8.80928C4.75255 8.7957 4.85444 8.72098 4.90878 8.61909L5.50652 7.40324C5.63557 7.13834 6.01595 7.13834 6.14501 7.40324L6.73595 8.61909C6.79029 8.72098 6.89218 8.7957 7.00765 8.80928L8.33897 8.99947C8.63105 9.04702 8.74652 9.40022 8.53595 9.61079ZM16.7073 9.61079L15.7427 10.5481C15.6612 10.6297 15.6205 10.7519 15.6409 10.8674L15.8718 12.1919C15.9193 12.4772 15.6205 12.7014 15.3556 12.5655L14.1601 11.9406C14.1099 11.9138 14.0539 11.8998 13.9971 11.8998C13.9402 11.8998 13.8842 11.9138 13.8341 11.9406L12.6386 12.5655C12.3737 12.7014 12.0748 12.484 12.1224 12.1919L12.3465 10.8674C12.356 10.811 12.3516 10.7531 12.3339 10.6987C12.3161 10.6443 12.2855 10.595 12.2446 10.5549L11.2801 9.61079C11.2326 9.56407 11.199 9.50506 11.1831 9.44035C11.1672 9.37565 11.1696 9.30779 11.19 9.24436C11.2104 9.18094 11.2481 9.12445 11.2988 9.0812C11.3495 9.03795 11.4112 9.00965 11.4771 8.99947L12.8084 8.80928C12.9239 8.7957 13.0258 8.72098 13.0801 8.61909L13.6778 7.40324C13.8069 7.13834 14.1873 7.13834 14.3163 7.40324L14.9073 8.61909C14.9616 8.72098 15.0635 8.7957 15.179 8.80928L16.5103 8.99947C16.8024 9.04702 16.9178 9.40022 16.7073 9.61079ZM24.8786 9.61079L23.9141 10.5481C23.8326 10.6297 23.7986 10.7519 23.819 10.8674L24.0431 12.1919C24.0975 12.4772 23.7918 12.7014 23.5269 12.5655L22.3382 11.9406C22.2868 11.9138 22.2297 11.8998 22.1718 11.8998C22.1139 11.8998 22.0568 11.9138 22.0054 11.9406L20.8099 12.5655C20.5518 12.7014 20.2461 12.484 20.2937 12.1919L20.5178 10.8674C20.5273 10.811 20.5229 10.7531 20.5052 10.6987C20.4875 10.6443 20.4568 10.595 20.416 10.5549L19.4514 9.61079C19.4039 9.56407 19.3703 9.50506 19.3544 9.44035C19.3385 9.37565 19.3409 9.30779 19.3613 9.24436C19.3818 9.18094 19.4194 9.12445 19.4701 9.0812C19.5208 9.03795 19.5826 9.00965 19.6484 8.99947L20.9865 8.80928C21.102 8.7957 21.1971 8.72098 21.2514 8.61909L21.8492 7.40324C21.985 7.13834 22.3586 7.13834 22.4876 7.40324L23.0854 8.61909C23.11 8.67047 23.1472 8.71482 23.1935 8.74806C23.2398 8.7813 23.2937 8.80235 23.3503 8.80928L24.6816 8.99947C24.9737 9.04702 25.0892 9.40022 24.8786 9.61079Z" fill="#DAA520"/>
<path d="M32.4993 9.0275V19.909C32.4993 20.8735 32.1053 21.743 31.4804 22.3747C30.8487 22.9996 29.9725 23.3867 29.0148 23.3867C28.7838 23.3867 28.6072 23.5973 28.648 23.8283L29.2253 27.5777C29.2865 27.9445 28.8518 28.1618 28.5936 27.9105L24.0902 23.4954C24.0173 23.4294 23.9236 23.3909 23.8253 23.3867H9.13326C8.35893 23.3867 7.64572 23.1354 7.06836 22.7075L9.6427 20.1875H23.934C26.6035 20.1875 28.777 18.0139 28.777 15.3445V5.54297H29.0148C30.937 5.54297 32.4993 7.09844 32.4993 9.0275Z" fill="#DAA520"/>
</svg>
