<svg width="60" height="38" viewBox="0 0 60 38" fill="none" xmlns="http://www.w3.org/2000/svg">
    <path
        d="M59.717 15.6872L49.7062 4.04692C49.6448 3.97444 49.5684 3.91615 49.4822 3.87609C49.3961 3.83603 49.3023 3.81515 49.2073 3.81489H34.753C34.7324 3.81357 34.7118 3.81357 34.6912 3.81489L31.3486 0.592235C30.9877 0.241422 30.5042 0.045166 30.0009 0.045166C29.4976 0.045166 29.0141 0.241422 28.6532 0.592235L25.3107 3.81489H25.2488H10.7932C10.6985 3.815 10.6048 3.83556 10.5188 3.87516C10.4327 3.91476 10.3561 3.97246 10.2944 4.04434L0.283509 15.6872C0.201331 15.7825 0.148243 15.8994 0.130551 16.024C0.11286 16.1486 0.131309 16.2757 0.183706 16.3901C0.236103 16.5045 0.320247 16.6015 0.426141 16.6696C0.532035 16.7376 0.655229 16.7738 0.781087 16.7738H2.09335V37.297C2.09335 37.4714 2.16262 37.6386 2.28591 37.7619C2.4092 37.8852 2.57642 37.9544 2.75077 37.9544H57.2498C57.4241 37.9544 57.5913 37.8852 57.7146 37.7619C57.8379 37.6386 57.9072 37.4714 57.9072 37.297V16.7738H59.2194C59.3453 16.7738 59.4685 16.7376 59.5744 16.6696C59.6803 16.6015 59.7644 16.5045 59.8168 16.3901C59.8692 16.2757 59.8877 16.1486 59.87 16.024C59.8523 15.8994 59.7992 15.7825 59.717 15.6872ZM48.9057 5.12973L57.786 15.459H45.1854C45.2383 15.0426 45.1937 14.6195 45.055 14.2233C44.9163 13.8271 44.6873 13.4686 44.3862 13.1761L36.0498 5.12973H48.9057ZM29.5697 1.53841C29.6862 1.42509 29.8423 1.3617 30.0048 1.3617C30.1673 1.3617 30.3234 1.42509 30.4398 1.53841L43.4774 14.1222C43.7322 14.373 43.8811 14.712 43.8936 15.0692C43.906 15.4265 43.7811 15.775 43.5444 16.0429C43.421 16.1907 43.2677 16.3107 43.0947 16.3951C42.9216 16.4795 42.7327 16.5264 42.5403 16.5328C42.3475 16.5423 42.155 16.5103 41.9758 16.4389C41.7965 16.3675 41.6347 16.2584 41.5013 16.119L40.8039 15.4087C40.744 15.2943 40.6516 15.2001 40.5384 15.138L31.3692 5.80134C31.0046 5.44181 30.513 5.24026 30.0009 5.24026C29.4888 5.24026 28.9973 5.44181 28.6326 5.80134L19.466 15.1329C19.3528 15.1949 19.2604 15.2891 19.2005 15.4036L18.5031 16.1138C18.3693 16.2523 18.2076 16.3608 18.0287 16.4321C17.8498 16.5034 17.6578 16.536 17.4654 16.5276C17.1926 16.5134 16.9297 16.4207 16.7083 16.2607C16.4869 16.1006 16.3164 15.88 16.2174 15.6254C16.1184 15.3707 16.0951 15.0929 16.1502 14.8253C16.2054 14.5578 16.3367 14.3118 16.5283 14.1171L29.5697 1.53841ZM11.0949 5.12973H23.9507L15.6156 13.1761C15.3139 13.4679 15.0848 13.8265 14.9469 14.223C14.809 14.6195 14.766 15.0429 14.8216 15.459H2.21452L11.0949 5.12973ZM3.4082 16.7738H15.3643C15.3952 16.8138 15.4235 16.8538 15.4558 16.8924C15.6986 17.1787 15.9983 17.4113 16.3358 17.5755C16.6734 17.7397 17.0414 17.832 17.4164 17.8463H17.5157C18.0953 17.8458 18.6594 17.6587 19.1244 17.3127V36.6396H3.4082V16.7738ZM26.3535 36.6396V29.3358C26.3535 28.3785 26.7338 27.4604 27.4107 26.7835C28.0876 26.1066 29.0056 25.7264 29.9629 25.7264H30.048C31.0052 25.7264 31.9233 26.1066 32.6002 26.7835C33.2771 27.4604 33.6573 28.3785 33.6573 29.3358V36.6396H26.3535ZM34.9696 36.6396V29.3358C34.9679 28.0301 34.4481 26.7785 33.5244 25.8557C32.6006 24.9329 31.3485 24.4144 30.0428 24.4141H29.9577C28.6525 24.4155 27.4011 24.9346 26.4782 25.8575C25.5553 26.7804 25.0362 28.0318 25.0348 29.337V36.6409H20.4393V16.0249L29.5594 6.73591C29.6755 6.62118 29.8319 6.55631 29.9951 6.5551C30.1583 6.5539 30.3156 6.61646 30.4334 6.72946L39.5612 16.0236V36.6396H34.9696ZM56.5962 36.6396H40.8761V17.3152C41.4321 17.7274 42.1251 17.9101 42.812 17.8257C43.4989 17.7412 44.1271 17.396 44.5667 16.8615C44.5912 16.8331 44.6118 16.8022 44.6337 16.7738H56.5872L56.5962 36.6396Z"
        fill="#DA5820" />
    <path
        d="M44.1477 21.6233C43.9733 21.6233 43.8061 21.6926 43.6828 21.8158C43.5595 21.9391 43.4902 22.1064 43.4902 22.2807V31.143C43.4906 31.3173 43.5599 31.4843 43.6832 31.6075C43.8064 31.7307 43.9734 31.8001 44.1477 31.8004H53.0113C53.0976 31.8004 53.1831 31.7834 53.2628 31.7504C53.3426 31.7174 53.4151 31.6689 53.4761 31.6079C53.5372 31.5468 53.5856 31.4744 53.6186 31.3946C53.6517 31.3148 53.6687 31.2294 53.6687 31.143V22.2807C53.6687 22.1944 53.6517 22.1089 53.6186 22.0291C53.5856 21.9494 53.5372 21.8769 53.4761 21.8158C53.4151 21.7548 53.3426 21.7064 53.2628 21.6733C53.1831 21.6403 53.0976 21.6233 53.0113 21.6233H44.1477ZM47.9182 22.9381V26.0538H44.8051V22.9381H47.9182ZM44.8012 27.3686H47.9182V30.4856H44.8051L44.8012 27.3686ZM49.233 30.4856V27.3686H52.35V30.4856H49.233ZM52.35 26.0538H49.2369V22.9381H52.3538L52.35 26.0538Z"
        fill="#DA5820" />
    <path
        d="M15.8527 21.6233H6.99043C6.81607 21.6233 6.64885 21.6926 6.52556 21.8158C6.40227 21.9391 6.33301 22.1064 6.33301 22.2807V31.143C6.33301 31.3174 6.40227 31.4846 6.52556 31.6079C6.64885 31.7312 6.81607 31.8004 6.99043 31.8004H15.8527C16.027 31.8001 16.194 31.7307 16.3172 31.6075C16.4404 31.4843 16.5098 31.3173 16.5102 31.143V22.2807C16.5102 22.1064 16.4409 21.9391 16.3176 21.8158C16.1943 21.6926 16.0271 21.6233 15.8527 21.6233ZM15.1953 26.0538H12.0822V22.9381H15.1992L15.1953 26.0538ZM10.7635 22.9381V26.0538H7.64785V22.9381H10.7635ZM7.64785 27.3686H10.7635V30.4856H7.64785V27.3686ZM12.0822 30.4856V27.3686H15.1992V30.4856H12.0822Z"
        fill="#DA5820" />
</svg>
