<svg width="25" height="25" viewBox="0 0 25 25" fill="none" xmlns="http://www.w3.org/2000/svg">
<path d="M9.46459 15.5874C9.493 15.5505 10.5044 13.7834 10.5157 13.7351C10.5149 13.6754 10.4952 13.6174 10.4595 13.5694C10.4238 13.5215 10.3739 13.486 10.3169 13.4681C10.2585 13.4477 10.195 13.4482 10.1369 13.4694C10.0789 13.4906 10.0301 13.5313 9.99868 13.5846C9.95039 13.6641 9.08959 15.1442 9.00721 15.2891C8.9757 15.3487 8.96816 15.418 8.98611 15.483C9.00407 15.548 9.04617 15.6036 9.1038 15.6385C9.16039 15.6737 9.22753 15.6878 9.29347 15.6784C9.35942 15.6691 9.41999 15.6369 9.46459 15.5874Z" fill="white"/>
<path d="M15.0399 13.4386C14.9914 13.4413 14.9444 13.4564 14.9034 13.4824C14.8623 13.5084 14.8287 13.5445 14.8056 13.5873C14.7825 13.63 14.7708 13.678 14.7715 13.7266C14.7723 13.7751 14.7854 13.8227 14.8098 13.8647C15.4291 14.9329 15.7643 15.5011 15.8155 15.5693C15.8354 15.5964 15.8605 15.6193 15.8893 15.6366C15.9181 15.654 15.95 15.6655 15.9833 15.6705C16.0165 15.6755 16.0504 15.674 16.0831 15.6658C16.1157 15.6577 16.1464 15.6433 16.1734 15.6233C16.2285 15.5895 16.2691 15.5366 16.2875 15.4747C16.3058 15.4128 16.3006 15.3463 16.2729 15.288C16.2274 15.1943 15.5598 14.0494 15.2785 13.5665C15.2558 13.524 15.221 13.4892 15.1786 13.4665C15.1361 13.4437 15.0879 13.434 15.0399 13.4386Z" fill="white"/>
<path d="M17.5059 10.3549V10.8975H18.0513V10.3293C18.0323 10.2708 17.9949 10.22 17.9445 10.1846C17.8942 10.1491 17.8337 10.131 17.7722 10.133C17.7107 10.1349 17.6514 10.1567 17.6034 10.1952C17.5554 10.2337 17.5211 10.2868 17.5059 10.3464V10.3549Z" fill="white"/>
<path d="M20.3952 17.7994L20.2731 17.7738C20.2731 17.7511 19.989 10.4641 19.5884 6.34197L19.4265 5.77379C19.3894 5.7119 19.3396 5.65862 19.2803 5.61747C19.221 5.57633 19.1537 5.54827 19.0827 5.53515C17.1888 5.02758 15.9416 4.48496 15.3413 3.90731C15.2588 3.8447 15.1801 3.77735 15.1055 3.70561C15.0702 3.66711 15.0251 3.63906 14.975 3.62452C14.9249 3.60999 14.8717 3.60954 14.8214 3.62322C14.0665 3.84653 13.2869 3.97535 12.5004 4.00674C11.6962 3.98697 10.898 3.8638 10.1254 3.64027C10.0703 3.62537 10.0122 3.62654 9.95781 3.64366C9.90343 3.66078 9.8551 3.69312 9.81854 3.73686C9.75604 3.80788 9.68761 3.87346 9.61399 3.93288C9.34518 4.20423 9.02039 4.41365 8.66229 4.54652C7.90533 4.93122 7.114 5.24414 6.29865 5.48118C6.13394 5.5315 5.98834 5.63055 5.88104 5.76527C5.5174 6.20655 5.13104 10.2066 4.72195 17.7653C4.49183 17.7965 4.42081 17.8704 4.41797 18.0863C4.41797 18.4215 4.41797 18.7539 4.41797 19.0891C4.41797 19.3136 4.48047 19.3903 4.70206 19.4414L4.64808 21.1005C4.64351 21.137 4.64694 21.174 4.65813 21.209C4.66932 21.244 4.68801 21.2761 4.71288 21.3032C4.73776 21.3302 4.76824 21.3515 4.80218 21.3655C4.83613 21.3796 4.87273 21.3861 4.90945 21.3846C6.98331 21.3846 8.0335 21.3846 8.06001 21.3846C8.12254 21.3788 8.18054 21.3495 8.22222 21.3025C8.26391 21.2556 8.28615 21.1945 8.28445 21.1317C8.28445 20.7795 8.28445 20.43 8.28445 20.0778C8.28445 20.0209 8.26456 20.0011 8.20774 20.0011C8.08284 20.0082 7.95764 20.0082 7.83274 20.0011C7.74751 20.0011 7.72195 20.0238 7.72479 20.109V20.8391H5.13104L5.19638 19.4357H6.35547V17.7994H5.25604C5.6727 10.3959 6.05149 6.48212 6.3924 6.05788C7.24242 5.7625 8.07684 5.42399 8.8924 5.04368C9.03562 4.97734 9.17419 4.90141 9.30717 4.8164C9.30717 4.83345 8.57422 6.49254 8.43786 6.80504C8.42926 6.81893 8.42347 6.83437 8.42081 6.85049C8.40248 6.91717 8.41133 6.98839 8.44541 7.04856C8.47949 7.10873 8.53602 7.15294 8.60263 7.17152C8.88104 7.26243 9.52971 7.46413 10.5487 7.77663L10.0004 9.1772C9.97694 9.2137 9.9622 9.25509 9.95725 9.29817C9.95231 9.34126 9.9573 9.38491 9.97183 9.42577C9.98637 9.46663 10.0101 9.50362 10.0411 9.53391C10.0721 9.5642 10.1097 9.58697 10.1509 9.60049C10.3896 9.7397 13.2191 11.3704 13.2418 11.4556C13.2646 11.5408 12.9805 13.9783 12.4577 18.8903H7.48331V10.4016C7.48331 10.3263 7.45338 10.254 7.4001 10.2007C7.34682 10.1475 7.27456 10.1175 7.19922 10.1175C7.12387 10.1175 7.05161 10.1475 6.99834 10.2007C6.94506 10.254 6.91513 10.3263 6.91513 10.4016V19.1403C6.91262 19.1782 6.91824 19.2163 6.93163 19.2519C6.94502 19.2875 6.96586 19.3198 6.99276 19.3467C7.01966 19.3736 7.05199 19.3945 7.0876 19.4079C7.12321 19.4212 7.16126 19.4269 7.19922 19.4244H12.9862H17.7532C17.8024 19.4308 17.8524 19.4242 17.8983 19.4052C17.9441 19.3863 17.9842 19.3557 18.0146 19.3164C18.0521 19.2462 18.0734 19.1686 18.0771 19.0891C18.0771 19.0011 18.0771 18.913 18.0771 18.8249V18.3136C18.0771 13.9158 18.0771 11.6355 18.0771 11.4727C18.0771 11.4442 18.0487 11.3959 18.0316 11.3959H17.5202V18.8846H13.043C13.239 17.0181 13.8242 11.3107 13.7958 11.1147L13.4094 8.39879C13.3705 8.19917 13.2891 8.01026 13.1708 7.84481C12.3451 6.66678 11.5231 5.49064 10.7049 4.3164C11.8692 4.59624 13.0832 4.59624 14.2475 4.3164C14.2362 4.33913 13.7447 5.02663 12.7731 6.3789L13.1708 6.85333L14.8555 4.43572L15.9094 6.61754L14.0799 7.12606L14.6225 8.88174L13.9293 9.21413L14.0202 9.74254C14.0175 9.75565 14.0175 9.7692 14.0202 9.78231C14.5231 9.54652 14.864 9.37606 15.0572 9.26811C15.1101 9.23737 15.1518 9.19034 15.1758 9.13402C15.1999 9.07771 15.2051 9.01513 15.1907 8.95561C15.1907 8.91868 15.0401 8.43572 14.7646 7.51243L15.7646 7.22833C15.9805 7.16583 16.1992 7.11186 16.4094 7.04083C16.4431 7.02949 16.474 7.01109 16.5 6.98686C16.5261 6.96263 16.5466 6.93313 16.5603 6.90033C16.574 6.86753 16.5806 6.83218 16.5796 6.79664C16.5785 6.7611 16.5699 6.72619 16.5543 6.69424C16.5543 6.66867 16.2361 6.02947 15.6282 4.77379C16.6486 5.30959 17.7228 5.73619 18.8327 6.04652C18.9435 6.04652 18.9975 6.14879 18.9975 6.33061C19.1623 7.46697 19.3952 11.2842 19.6964 17.7823H18.6396V19.4386H19.7219V20.8249H17.3015V20.0011H16.7333C16.7333 20.4982 16.7333 20.8704 16.7333 21.1119C16.7333 21.288 16.8157 21.3789 16.9918 21.3789C17.168 21.3789 19.756 21.3789 20.0032 21.3789C20.0785 21.3789 20.1508 21.349 20.2041 21.2957C20.2574 21.2424 20.2873 21.1702 20.2873 21.0948C20.2873 21.0721 20.2873 19.4357 20.2873 19.4329C20.5231 19.4329 20.6026 19.3107 20.6026 19.0977V18.0494C20.6024 17.9901 20.5816 17.9328 20.5437 17.8872C20.5059 17.8416 20.4534 17.8105 20.3952 17.7994ZM5.80717 18.3334V18.5891C5.80717 18.6715 5.80717 18.7539 5.80717 18.8334C5.80717 18.8505 5.77876 18.8874 5.76172 18.8874H4.96911V18.3192L5.80717 18.3334ZM12.7844 8.27095C12.8069 8.30417 12.8214 8.34206 12.8271 8.38174C12.8763 8.69992 12.9871 9.47739 13.1594 10.7141L10.5685 9.20845L11.2759 7.43856L9.09126 6.74822L10.1112 4.47549L12.7844 8.27095ZM20.0288 18.3363V18.7511C20.0288 18.8704 20.0089 18.8874 19.8896 18.8903H19.2731C19.2134 18.8903 19.1964 18.8732 19.1964 18.8164V18.3334L20.0288 18.3363Z" fill="white"/>
</svg>
