<svg width="432" height="131" viewBox="0 0 432 131" fill="none" xmlns="http://www.w3.org/2000/svg">
<path d="M431.99 2.32462C432.015 0.767291 431.279 -0.018932 429.702 0.00626751C428.86 0.00626751 428.024 0.00626751 427.182 0.00626751H129.168C128.412 0.00626751 127.656 0.00626751 126.9 0.00626751C126.318 -0.0323603 125.738 0.108247 125.237 0.409181C124.737 0.710115 124.341 1.15695 124.103 1.68959C123.659 2.59523 123.023 3.39341 122.24 4.02874C121.457 4.66406 120.545 5.1213 119.567 5.36871C119.238 5.41082 118.925 5.53802 118.66 5.73775C118.395 5.93748 118.186 6.20286 118.055 6.50773C117.556 7.61722 117.503 8.87652 117.909 10.0236C118.314 11.1707 119.147 12.1173 120.232 12.6665C121.071 13.0428 121.863 13.5128 122.596 14.0676C125.927 16.9252 124.814 21.9852 120.212 23.8903C118.287 24.6917 117.692 25.6795 117.753 27.6098C117.823 29.3636 117.869 30.6337 120.041 31.4098C122.677 32.3523 124.773 34.1919 124.355 37.6391C124.211 38.8796 123.703 40.0498 122.896 41.0029C122.089 41.956 121.019 42.6495 119.819 42.9966C118.095 43.4602 117.717 44.4077 117.803 45.9046C117.909 47.5728 117.299 49.3367 119.819 50.133C123.186 51.2065 124.436 53.3737 124.355 56.4984C124.274 59.6232 122.026 60.9739 119.517 61.8609C117.203 62.6773 117.939 64.5068 117.818 66.0692C117.712 67.4451 118.075 68.3774 119.678 68.8462C122.752 69.7483 124.249 72.0314 124.375 74.8487C124.526 78.2204 122.223 79.7424 119.728 80.6042C117.339 81.4308 117.874 83.0385 117.828 84.6361C117.783 86.2338 118.171 87.3829 120.111 87.9373C122.44 88.6025 124.214 90.175 124.345 92.9419C124.491 96.1977 123.785 97.4022 120.847 98.8587C119.804 99.3627 118.801 99.9675 117.778 100.527C117.309 102.432 118.186 104.221 118.282 106.071C120.872 106.575 123.518 107.714 124.042 110.274C124.662 113.298 126.351 113.464 128.684 113.464C228.524 113.464 328.366 113.464 428.21 113.464C431.899 113.464 432 113.358 432 109.624V5.34351C431.98 4.33554 431.97 3.32756 431.99 2.32462ZM425.322 5.49471C426.194 5.49471 426.718 5.90798 426.708 6.85044C426.587 7.40483 426.537 8.11545 425.735 7.98946C425.317 7.96365 424.923 7.78693 424.625 7.49215C424.328 7.19737 424.147 6.80457 424.118 6.38677C424.072 5.63583 424.707 5.48463 425.322 5.49471ZM426.88 15.7207C426.718 16.3456 426.678 17.3133 425.917 17.2326C424.909 17.1016 424.511 16.2246 424.607 15.1612C424.677 14.3901 425.111 13.8458 425.836 13.871C427.091 13.8962 426.804 14.9445 426.88 15.7207ZM135.952 6.40693C135.841 5.20744 137.045 5.09656 137.917 5.1268C138.789 5.15704 140.034 5.08648 139.989 6.30109C139.948 7.30907 138.809 7.19819 137.973 7.23347C137.232 7.11252 136.078 7.49555 135.952 6.40693ZM138.976 108.384C138.124 108.384 137.277 108.223 137.212 107.331C137.131 106.202 138.079 106.126 138.925 106.162C139.772 106.197 140.941 106.323 140.971 107.134C141.052 108.283 139.711 108.087 138.986 108.384H138.976ZM145.603 6.27589C145.648 5.22256 146.787 5.34351 147.559 5.30824C148.33 5.27296 149.262 5.38383 149.146 6.35653C149.03 7.32923 147.992 6.9714 147.307 7.09236C146.661 6.93108 145.553 7.33931 145.603 6.27589ZM148.042 108.404C147.196 108.404 146.42 107.961 146.53 107.104C146.641 106.247 147.538 106.066 148.36 106.151C149.181 106.237 150.094 106.388 150.008 107.265C149.922 108.142 148.919 108.414 148.042 108.404ZM154.766 6.27589C154.73 5.26792 155.663 5.2276 156.434 5.26792C157.205 5.30824 158.45 5.22256 158.49 6.2255C158.53 7.35443 157.225 6.9462 156.575 7.23347C155.733 7.20827 154.801 7.29899 154.766 6.27589ZM157.749 108.208C156.978 108.208 156.061 108.208 155.94 107.29C155.799 106.282 156.787 106.257 157.507 106.167C157.874 106.099 158.253 106.163 158.578 106.348C158.902 106.532 159.151 106.825 159.281 107.175C159.039 107.996 158.455 108.203 157.749 108.208ZM164.014 6.33133C164.014 5.23264 165.047 5.22256 165.889 5.25784C166.73 5.29312 167.905 5.25784 167.905 6.2003C167.905 7.45523 166.529 6.95628 165.989 7.23851C165.022 7.21835 164.024 7.29899 164.014 6.33133ZM166.7 108.379C165.853 108.339 164.755 108.157 164.684 107.24C164.624 106.146 165.823 106.323 166.468 106.156C167.355 106.156 168.318 106.076 168.404 107.044C168.489 108.011 167.627 108.424 166.7 108.379ZM173.489 6.14486C173.519 5.26792 174.265 4.9504 175.102 5.026C176.029 5.10664 177.218 5.30823 177.254 6.26077C177.289 7.21331 176.069 7.11252 175.323 7.23851C174.487 7.18307 173.454 7.34939 173.489 6.14486ZM176.125 108.218C175.349 108.137 174.164 108.218 174.144 107.21C174.124 106.202 175.354 106.288 176.13 106.177C176.906 106.066 177.823 106.257 177.853 107.185C177.909 108.198 176.951 108.208 176.125 108.218ZM182.374 6.28093C182.495 5.92241 182.723 5.60988 183.028 5.38613C183.333 5.16238 183.699 5.03836 184.078 5.03104C185.05 4.93024 186.094 5.17216 186.26 6.20534C186.371 6.8706 185.484 7.16292 184.783 7.21331C183.846 7.28387 182.949 7.26875 182.374 6.28093ZM187.071 107.301C187.001 108.258 185.968 108.122 185.186 108.198C184.481 108.011 183.261 108.339 183.347 107.119C183.407 106.252 184.486 106.182 185.202 106.227C185.917 106.272 187.157 106.071 187.071 107.301ZM191.97 6.12974C191.97 5.35863 192.948 5.12176 193.714 5.03608C194.661 4.94032 195.528 5.38887 195.548 6.27085C195.569 7.15284 194.571 7.19819 193.769 7.23851C192.993 7.19315 191.95 7.15788 191.97 6.12974ZM194.49 108.198C193.482 108.198 192.55 108.112 192.64 107.109C192.731 106.106 193.764 106.298 194.465 106.348C195.165 106.398 196.289 106.141 196.269 107.154C196.249 108.167 194.999 107.946 194.485 108.198H194.49ZM200.992 6.19526C201.037 5.33343 202.131 5.08144 203.007 5.0512C203.884 5.02096 204.822 5.39391 204.741 6.38677C204.661 7.37963 203.663 7.21331 202.841 7.24355C202.146 7.047 200.926 7.28387 200.992 6.19526ZM202.342 107.875C201.964 107.689 201.763 107.094 202.146 106.817C203.38 105.925 204.61 106.197 206.006 107.129C204.731 108.319 203.577 108.495 202.342 107.875ZM213.576 5.8223C213.653 5.85954 213.72 5.91588 213.769 5.98599C213.819 6.05609 213.849 6.13765 213.858 6.22294C213.868 6.30822 213.855 6.39441 213.821 6.47335C213.788 6.55229 213.735 6.62137 213.667 6.67405C212.659 7.38971 211.651 7.20827 210.713 6.30109C211.565 5.2528 212.538 5.24272 213.576 5.8223ZM212.936 108.193C212.321 108.167 211.328 108.435 211.374 107.467C211.424 106.338 212.548 106.963 213.153 106.711C213.682 106.761 214.544 106.288 214.493 107.24C214.458 107.996 213.642 108.218 212.936 108.193ZM221.549 7.24355C220.829 7.02684 219.427 7.59635 219.533 6.2003C219.599 5.07136 220.95 5.26288 221.801 5.08144C222.653 4.9 223.429 5.19736 223.469 6.12974C223.505 7.39979 222.431 7.17804 221.549 7.24355ZM230.994 7.24355C230.072 7.1478 228.907 7.41491 228.872 6.31117C228.832 4.98064 230.092 5.30319 230.939 5.25784C231.785 5.21248 232.864 5.10664 232.904 6.19022C232.96 7.60643 231.634 7.047 230.994 7.25363V7.24355ZM238.352 6.27085C238.322 5.29312 239.27 5.21248 240.005 5.29312C240.741 5.37375 242.021 5.29312 242.021 6.23558C242.052 7.35947 240.807 6.90588 240.111 7.0974C239.426 6.97644 238.388 7.35443 238.352 6.28093V6.27085ZM241.074 108.198C240.298 108.198 239.3 108.092 239.209 107.296C239.103 106.328 240.146 106.393 240.792 106.288C241.537 106.288 242.364 106.288 242.455 107.119C242.545 107.951 241.8 108.203 241.074 108.208V108.198ZM248.059 5.58039C249.264 4.86976 250.236 5.43423 251.527 6.39181C250.015 7.11756 248.951 7.48043 247.883 6.64885C247.807 6.57462 247.749 6.4831 247.716 6.38208C247.683 6.28105 247.675 6.17352 247.692 6.06861C247.71 5.9637 247.752 5.86453 247.816 5.77953C247.88 5.69453 247.963 5.62621 248.059 5.58039ZM251.28 107.92C250.04 108.424 248.966 108.152 247.868 106.988C249.415 106.282 250.569 105.889 251.627 106.918C251.995 107.245 251.658 107.759 251.28 107.92ZM257.539 5.7971C258.547 5.16208 259.515 5.37879 260.427 6.24061C259.555 7.30907 258.547 7.28387 257.539 6.78492C257.445 6.74128 257.365 6.67159 257.309 6.58407C257.253 6.49655 257.224 6.39487 257.224 6.29101C257.224 6.18716 257.253 6.08547 257.309 5.99796C257.365 5.91044 257.445 5.84075 257.539 5.7971ZM259.298 108.203C258.381 108.117 257.282 108.303 257.247 107.195C257.212 106.086 258.351 106.187 259.147 106.187C259.943 106.187 261.062 106.116 261.087 107.195C261.117 108.394 259.933 108.051 259.298 108.203ZM266.44 6.83028C266.315 6.66061 266.259 6.44987 266.283 6.24061C266.324 5.37375 267.211 5.23264 268.002 5.23264C268.793 5.23264 269.705 5.46447 269.685 6.28597C269.688 6.31952 269.688 6.35323 269.685 6.38677C269.69 6.41509 269.69 6.44413 269.685 6.47245C269.69 6.50252 269.69 6.5331 269.685 6.56317C269.677 6.5913 269.665 6.61835 269.65 6.64381C269.631 6.68751 269.605 6.72823 269.574 6.76476C269.544 6.80645 269.509 6.84376 269.469 6.87564C269.411 6.92271 269.349 6.96328 269.282 6.9966C269.218 7.03035 269.15 7.05737 269.081 7.07724L268.874 7.13268C268.584 7.18833 268.291 7.22202 267.997 7.23347H267.785C267.529 7.22966 267.274 7.19926 267.024 7.14276C266.941 7.12257 266.86 7.09386 266.782 7.05708L266.676 6.9966C266.586 6.95951 266.505 6.90269 266.44 6.83028ZM270.361 107.235C270.275 108.324 269.136 108.082 268.395 108.198C267.604 108.142 266.601 108.152 266.676 107.19C266.767 105.995 267.921 106.373 268.692 106.373C269.343 106.363 270.446 106.187 270.361 107.235ZM275.401 6.36157C275.401 5.29816 276.514 5.05624 277.452 5.07136C278.213 5.07136 279.16 5.38887 279.14 6.19022C279.115 7.23851 278.026 7.1478 277.401 7.24859C276.459 7.18811 275.38 7.13772 275.38 6.36157H275.401ZM277.668 108.167C276.998 108.167 276.207 108.167 276.156 107.311C276.061 106.151 277.089 106.454 277.618 106.267C278.419 106.419 279.463 106.222 279.437 107.205C279.372 108.117 278.394 108.162 277.648 108.188L277.668 108.167ZM286.927 108.198C285.989 108.132 285.259 107.91 285.354 106.933C285.45 105.955 286.236 106.101 286.866 106.162C287.496 106.222 288.565 106.252 288.514 107.2C288.464 108.147 287.537 108.167 286.907 108.218L286.927 108.198ZM297.122 5.93822C297.192 5.98413 297.249 6.04661 297.289 6.12006C297.328 6.19351 297.349 6.27563 297.349 6.35905C297.349 6.44248 297.328 6.5246 297.289 6.59805C297.249 6.6715 297.192 6.73398 297.122 6.77988C296.014 7.40987 294.97 7.08228 293.786 6.52789C294.88 5.43927 295.958 5.25784 297.122 5.93822ZM296.145 108.203L295.908 108.177C295.828 108.169 295.749 108.155 295.671 108.137L295.52 108.102C295.335 108.052 295.163 107.962 295.016 107.84C294.987 107.817 294.961 107.79 294.94 107.759C294.909 107.726 294.884 107.689 294.865 107.648C294.839 107.609 294.819 107.567 294.804 107.522C294.785 107.476 294.773 107.426 294.769 107.376C294.759 107.291 294.759 107.204 294.769 107.119C294.839 106.257 295.676 106.308 296.331 106.328C296.986 106.348 297.606 106.479 297.591 107.205C297.571 108.046 296.85 108.198 296.145 108.203ZM303.155 6.19526C303.155 5.278 304.335 5.14192 305.171 5.07136C306.008 5.0008 307.006 5.30319 307.016 6.30613C307.026 7.30907 306.008 7.19819 305.196 7.24355C304.481 7.047 303.12 7.55099 303.155 6.19526ZM305.509 108.218C304.803 108.172 303.997 108.016 304.078 107.175C304.158 106.333 304.975 106.303 305.65 106.323C306.325 106.343 307.162 106.378 307.066 107.331C306.996 108.147 306.209 108.208 305.509 108.218ZM312.474 6.19526C312.64 5.13184 313.805 5.58039 314.555 5.44935C315.246 5.56023 316.36 5.33847 316.188 6.38677C316.017 7.43507 314.853 7.047 314.092 7.047C313.432 7.0722 312.303 7.28891 312.474 6.19526ZM314.898 108.172C314.137 108.172 313.169 108.046 313.185 107.129C313.185 106.358 314.162 106.429 314.697 106.303C315.463 106.373 316.329 106.227 316.36 107.159C316.39 108.092 315.604 108.198 314.898 108.172ZM321.954 6.8706L321.914 6.81012C321.9 6.7911 321.888 6.77085 321.878 6.74964C321.806 6.6006 321.77 6.43655 321.773 6.27085C321.773 5.17216 322.851 5.23768 323.663 5.26288C324.474 5.28808 325.774 5.11168 325.719 6.35653C325.724 6.40343 325.724 6.45075 325.719 6.49765V6.57325C325.709 6.61474 325.696 6.65524 325.678 6.69421L325.648 6.76476C325.63 6.79652 325.61 6.82685 325.588 6.85548C325.558 6.89583 325.522 6.93151 325.482 6.96132C325.411 7.02045 325.328 7.06497 325.24 7.09236L325.114 7.12764C324.885 7.17232 324.652 7.19092 324.419 7.18308C324.242 7.18308 324.061 7.18308 323.915 7.18308H323.753H323.577H323.274C323.108 7.18308 322.942 7.18308 322.77 7.18308H322.594L322.428 7.15284C322.357 7.13825 322.289 7.11275 322.226 7.07724C322.18 7.05678 322.138 7.0296 322.1 6.9966C322.037 6.97208 321.979 6.93621 321.929 6.89076L321.954 6.8706ZM324.046 108.172C323.35 107.996 322.115 108.172 322.151 107.124C322.186 106.02 323.426 106.388 324.167 106.313C324.817 106.252 325.678 106.257 325.734 107.119C325.779 108.177 324.862 108.172 324.02 108.198L324.046 108.172ZM332.896 5.26792C333.682 5.31327 334.866 5.19736 334.841 6.25069C334.816 7.30403 333.621 7.08732 332.911 7.23347C332.109 7.20323 331.222 7.30403 331.248 6.2255C331.273 5.14696 332.18 5.2276 332.896 5.26792ZM335.153 107.27C335.063 108.465 333.914 108.062 333.173 108.193C332.427 108.107 331.333 108.283 331.343 107.321C331.343 105.93 332.664 106.414 333.475 106.363C334.176 106.333 335.249 106.156 335.153 107.27ZM342.406 108.167C341.645 108.167 340.697 108.132 340.728 107.124C340.758 106.227 341.68 106.403 342.371 106.323C343.076 106.469 344.276 106.167 344.256 107.285C344.261 108.102 343.167 108.152 342.421 108.167H342.406ZM342.053 7.22339C341.297 7.26371 340.309 7.22339 340.37 6.26077C340.435 5.21248 341.473 5.22256 342.386 5.2528C343.111 5.33847 344.341 5.33343 344.276 6.26077C344.225 7.34939 342.945 7.17804 342.068 7.22339H342.053ZM351.387 5.24272C352.224 5.24272 353.312 5.30319 353.282 6.33637C353.282 7.17804 352.193 7.15788 351.478 7.23851C350.707 7.19315 349.779 7.23851 349.85 6.18518C349.915 5.40399 350.686 5.22256 351.402 5.24272H351.387ZM351.891 108.152C351.075 108.243 350.072 108.374 349.956 107.205C349.88 106.474 350.606 106.343 351.206 106.328C352.027 106.328 352.879 106.267 353.413 107.109C353.257 107.92 352.576 108.082 351.931 108.152H351.891ZM358.841 6.18518C358.841 5.31831 359.899 5.04112 360.776 5.03104C361.653 5.02096 362.379 5.44935 362.409 6.23558C362.455 7.24355 361.497 7.19819 360.741 7.24355C359.92 7.20323 358.841 7.173 358.841 6.18518ZM360.413 108.188C359.723 108.122 358.967 107.87 359.249 106.993C359.531 106.116 360.353 106.086 361.139 106.182C361.825 106.262 362.394 106.504 362.576 107.19C362.097 108.268 361.245 108.268 360.408 108.188H360.413ZM370.271 108.188C369.546 108.147 368.805 107.925 368.88 107.099C368.956 106.272 369.808 106.288 370.473 106.303C371.063 106.303 371.773 106.393 371.743 107.164C371.713 107.936 370.987 108.183 370.266 108.203L370.271 108.188ZM370.206 7.22339C369.465 7.173 368.457 7.22339 368.507 6.21542C368.548 5.35863 369.475 5.20744 370.282 5.20744C370.992 5.20744 371.794 5.33343 371.844 6.11462C371.884 7.11252 370.982 7.19315 370.201 7.23851L370.206 7.22339ZM380.906 107.255C380.785 107.986 380.084 107.991 379.494 107.961C378.905 107.931 378.204 107.799 378.33 107.023C378.456 106.247 379.162 106.333 379.777 106.313C380.331 106.403 381.017 106.464 380.901 107.27L380.906 107.255ZM379.434 7.23851C378.683 7.02684 377.342 7.34435 377.292 6.23054C377.252 5.29816 378.476 5.29815 379.308 5.25784C380.14 5.21752 380.981 5.25784 381.087 6.1751C381.193 7.23851 380.25 7.18307 379.434 7.23851ZM389.01 108.183C388.168 108.183 387.095 108.102 387.074 107.069C387.074 106.323 388.082 106.388 388.712 106.308C389.373 106.343 390.224 106.212 390.35 107.069C390.476 107.925 389.761 108.203 389.025 108.183H389.01ZM388.944 7.21331C388.067 7.21331 386.777 7.33931 386.691 6.27085C386.616 5.32335 387.861 5.36871 388.486 5.23768C389.393 5.26288 390.335 5.11672 390.466 6.08942C390.597 7.06212 389.715 7.22339 388.959 7.21331H388.944ZM398.102 5.278C398.853 5.278 399.815 5.278 399.775 6.28597C399.73 7.34939 398.676 6.97644 397.971 7.10244C397.3 6.88572 396.035 7.44011 396.091 6.20534C396.136 5.17216 397.316 5.29815 398.117 5.278H398.102ZM398.308 108.183C397.452 108.112 396.217 108.253 396.156 107.119C396.101 106.136 397.31 106.575 397.789 106.288C398.691 106.398 399.76 106.101 399.805 107.296C399.825 108.112 398.999 108.238 398.324 108.183H398.308ZM407.148 5.26288C407.935 5.30319 409.114 5.05624 409.099 6.23054C409.084 7.40483 407.839 6.90084 407.158 7.10244C406.413 7.01676 405.329 7.33427 405.273 6.33637C405.208 5.2024 406.307 5.2276 407.148 5.26288ZM407.103 108.389C406.226 108.389 405.258 108.213 405.364 107.129C405.47 106.046 406.564 106.252 407.284 106.121C408.121 106.247 409.3 105.975 409.215 107.17C409.129 108.364 408.03 108.394 407.103 108.389ZM416.417 107.991C415.797 107.915 414.905 108.127 414.824 107.265C414.743 106.403 415.59 106.343 416.23 106.363C416.87 106.383 417.954 106.363 417.989 107.23C418.019 108.026 417.042 107.895 416.417 107.991ZM414.97 6.71437C414.898 6.67285 414.838 6.61301 414.796 6.5409C414.755 6.46878 414.733 6.38693 414.733 6.30361C414.733 6.22029 414.755 6.13845 414.796 6.06633C414.838 5.99421 414.898 5.93438 414.97 5.89286C416.145 5.12176 417.273 5.38887 418.533 6.24061C418.081 6.71228 417.483 7.01614 416.835 7.10224C416.187 7.18834 415.53 7.05155 414.97 6.71437ZM425.226 108.349C424.36 108.349 423.714 107.895 423.805 107.033C423.845 106.573 424.044 106.142 424.369 105.814C424.694 105.486 425.124 105.282 425.584 105.239C426.638 105.103 426.784 105.849 426.869 106.802C426.88 107.754 426.33 108.349 425.226 108.349ZM425.861 99.8314C424.853 99.7659 424.526 99.0099 424.581 98.0423C424.632 97.1653 424.733 96.1473 425.751 96.1422C427.071 96.1422 426.718 97.4072 426.91 98.1179C426.88 98.9847 426.96 99.9171 425.872 99.8465L425.861 99.8314ZM424.591 88.8747C424.591 87.9222 425.095 87.0805 425.972 87.1057C426.849 87.1309 426.834 88.1641 426.905 88.8797C426.864 89.6559 426.905 90.6336 425.937 90.6387C424.969 90.6437 424.566 89.8575 424.591 88.8898V88.8747ZM425.746 81.4358C424.964 81.3955 424.581 80.6093 424.556 79.7575C424.526 78.805 424.803 77.9986 425.846 77.9684C426.89 77.9381 426.854 78.8453 426.92 79.6567C426.849 80.453 426.88 81.5064 425.746 81.4509V81.4358ZM425.861 63.1813C424.692 63.1813 424.627 62.0927 424.591 61.1654C424.556 60.238 424.914 59.4316 425.902 59.4417C427.147 59.4417 426.799 60.5555 426.91 61.3418C426.759 62.0675 427.041 63.2166 425.872 63.1964L425.861 63.1813ZM426.759 70.2372C426.759 70.8218 426.728 71.5425 426.003 71.5879C425.277 71.6332 425.126 70.9629 425.105 70.3531C425.085 69.7433 425.191 69.083 425.902 69.0175C426.708 68.9671 426.703 69.6878 426.759 70.2624V70.2372ZM425.922 53.9634C424.738 53.9281 424.571 52.9554 424.607 51.9474C424.642 50.9394 424.924 50.128 425.962 50.2389C427.111 50.3598 426.723 51.5089 426.905 52.1188C426.789 53.0007 426.995 54.0188 425.922 53.9886V53.9634ZM425.872 44.6396C424.813 44.6396 424.536 43.8231 424.586 42.8806C424.637 41.9382 424.924 40.8143 426.008 40.9151C427.016 41.0108 426.789 42.2053 426.91 42.931C426.88 43.7777 426.945 44.6849 425.872 44.6648V44.6396ZM425.942 35.4266C424.934 35.472 424.586 34.7311 424.581 33.7735C424.576 32.816 424.939 32.0449 425.907 32.0549C426.874 32.065 426.864 32.9873 426.915 33.7332C426.965 34.4791 426.935 35.4115 425.942 35.4518V35.4266ZM425.73 26.2691C424.859 26.2036 424.581 25.4678 424.566 24.6413C424.566 23.593 424.964 22.7211 426.033 22.7563C426.995 22.7866 426.869 23.7996 426.92 24.5707C426.809 25.3368 426.97 26.3901 425.73 26.2943V26.2691Z" fill="#DAA628"/>
<path d="M117.783 100.512C116.992 100.25 116.19 100.008 115.414 99.7256C113.071 98.8184 111.019 97.5231 110.505 94.852C109.966 92.0649 111.15 89.8827 113.57 88.5521C115.989 87.2216 114.981 85.1048 114.905 83.2199C114.83 81.335 113.277 81.3703 111.987 81.083C109.835 80.579 107.542 78.3161 107.32 76.3758C107.023 73.7953 107.416 71.3359 110.016 70.1968C112.617 69.0578 111.927 67.1729 111.801 65.3031C111.675 63.4333 110.425 62.6622 108.63 62.3699C107.468 62.1692 106.396 61.6117 105.564 60.7745C104.732 59.9373 104.182 58.8621 103.989 57.6979C103.606 55.062 104.568 52.5471 106.887 51.5593C108.872 50.7126 108.857 49.372 108.756 47.7139C108.641 45.6979 107.748 44.3019 105.773 43.8936C103.253 43.3897 101.418 42.1801 100.874 39.5442C100.249 36.5505 101.413 34.1767 103.974 32.7404C106.171 31.5056 105.314 29.7567 105.234 28.1087C105.153 26.4607 103.958 25.997 102.532 25.6392C99.1302 24.7824 97.6485 22.5497 97.5931 19.1226C97.5527 16.5018 99.105 15.0907 101.03 14.002C102.613 13.115 102.457 11.8299 102.159 10.5396C101.827 9.10831 101.615 7.32923 99.7199 7.11755C97.7039 6.89076 96.2877 5.75174 95.1034 4.35065C93.919 2.94956 92.6943 2.71773 91.1017 3.40819C90.5608 3.64045 89.9852 3.78178 89.3982 3.8265C82.1206 4.38089 75.0597 6.24565 67.8779 7.39475C57.153 9.11335 46.5138 11.3561 35.809 13.236C25.7746 15.005 15.7049 16.5875 5.65534 18.2759C4.26433 18.5127 2.91364 19.0218 1.53271 19.3544C0.151781 19.687 -0.190932 20.5791 0.0913021 21.829C0.963204 25.7551 1.35632 29.7769 2.20302 33.6828C3.77546 40.9655 4.72296 48.3439 6.15429 55.6517C6.78428 58.9125 7.60074 62.1733 7.97873 65.5097C8.48272 69.9045 9.34455 74.259 10.1156 78.6135C10.8868 82.9679 11.7788 87.3022 12.5499 91.6567C13.321 96.0112 13.9661 100.416 14.7423 104.786C16.1333 112.597 17.6352 120.409 18.9506 128.216C19.2177 129.804 19.9082 130.575 21.3597 130.434C24.0207 130.182 26.6868 129.824 29.3227 129.35C36.3785 128.09 43.4344 126.588 50.5356 125.495C55.0715 124.789 59.6477 124.063 64.1433 123.171C71.2747 121.745 78.4818 120.712 85.6132 119.275C89.0252 118.59 92.4977 117.91 95.9753 117.385C101.408 116.559 106.872 115.808 112.219 114.447C113.091 114.225 113.559 113.797 113.559 112.935C113.559 109.568 115.636 107.628 118.277 106.076C118.191 104.206 117.314 102.417 117.783 100.512ZM82.1912 9.95501C83.0832 9.6879 83.5519 10.2776 83.9198 11.0083C83.6628 12.1474 82.6095 12.1121 81.798 12.3691C81.6258 12.4445 81.4378 12.4769 81.2503 12.4635C81.0627 12.45 80.8812 12.3912 80.7215 12.292C80.5618 12.1927 80.4286 12.0562 80.3334 11.894C80.2382 11.7318 80.1839 11.549 80.1752 11.3611C80.1349 10.0709 81.3848 10.202 82.1912 9.95501ZM72.9732 11.5829C73.7493 11.7039 74.8228 11.7593 74.6061 12.7068C74.3592 13.7904 73.0941 13.9164 72.1315 14.0676C71.9654 14.1078 71.7923 14.11 71.6252 14.074C71.4582 14.0379 71.3014 13.9646 71.1666 13.8594C71.0319 13.7542 70.9227 13.6199 70.8471 13.4666C70.7716 13.3133 70.7317 13.1448 70.7304 12.9739C70.796 11.5829 72.1013 11.85 72.9732 11.5829ZM63.6746 12.8429C64.5616 13.0394 65.8518 13.2965 65.6452 14.254C65.4134 15.3376 64.1685 15.9474 62.9438 16.1591C62.7177 16.2143 62.482 16.2165 62.2549 16.1657C62.0279 16.1148 61.8156 16.0122 61.6347 15.8659C61.4537 15.7196 61.309 15.5335 61.2118 15.3221C61.1145 15.1107 61.0674 14.8797 61.074 14.6472C61.0236 12.9588 62.7372 13.4325 63.6746 12.8429ZM53.6754 15.005C54.4415 15.0352 55.4646 14.9143 55.4344 15.8769C55.4041 16.9504 54.2752 17.1217 53.4184 17.2528C52.5616 17.3838 52.0324 16.6631 52.0476 15.9071C52.0425 14.7933 53.1059 15.2368 53.6754 15.005ZM44.3516 16.5724C45.1983 16.6732 46.3172 16.5321 46.2668 17.4392C46.1962 18.7194 44.8859 18.9512 43.8376 19.1226C42.9909 19.2738 42.6179 18.6186 42.5675 17.918C42.4818 16.5018 43.6763 16.7891 44.3516 16.5724ZM33.4705 19.3897C33.6016 18.2154 34.5994 18.3515 35.3907 18.3464C35.935 18.3464 36.6104 18.3464 36.6456 19.1931C36.4515 19.6089 36.1504 19.9656 35.7732 20.2269C35.396 20.4881 34.9561 20.6444 34.4986 20.6799C33.5108 20.8059 33.3949 20.06 33.4705 19.3897ZM25.7595 19.6467C26.7675 19.7576 28.0677 19.6467 28.0022 20.8311C27.9266 22.3027 26.6465 22.7412 25.2605 22.7916C24.1266 22.8269 23.5318 22.4338 23.5419 21.2242C23.557 19.5006 24.8825 19.8483 25.7595 19.6467ZM16.5415 21.2242C17.4134 21.3552 18.623 21.0277 18.5575 22.4338C18.497 24.0919 17.2269 24.3187 15.8964 24.3489C14.8884 24.3741 14.0316 24.2431 14.0619 22.9378C14.1123 21.2192 15.4378 21.3704 16.5415 21.2242ZM5.45879 24.6866C5.45879 23.2855 6.36093 23.1041 7.11187 23.0537C8.4172 23.0537 9.18327 23.2099 9.12783 24.5203C9.10954 25.0998 8.88287 25.6533 8.48942 26.0791C8.09596 26.505 7.56212 26.7747 6.98588 26.8387C6.25005 26.9294 5.46887 25.8206 5.45879 24.6866ZM7.16731 33.1637C7.13523 32.9779 7.14169 32.7875 7.1863 32.6042C7.2309 32.421 7.31269 32.2489 7.42659 32.0986C7.54049 31.9483 7.68406 31.823 7.84841 31.7306C8.01275 31.6381 8.19435 31.5804 8.38193 31.561C9.8183 31.561 9.23367 33.073 9.6671 33.577C9.7679 34.5547 9.5915 35.3309 8.80024 35.3057C7.56042 35.2704 7.32355 34.0911 7.16731 33.1486V33.1637ZM9.18327 42.3414C9.14799 41.6912 9.18327 40.8294 10.035 40.8294C11.1337 40.8949 10.917 41.9986 11.1186 42.6992C11.0379 43.3846 11.0581 44.322 10.2517 44.2565C9.27903 44.1809 9.24375 43.1326 9.20343 42.3262L9.18327 42.3414ZM11.7536 53.5501C10.6045 53.3384 10.4382 51.9575 10.2416 50.9193C10.0804 50.0524 10.8767 49.7349 11.5016 49.7298C12.8019 49.7298 12.6406 50.8789 12.8826 51.64C12.7263 52.4715 12.807 53.7214 11.7738 53.535L11.7536 53.5501ZM13.2051 62.0725C12.3231 61.9062 12.2425 61.0343 12.0661 60.3136C12.1215 59.5375 12.5146 58.9327 13.2807 59.0083C14.2887 59.1091 14.2282 60.0163 14.2433 60.7672C14.2584 61.5181 14.1879 62.2338 13.2253 62.0574L13.2051 62.0725ZM13.7091 69.3753C13.6133 68.5992 14.1072 67.7021 14.9489 67.818C15.9569 67.9541 15.8561 69.0578 15.9972 69.8037C15.9518 70.5194 15.9972 71.4064 15.1253 71.4064C13.9006 71.3812 13.8049 70.212 13.7041 69.3602L13.7091 69.3753ZM15.2211 78.3816C15.0195 77.5652 15.3521 76.7739 16.2895 76.7739C17.6402 76.7739 17.3277 77.9986 17.5949 78.6891C17.4386 79.571 17.7511 80.8008 16.5869 80.7353C15.4227 80.6697 15.463 79.2686 15.2362 78.3665L15.2211 78.3816ZM16.5113 87.3426C16.4623 87.1355 16.4646 86.9196 16.5181 86.7137C16.5716 86.5077 16.6747 86.318 16.8183 86.161C16.9619 86.004 17.1417 85.8844 17.342 85.8128C17.5424 85.7412 17.7572 85.7196 17.9678 85.75C19.2681 85.8508 19.1219 87.141 19.3588 88.0179C19.3185 88.8445 19.1371 89.8423 18.2904 89.7567C17.0757 89.6155 16.728 88.3959 16.5264 87.3274L16.5113 87.3426ZM18.2954 96.5202C18.2097 95.5878 18.7591 94.6605 19.6461 94.7663C20.7347 94.8923 20.5986 96.1624 20.8405 96.7823C20.9262 97.8709 20.644 98.6672 19.7217 98.6067C18.5877 98.511 18.3912 97.4223 18.3105 96.5051L18.2954 96.5202ZM20.1602 105.703C20.0896 104.967 20.2458 103.954 21.1681 103.964C22.2568 103.964 22.0552 105.133 22.2416 105.773C22.2416 106.565 22.2769 107.457 21.4806 107.507C20.392 107.573 20.2559 106.499 20.1602 105.703ZM21.531 114.613C21.3143 113.681 21.7578 112.769 22.7305 112.779C24.1769 112.779 23.7385 114.225 24.1114 115.057C24.051 115.934 23.9854 117.033 22.9422 116.967C21.7024 116.886 21.7628 115.531 21.5512 114.613H21.531ZM24.9632 125.197C23.5822 125.323 23.305 124.29 23.1186 123.302C22.9321 122.314 23.7788 122.118 24.4894 121.846C25.4571 122.108 26.4651 122.284 26.5054 123.64C26.5306 124.698 25.9308 125.096 24.9833 125.182L24.9632 125.197ZM33.3697 123.685C32.4978 123.685 31.5604 123.726 31.6259 122.677C31.7116 121.241 32.7397 120.737 34.0703 120.772C34.8968 120.772 35.8796 120.717 35.8191 121.977C35.7536 123.625 34.3827 123.469 33.3899 123.695L33.3697 123.685ZM45.0774 120.445C44.9464 122.128 43.5654 121.921 42.4667 122.072C41.62 122.188 40.9548 121.856 41.0001 120.858C41.0253 119.401 41.9728 119.089 43.4193 119.159C44.0392 119.275 45.1883 118.993 45.0774 120.445ZM51.9972 120.737C51.0194 120.772 50.4549 120.455 50.4852 119.638C50.5205 118.56 50.9035 117.673 52.224 117.698C52.9699 117.698 53.8065 117.642 53.9022 118.706C54.0484 120.238 52.5515 120.122 51.9972 120.752V120.737ZM63.1756 117.925C63.1282 118.02 63.0671 118.109 62.9942 118.187L62.8833 118.293C62.8464 118.327 62.8059 118.358 62.7624 118.383L62.6515 118.449L62.5255 118.514C62.4638 118.545 62.3998 118.57 62.334 118.59L62.1223 118.645C62.0547 118.666 61.9856 118.681 61.9157 118.691C61.7673 118.719 61.6176 118.739 61.4671 118.751C60.6355 118.781 59.9552 118.58 59.9048 117.587C59.8443 116.408 60.5398 115.954 61.6082 115.939C62.4801 115.939 63.3571 116.009 63.3369 117.189C63.3405 117.443 63.2853 117.695 63.1756 117.925ZM70.6901 117.007C69.8686 117.007 69.1782 116.891 69.1479 115.853C69.1479 114.593 70.0551 114.427 71.0984 114.341C71.8039 114.341 72.6355 114.377 72.57 115.445C72.5045 116.513 71.7435 117.002 70.6901 117.022V117.007ZM82.3675 113.893C82.1962 115.057 81.4705 115.873 79.8476 115.707C79.1672 115.455 77.5998 115.883 77.746 114.23C77.9022 112.497 79.5452 112.779 80.7044 112.603C81.5813 112.451 82.5339 112.749 82.3675 113.893ZM91.5855 112.325C91.5855 112.401 91.5855 112.471 91.5553 112.537C91.5576 112.552 91.5576 112.567 91.5553 112.582C91.5513 112.631 91.5394 112.679 91.52 112.723C91.4972 112.82 91.4652 112.915 91.4242 113.006C91.4145 113.03 91.4027 113.054 91.389 113.076C91.3595 113.136 91.3258 113.193 91.2882 113.248C91.2535 113.302 91.2129 113.353 91.1672 113.399C91.0794 113.496 90.9775 113.579 90.8648 113.646C90.7531 113.716 90.6329 113.772 90.507 113.812C90.4435 113.838 90.3777 113.858 90.3104 113.873C90.1755 113.912 90.0371 113.939 89.8971 113.953C89.8233 113.958 89.7492 113.958 89.6754 113.953C89.5999 113.958 89.5241 113.958 89.4486 113.953C89.3024 113.953 89.1512 113.953 89 113.978H88.8287H88.6573C88.5263 113.978 88.3953 113.978 88.2693 113.938C88.1793 113.929 88.0901 113.914 88.0022 113.893C87.9191 113.876 87.8381 113.851 87.7602 113.817C87.7283 113.808 87.6977 113.794 87.6695 113.777C87.639 113.766 87.6102 113.75 87.5838 113.731C87.5598 113.72 87.5377 113.705 87.5183 113.686C87.4931 113.674 87.4707 113.657 87.4528 113.636C87.3919 113.587 87.3392 113.529 87.2966 113.464C87.2812 113.442 87.2678 113.418 87.2562 113.394C87.2364 113.358 87.2196 113.321 87.2058 113.283C87.1894 113.242 87.1759 113.2 87.1655 113.157C87.1497 113.106 87.1395 113.054 87.1353 113.001C87.1326 112.964 87.1326 112.927 87.1353 112.89C87.1252 112.791 87.1252 112.691 87.1353 112.592C87.2764 110.707 88.9144 111.196 90.003 110.954C90.9152 110.743 91.6964 111.222 91.5855 112.305V112.325ZM98.3692 112.436C97.2655 112.436 96.2373 112.204 96.3532 110.833C96.5246 109.12 98.1676 109.826 98.8127 109.362C100.007 109.316 100.94 109.392 100.829 110.566C100.743 111.988 99.6897 112.426 98.3692 112.416V112.436Z" fill="#2A2A2A"/>
<path d="M426.88 106.837C426.88 107.774 426.34 108.349 425.236 108.384C424.37 108.384 423.725 107.931 423.815 107.069C423.855 106.609 424.054 106.177 424.379 105.849C424.705 105.521 425.135 105.318 425.594 105.275C426.638 105.118 426.784 105.864 426.88 106.837Z" fill="#E2E4DD"/>
<path d="M426.905 52.144C426.789 53.0007 426.995 54.0188 425.922 53.9886C424.738 53.9533 424.571 52.9806 424.607 51.9726C424.642 50.9646 424.924 50.1532 425.962 50.2641C427.111 50.3901 426.723 51.5341 426.905 52.144Z" fill="#E2E4DD"/>
<path d="M426.905 61.3317C426.759 62.0675 427.041 63.2166 425.861 63.1964C424.682 63.1763 424.627 62.1078 424.591 61.1805C424.556 60.2531 424.914 59.4468 425.902 59.4568C427.147 59.4619 426.799 60.5454 426.905 61.3317Z" fill="#E2E4DD"/>
<path d="M409.24 107.195C409.174 108.349 408.055 108.394 407.128 108.389C406.201 108.384 405.284 108.213 405.389 107.129C405.495 106.046 406.589 106.252 407.31 106.121C408.121 106.272 409.285 106 409.24 107.195Z" fill="#E2E4DD"/>
<path d="M426.92 24.5959C426.809 25.3368 426.97 26.3901 425.73 26.2943C424.858 26.2288 424.581 25.493 424.566 24.6665C424.566 23.6182 424.964 22.7463 426.033 22.7815C426.995 22.8118 426.879 23.8248 426.92 24.5959Z" fill="#E2E4DD"/>
<path d="M426.91 98.133C426.864 98.9847 426.96 99.9171 425.861 99.8465C424.853 99.781 424.526 99.025 424.581 98.0574C424.632 97.1804 424.732 96.1624 425.751 96.1573C427.071 96.1472 426.718 97.4223 426.91 98.133Z" fill="#E2E4DD"/>
<path d="M139.989 6.3011C139.948 7.30908 138.809 7.1982 137.973 7.23348C137.242 7.11252 136.063 7.49556 135.957 6.40694C135.846 5.20744 137.05 5.09657 137.922 5.12681C138.794 5.15705 140.034 5.08649 139.989 6.3011Z" fill="#E2E4DD"/>
<path d="M426.91 42.9562C426.874 43.7777 426.945 44.6849 425.872 44.6648C424.798 44.6446 424.536 43.8483 424.586 42.9058C424.637 41.9634 424.924 40.8395 426.008 40.9403C426.99 41.036 426.789 42.2305 426.91 42.9562Z" fill="#E2E4DD"/>
<path d="M177.254 6.26078C177.294 7.18812 176.069 7.11253 175.323 7.23852C174.487 7.18309 173.454 7.3494 173.489 6.14487C173.519 5.26793 174.265 4.95041 175.102 5.02601C176.029 5.10665 177.218 5.30825 177.254 6.26078Z" fill="#E2E4DD"/>
<path d="M186.26 6.2255C186.371 6.89076 185.484 7.18308 184.783 7.23347C183.846 7.28891 182.928 7.27379 182.374 6.28597C182.494 5.92651 182.722 5.61288 183.027 5.38818C183.332 5.16348 183.699 5.03872 184.078 5.03104C185.05 4.9504 186.083 5.19232 186.26 6.2255Z" fill="#E2E4DD"/>
<path d="M426.92 79.6718C426.849 80.453 426.89 81.5064 425.746 81.4509C424.964 81.4106 424.581 80.6244 424.556 79.7726C424.526 78.8201 424.803 78.0137 425.846 77.9835C426.89 77.9532 426.879 78.8604 426.92 79.6718Z" fill="#E2E4DD"/>
<path d="M223.444 6.12973C223.505 7.39978 222.436 7.17803 221.549 7.24354C220.828 7.02683 219.427 7.59634 219.533 6.20029C219.599 5.07135 220.949 5.26287 221.801 5.08143C222.653 4.89999 223.404 5.19735 223.444 6.12973Z" fill="#E2E4DD"/>
<path d="M307.011 6.30614C307.011 7.31411 306.003 7.1982 305.191 7.24356C304.481 7.0218 303.12 7.56107 303.175 6.19526C303.175 5.278 304.355 5.14192 305.191 5.07136C306.028 5.0008 307.001 5.3032 307.011 6.30614Z" fill="#E2E4DD"/>
<path d="M168.424 107.044C168.514 108.082 167.627 108.424 166.7 108.379C165.853 108.339 164.755 108.157 164.684 107.24C164.624 106.146 165.823 106.323 166.468 106.156C167.375 106.151 168.333 106.076 168.424 107.044Z" fill="#E2E4DD"/>
<path d="M426.905 88.8949C426.864 89.671 426.905 90.6487 425.937 90.6538C424.969 90.6588 424.566 89.8575 424.591 88.8898C424.617 87.9222 425.095 87.0956 425.972 87.1208C426.849 87.146 426.834 88.1893 426.905 88.8949Z" fill="#E2E4DD"/>
<path d="M426.88 33.7584C426.88 34.4993 426.915 35.4115 425.922 35.4518C424.929 35.4921 424.566 34.7563 424.561 33.7987C424.556 32.8412 424.919 32.0701 425.887 32.0801C426.854 32.0902 426.88 33.0125 426.88 33.7584Z" fill="#E2E4DD"/>
<path d="M204.721 6.38678C204.645 7.33932 203.642 7.21333 202.821 7.24357C202.146 7.06213 200.926 7.28388 200.992 6.19527C201.037 5.33345 202.131 5.08145 203.007 5.05121C203.884 5.02097 204.802 5.39392 204.721 6.38678Z" fill="#E2E4DD"/>
<path d="M362.404 6.23558C362.449 7.24356 361.492 7.1982 360.736 7.24356C359.919 7.1982 358.816 7.16796 358.836 6.18014C358.836 5.31328 359.894 5.03608 360.771 5.02601C361.648 5.01593 362.369 5.44936 362.404 6.23558Z" fill="#E2E4DD"/>
<path d="M140.982 107.134C141.052 108.283 139.711 108.087 138.966 108.384C138.114 108.384 137.267 108.223 137.202 107.331C137.121 106.202 138.068 106.126 138.915 106.162C139.762 106.197 140.936 106.333 140.982 107.134Z" fill="#E2E4DD"/>
<path d="M232.904 6.20028C232.96 7.60641 231.634 7.05202 230.994 7.25362C230.072 7.15786 228.907 7.42498 228.872 6.32124C228.832 4.99071 230.092 5.31326 230.939 5.2679C231.785 5.22254 232.844 5.11671 232.904 6.20028Z" fill="#E2E4DD"/>
<path d="M195.548 6.27086C195.548 7.13772 194.571 7.1982 193.769 7.23852C192.993 7.19316 191.95 7.15788 191.97 6.12974C191.97 5.35864 192.948 5.12176 193.714 5.03608C194.661 4.94033 195.548 5.38888 195.548 6.27086Z" fill="#E2E4DD"/>
<path d="M150.023 107.265C149.932 108.203 148.919 108.414 148.042 108.404C147.165 108.394 146.42 107.961 146.53 107.104C146.641 106.247 147.538 106.066 148.36 106.151C149.181 106.237 150.109 106.388 150.023 107.265Z" fill="#E2E4DD"/>
<path d="M325.694 6.37164C325.699 6.41854 325.699 6.46587 325.694 6.51276V6.58836C325.684 6.62985 325.67 6.67035 325.653 6.70932L325.623 6.77988C325.605 6.81163 325.585 6.84196 325.563 6.87059C325.533 6.91094 325.497 6.94662 325.457 6.97643C325.385 7.03556 325.303 7.08009 325.215 7.10747L325.089 7.14275C324.86 7.18743 324.626 7.20603 324.393 7.19819C324.217 7.19819 324.035 7.19819 323.889 7.19819H323.723C323.666 7.19307 323.609 7.19307 323.552 7.19819H323.249C323.083 7.19819 322.917 7.19819 322.745 7.19819H322.569L322.403 7.16795C322.333 7.14803 322.266 7.12276 322.201 7.09235C322.155 7.07189 322.113 7.04471 322.075 7.01171C322.034 6.98042 321.997 6.94494 321.964 6.90587L321.924 6.84539C321.91 6.82637 321.898 6.80612 321.888 6.78492C321.816 6.63587 321.78 6.47183 321.783 6.30613C321.783 5.20743 322.861 5.27295 323.673 5.29815C324.484 5.32335 325.749 5.12679 325.694 6.37164Z" fill="#E2E4DD"/>
<path d="M279.12 6.19023C279.095 7.23852 278.006 7.14781 277.381 7.2486C276.459 7.18813 275.365 7.13773 275.365 6.36158C275.365 5.29817 276.479 5.05625 277.416 5.07137C278.203 5.08649 279.14 5.38888 279.12 6.19023Z" fill="#E2E4DD"/>
<path d="M426.879 15.7206C426.718 16.3456 426.678 17.3132 425.917 17.2326C424.909 17.1016 424.511 16.2246 424.607 15.1612C424.677 14.3901 425.11 13.8458 425.836 13.871C427.091 13.8962 426.804 14.9445 426.879 15.7206Z" fill="#E2E4DD"/>
<path d="M344.316 6.26078C344.235 7.34939 342.945 7.17804 342.068 7.2234C341.312 7.26372 340.324 7.2234 340.385 6.26078C340.45 5.21248 341.489 5.22256 342.401 5.2528C343.152 5.3284 344.382 5.32336 344.316 6.26078Z" fill="#E2E4DD"/>
<path d="M167.92 6.20031C167.92 7.45524 166.544 6.95629 166.005 7.23853C165.022 7.23853 164.024 7.299 164.014 6.33135C164.014 5.23265 165.047 5.22257 165.889 5.25785C166.73 5.29313 167.91 5.24777 167.92 6.20031Z" fill="#E2E4DD"/>
<path d="M381.072 6.17005C381.193 7.23851 380.25 7.17803 379.434 7.23851C378.683 7.02683 377.342 7.34434 377.292 6.23053C377.252 5.29815 378.476 5.29815 379.308 5.25783C380.139 5.21751 380.966 5.23767 381.072 6.17005Z" fill="#E2E4DD"/>
<path d="M261.067 107.195C261.097 108.394 259.913 108.052 259.278 108.203C258.361 108.117 257.262 108.303 257.227 107.195C257.191 106.086 258.33 106.187 259.127 106.187C259.923 106.187 261.067 106.106 261.067 107.195Z" fill="#E2E4DD"/>
<path d="M388.959 7.21332C388.082 7.21332 386.792 7.33932 386.707 6.27086C386.631 5.32336 387.876 5.36872 388.501 5.23769C389.408 5.26289 390.35 5.11673 390.481 6.08943C390.612 7.06213 389.715 7.2234 388.959 7.21332Z" fill="#E2E4DD"/>
<path d="M334.841 6.25069C334.841 7.25867 333.621 7.08731 332.911 7.23347C332.109 7.20323 331.222 7.30403 331.248 6.22549C331.273 5.14695 332.18 5.24271 332.896 5.28303C333.611 5.32335 334.866 5.19735 334.841 6.25069Z" fill="#E2E4DD"/>
<path d="M177.853 107.19C177.889 108.198 176.951 108.198 176.125 108.198C175.348 108.117 174.164 108.198 174.144 107.19C174.124 106.182 175.354 106.267 176.13 106.156C176.906 106.046 177.823 106.257 177.853 107.19Z" fill="#E2E4DD"/>
<path d="M187.071 107.301C187.001 108.258 185.968 108.122 185.186 108.198C184.481 108.011 183.261 108.339 183.347 107.119C183.407 106.252 184.486 106.182 185.202 106.227C185.917 106.272 187.157 106.071 187.071 107.301Z" fill="#E2E4DD"/>
<path d="M158.49 6.22047C158.53 7.3494 157.225 6.94117 156.575 7.22845C155.753 7.22845 154.801 7.30908 154.766 6.28599C154.73 5.26289 155.663 5.23769 156.434 5.27801C157.205 5.31833 158.45 5.21753 158.49 6.22047Z" fill="#E2E4DD"/>
<path d="M269.685 6.28598C269.688 6.31952 269.688 6.35324 269.685 6.38678C269.69 6.4151 269.69 6.44413 269.685 6.47246C269.69 6.50253 269.69 6.5331 269.685 6.56317C269.677 6.59131 269.665 6.61836 269.65 6.64381C269.631 6.68751 269.605 6.72824 269.574 6.76477C269.543 6.80534 269.508 6.8425 269.469 6.87565C269.411 6.92272 269.348 6.96328 269.282 6.99661C269.218 7.03036 269.15 7.05738 269.08 7.07724L268.874 7.13268C268.584 7.18174 268.291 7.21371 267.997 7.22844H267.785C267.529 7.22463 267.274 7.19423 267.024 7.13772C266.941 7.11754 266.86 7.08883 266.782 7.05204L266.676 6.99157C266.61 6.94859 266.552 6.89395 266.505 6.83029C266.38 6.66062 266.324 6.44987 266.349 6.24062C266.389 5.37376 267.276 5.23264 268.067 5.23264C268.859 5.23264 269.705 5.46448 269.685 6.28598Z" fill="#E2E4DD"/>
<path d="M353.297 6.33638C353.297 7.17804 352.208 7.15788 351.493 7.23852C350.722 7.19316 349.794 7.23852 349.865 6.18518C349.915 5.40399 350.686 5.22256 351.377 5.24272C352.239 5.26288 353.327 5.3032 353.297 6.33638Z" fill="#E2E4DD"/>
<path d="M371.839 6.13981C371.884 7.11251 370.982 7.19315 370.201 7.23851C369.46 7.18811 368.452 7.23851 368.502 6.23053C368.543 5.37375 369.47 5.22255 370.276 5.22255C370.987 5.23263 371.803 5.35863 371.839 6.13981Z" fill="#E2E4DD"/>
<path d="M362.57 107.164C362.097 108.268 361.245 108.268 360.408 108.172C359.718 108.107 358.962 107.855 359.244 106.978C359.526 106.101 360.348 106.071 361.134 106.167C361.82 106.262 362.369 106.504 362.57 107.164Z" fill="#E2E4DD"/>
<path d="M159.261 107.159C159.034 107.996 158.45 108.203 157.749 108.208C157.049 108.213 156.061 108.208 155.94 107.29C155.799 106.282 156.787 106.257 157.507 106.167C157.869 106.103 158.242 106.168 158.562 106.349C158.882 106.53 159.129 106.816 159.261 107.159Z" fill="#E2E4DD"/>
<path d="M335.153 107.27C335.063 108.465 333.914 108.062 333.173 108.193C332.427 108.107 331.333 108.283 331.343 107.321C331.343 105.93 332.664 106.414 333.475 106.363C334.176 106.333 335.249 106.156 335.153 107.27Z" fill="#E2E4DD"/>
<path d="M288.509 107.22C288.464 108.102 287.537 108.167 286.907 108.228C285.969 108.162 285.238 107.941 285.334 106.963C285.43 105.985 286.216 106.131 286.846 106.192C287.476 106.252 288.56 106.272 288.509 107.22Z" fill="#E2E4DD"/>
<path d="M409.099 6.23054C409.099 7.48044 407.839 6.90085 407.158 7.10244C406.412 7.01677 405.329 7.33428 405.273 6.33638C405.208 5.2024 406.281 5.2276 407.148 5.26288C408.015 5.29816 409.114 5.05625 409.099 6.23054Z" fill="#E2E4DD"/>
<path d="M270.361 107.235C270.275 108.324 269.136 108.082 268.395 108.198C267.604 108.142 266.601 108.152 266.676 107.19C266.767 105.995 267.921 106.373 268.692 106.373C269.343 106.363 270.446 106.187 270.361 107.235Z" fill="#E2E4DD"/>
<path d="M399.79 6.28092C399.745 7.34434 398.691 6.97139 397.986 7.09738C397.316 6.88067 396.051 7.43506 396.106 6.20028C396.151 5.1923 397.316 5.29814 398.122 5.27798C398.928 5.25782 399.83 5.30318 399.79 6.28092Z" fill="#E2E4DD"/>
<path d="M196.264 107.154C196.239 108.238 194.999 107.946 194.485 108.198C193.477 108.198 192.545 108.112 192.635 107.109C192.726 106.106 193.759 106.298 194.46 106.348C195.16 106.398 196.284 106.141 196.264 107.154Z" fill="#E2E4DD"/>
<path d="M206.006 107.129C204.731 108.319 203.577 108.495 202.342 107.875C201.964 107.689 201.763 107.094 202.146 106.817C203.38 105.925 204.62 106.197 206.006 107.129Z" fill="#E2E4DD"/>
<path d="M325.724 107.144C325.779 108.152 324.862 108.152 324.02 108.198C323.325 108.021 322.09 108.198 322.125 107.149C322.161 106.046 323.4 106.414 324.141 106.338C324.807 106.277 325.678 106.282 325.724 107.144Z" fill="#E2E4DD"/>
<path d="M344.271 107.285C344.271 108.102 343.167 108.152 342.421 108.167C341.675 108.183 340.712 108.132 340.743 107.124C340.773 106.227 341.695 106.403 342.386 106.323C343.091 106.469 344.291 106.167 344.271 107.285Z" fill="#E2E4DD"/>
<path d="M399.805 107.296C399.805 108.112 398.999 108.238 398.323 108.183C397.467 108.112 396.232 108.253 396.171 107.119C396.116 106.136 397.326 106.575 397.804 106.288C398.706 106.398 399.775 106.101 399.805 107.296Z" fill="#E2E4DD"/>
<path d="M242.021 6.24565C242.051 7.36955 240.807 6.91596 240.111 7.10748C239.426 6.97644 238.387 7.35443 238.352 6.28093C238.322 5.30319 239.269 5.22256 240.005 5.30319C240.741 5.38383 242.001 5.29815 242.021 6.24565Z" fill="#E2E4DD"/>
<path d="M242.455 107.139C242.55 108.001 241.8 108.203 241.074 108.208C240.348 108.213 239.3 108.102 239.209 107.306C239.103 106.338 240.146 106.403 240.792 106.298C241.537 106.333 242.364 106.303 242.455 107.139Z" fill="#E2E4DD"/>
<path d="M279.397 107.225C279.397 108.117 278.389 108.162 277.648 108.188C276.978 108.188 276.187 108.188 276.136 107.331C276.041 106.172 277.069 106.474 277.598 106.288C278.379 106.439 279.422 106.242 279.397 107.225Z" fill="#E2E4DD"/>
<path d="M353.453 107.109C353.257 107.92 352.576 108.082 351.941 108.152C351.125 108.243 350.122 108.374 350.006 107.205C349.93 106.474 350.656 106.343 351.256 106.328C352.067 106.333 352.919 106.267 353.453 107.109Z" fill="#E2E4DD"/>
<path d="M251.28 107.92C250.04 108.424 248.966 108.152 247.868 106.988C249.415 106.282 250.569 105.889 251.627 106.918C251.995 107.245 251.658 107.759 251.28 107.92Z" fill="#E2E4DD"/>
<path d="M389.025 108.183C388.183 108.183 387.11 108.102 387.09 107.069C387.09 106.323 388.098 106.388 388.728 106.308C389.388 106.343 390.239 106.212 390.365 107.069C390.491 107.925 389.761 108.203 389.025 108.183Z" fill="#E2E4DD"/>
<path d="M149.146 6.35653C149.03 7.33931 147.992 6.9714 147.307 7.09236C146.672 6.93108 145.553 7.33931 145.603 6.27589C145.654 5.21248 146.787 5.34351 147.559 5.30823C148.33 5.27295 149.262 5.38383 149.146 6.35653Z" fill="#E2E4DD"/>
<path d="M307.066 107.306C306.996 108.147 306.209 108.208 305.509 108.218C304.808 108.228 303.997 108.016 304.077 107.175C304.158 106.333 304.975 106.303 305.65 106.323C306.325 106.343 307.147 106.378 307.066 107.306Z" fill="#E2E4DD"/>
<path d="M316.345 107.159C316.375 108.021 315.604 108.198 314.898 108.167C314.193 108.137 313.169 108.041 313.185 107.124C313.185 106.353 314.162 106.424 314.697 106.298C315.447 106.373 316.314 106.227 316.345 107.159Z" fill="#E2E4DD"/>
<path d="M316.188 6.38678C316.002 7.4502 314.853 7.04701 314.092 7.04701C313.432 7.04701 312.303 7.26876 312.474 6.17511C312.645 5.08145 313.804 5.56024 314.555 5.4292C315.246 5.56024 316.36 5.33848 316.188 6.38678Z" fill="#E2E4DD"/>
<path d="M251.527 6.39181C250.015 7.11755 248.951 7.48042 247.883 6.64884C247.807 6.57461 247.749 6.48309 247.716 6.38207C247.683 6.28105 247.675 6.17351 247.692 6.0686C247.71 5.9637 247.752 5.86453 247.816 5.77953C247.88 5.69452 247.963 5.62621 248.059 5.58038C249.264 4.86976 250.236 5.43423 251.527 6.39181Z" fill="#E2E4DD"/>
<path d="M214.493 107.24C214.458 107.996 213.642 108.218 212.936 108.193C212.321 108.167 211.328 108.435 211.374 107.467C211.424 106.338 212.548 106.963 213.153 106.711C213.692 106.761 214.544 106.288 214.493 107.24Z" fill="#E2E4DD"/>
<path d="M371.738 107.18C371.703 108.021 370.987 108.188 370.266 108.188C369.546 108.188 368.8 107.926 368.875 107.099C368.951 106.272 369.803 106.288 370.468 106.303C371.058 106.333 371.768 106.408 371.738 107.18Z" fill="#E2E4DD"/>
<path d="M297.581 107.205C297.581 108.046 296.86 108.213 296.145 108.213L295.908 108.188L295.671 108.147L295.52 108.112C295.335 108.062 295.163 107.972 295.016 107.85C294.987 107.827 294.961 107.8 294.94 107.769C294.91 107.736 294.885 107.698 294.865 107.658C294.839 107.619 294.819 107.577 294.804 107.532C294.787 107.485 294.775 107.436 294.769 107.386C294.759 107.301 294.759 107.215 294.769 107.129C294.839 106.267 295.676 106.318 296.331 106.338C296.986 106.358 297.596 106.479 297.581 107.205Z" fill="#E2E4DD"/>
<path d="M426.708 6.85045C426.587 7.40484 426.537 8.11547 425.735 7.98947C425.317 7.96366 424.923 7.78694 424.625 7.49216C424.328 7.19738 424.147 6.80458 424.118 6.38678C424.072 5.63584 424.707 5.48464 425.322 5.49472C426.194 5.5048 426.718 5.90799 426.708 6.85045Z" fill="#E2E4DD"/>
<path d="M297.097 6.77987C295.988 7.40986 294.945 7.08227 293.761 6.52788C294.88 5.43926 295.958 5.25782 297.122 5.93821C297.191 5.98617 297.246 6.05035 297.283 6.12499C297.321 6.19963 297.339 6.28239 297.337 6.36583C297.334 6.44928 297.311 6.5308 297.269 6.60307C297.227 6.67534 297.168 6.73609 297.097 6.77987Z" fill="#E2E4DD"/>
<path d="M417.989 107.23C418.019 108.026 417.042 107.895 416.417 107.991C415.797 107.915 414.905 108.127 414.824 107.265C414.743 106.403 415.59 106.343 416.23 106.363C416.87 106.383 417.954 106.333 417.989 107.23Z" fill="#E2E4DD"/>
<path d="M418.513 6.24061C418.064 6.70387 417.471 7.00246 416.831 7.08838C416.191 7.17431 415.541 7.04257 414.985 6.71436C414.913 6.67285 414.853 6.61301 414.811 6.54089C414.77 6.46878 414.748 6.38693 414.748 6.30361C414.748 6.22029 414.77 6.13844 414.811 6.06633C414.853 5.99421 414.913 5.93438 414.985 5.89286C416.124 5.12176 417.253 5.36871 418.513 6.24061Z" fill="#E2E4DD"/>
<path d="M260.427 6.24062C259.555 7.30908 258.547 7.28388 257.539 6.78493C257.439 6.74408 257.353 6.67432 257.293 6.58456C257.233 6.49479 257.2 6.38909 257.2 6.28094C257.2 6.17278 257.233 6.06708 257.293 5.97732C257.353 5.88756 257.439 5.8178 257.539 5.77695C258.572 5.16208 259.515 5.3788 260.427 6.24062Z" fill="#E2E4DD"/>
<path d="M213.692 6.67406C212.684 7.38972 211.676 7.20829 210.739 6.30111C211.59 5.25281 212.563 5.24273 213.601 5.82232C213.679 5.85955 213.745 5.91589 213.794 5.986C213.844 6.05611 213.875 6.13766 213.884 6.22295C213.893 6.30823 213.88 6.39442 213.846 6.47336C213.813 6.5523 213.76 6.62138 213.692 6.67406Z" fill="#E2E4DD"/>
<path d="M380.901 107.27C380.78 108.001 380.079 108.006 379.489 107.976C378.9 107.946 378.199 107.815 378.325 107.038C378.451 106.262 379.157 106.348 379.772 106.328C380.331 106.403 381.016 106.464 380.901 107.27Z" fill="#E2E4DD"/>
<path d="M426.759 70.2624C426.759 70.847 426.728 71.5677 426.003 71.6131C425.277 71.6584 425.126 70.9881 425.105 70.3783C425.085 69.7685 425.191 69.1082 425.902 69.0427C426.708 68.9671 426.703 69.6878 426.759 70.2624Z" fill="#E2E4DD"/>
<path d="M82.3675 113.893C82.1962 115.057 81.4704 115.873 79.8476 115.707C79.1672 115.455 77.5998 115.883 77.746 114.23C77.9022 112.497 79.5452 112.779 80.7044 112.602C81.5813 112.451 82.5339 112.749 82.3675 113.893Z" fill="#E2E4DD"/>
<path d="M18.5675 22.4338C18.5071 24.0919 17.237 24.3187 15.9065 24.3489C14.8985 24.3741 14.0417 24.2431 14.072 22.9378C14.1173 21.2192 15.4378 21.3704 16.5415 21.2242C17.4134 21.3552 18.6482 21.0277 18.5675 22.4338Z" fill="#E2E4DD"/>
<path d="M65.6452 14.254C65.4134 15.3376 64.1685 15.9474 62.9438 16.1591C62.7178 16.2143 62.482 16.2165 62.2549 16.1657C62.0279 16.1148 61.8156 16.0122 61.6347 15.8659C61.4537 15.7196 61.309 15.5335 61.2118 15.3221C61.1145 15.1107 61.0674 14.8797 61.074 14.6471C61.0236 12.9588 62.7372 13.4325 63.6746 12.8429C64.5616 13.0394 65.8518 13.2965 65.6452 14.254Z" fill="#E2E4DD"/>
<path d="M28.0022 20.816C27.9266 22.2876 26.6465 22.7261 25.2605 22.7765C24.1266 22.8118 23.5319 22.4187 23.5419 21.2091C23.5419 19.5006 24.8825 19.8483 25.7595 19.6316C26.7675 19.7425 28.0678 19.6115 28.0022 20.816Z" fill="#E2E4DD"/>
<path d="M100.864 110.546C100.743 111.988 99.6897 112.426 98.3692 112.416C97.2655 112.416 96.2373 112.184 96.3532 110.813C96.5246 109.1 98.1676 109.805 98.8127 109.342C100.032 109.296 100.965 109.357 100.864 110.546Z" fill="#E2E4DD"/>
<path d="M91.5855 112.305C91.5811 112.376 91.571 112.447 91.5553 112.517C91.5576 112.532 91.5576 112.547 91.5553 112.562C91.5513 112.611 91.5393 112.659 91.52 112.703C91.4972 112.8 91.4651 112.895 91.4242 112.986C91.4242 113.011 91.4242 113.036 91.3889 113.056C91.3583 113.115 91.3247 113.172 91.2881 113.227C91.2535 113.282 91.2129 113.333 91.1672 113.379C90.9851 113.569 90.7581 113.712 90.507 113.792C90.4434 113.818 90.3776 113.838 90.3104 113.852C90.1745 113.888 90.0364 113.915 89.8971 113.933C89.8233 113.938 89.7492 113.938 89.6754 113.933H89.4486H88.995H88.8287H88.6573L88.2692 113.893C88.1794 113.883 88.0902 113.868 88.0021 113.847C87.9197 113.828 87.8389 113.803 87.7602 113.772L87.6695 113.731L87.5838 113.686C87.5598 113.674 87.5376 113.659 87.5183 113.641L87.4528 113.59C87.3919 113.542 87.3392 113.484 87.2965 113.419C87.2965 113.419 87.2713 113.374 87.2562 113.348C87.2344 113.314 87.2174 113.277 87.2058 113.238C87.1894 113.197 87.1759 113.154 87.1655 113.112C87.1496 113.061 87.1395 113.008 87.1353 112.955C87.1326 112.918 87.1326 112.881 87.1353 112.844C87.1252 112.746 87.1252 112.646 87.1353 112.547C87.2764 110.662 88.9144 111.151 90.003 110.909C90.9152 110.743 91.6964 111.222 91.5855 112.305Z" fill="#E2E4DD"/>
<path d="M9.148 24.5052C9.12971 25.0847 8.90304 25.6381 8.50959 26.064C8.11613 26.4899 7.5823 26.7595 7.00605 26.8235C6.25006 26.9294 5.46888 25.8155 5.4588 24.6715C5.4588 23.2704 6.36094 23.089 7.11189 23.0386C8.41722 23.0184 9.18328 23.1746 9.148 24.5052Z" fill="#E2E4DD"/>
<path d="M35.8393 121.957C35.7536 123.62 34.3827 123.469 33.3899 123.69C32.518 123.69 31.5806 123.731 31.6461 122.682C31.7317 121.246 32.7599 120.742 34.0904 120.777C34.917 120.782 35.8997 120.702 35.8393 121.957Z" fill="#E2E4DD"/>
<path d="M45.0774 120.445C44.9463 122.128 43.5654 121.921 42.4667 122.072C41.62 122.188 40.9547 121.856 41.0001 120.858C41.0253 119.401 41.9728 119.089 43.4192 119.159C44.0392 119.275 45.1883 118.993 45.0774 120.445Z" fill="#E2E4DD"/>
<path d="M19.3739 88.0028C19.3336 88.8293 19.1522 89.8272 18.3055 89.7416C17.0758 89.6156 16.728 88.3959 16.5264 87.3274C16.4774 87.1204 16.4798 86.9045 16.5333 86.6986C16.5868 86.4926 16.6898 86.3029 16.8334 86.1459C16.977 85.9889 17.1568 85.8693 17.3572 85.7977C17.5575 85.726 17.7723 85.7045 17.9829 85.7348C19.2832 85.8356 19.1522 87.1259 19.3739 88.0028Z" fill="#E2E4DD"/>
<path d="M24.1316 115.057C24.0711 115.934 24.0056 117.033 22.9623 116.967C21.7024 116.886 21.7628 115.531 21.5512 114.613C21.3395 113.696 21.778 112.769 22.7507 112.779C24.1921 112.789 23.7788 114.225 24.1316 115.057Z" fill="#E2E4DD"/>
<path d="M26.5104 123.625C26.5104 124.698 25.9308 125.096 24.9984 125.182C23.6175 125.308 23.3403 124.275 23.1538 123.287C22.9674 122.299 23.8141 122.103 24.5247 121.831C25.4772 122.093 26.4852 122.269 26.5104 123.625Z" fill="#E2E4DD"/>
<path d="M19.7368 98.5866C18.5877 98.511 18.3912 97.4224 18.3105 96.5051C18.2299 95.5878 18.7742 94.6454 19.6612 94.7512C20.7498 94.8772 20.6138 96.1473 20.8557 96.7672C20.9413 97.8507 20.6642 98.6471 19.7368 98.5866Z" fill="#E2E4DD"/>
<path d="M12.9077 51.6249C12.7263 52.4716 12.8069 53.7215 11.7738 53.535C10.6247 53.3233 10.4583 51.9424 10.2618 50.9042C10.1005 50.0373 10.8968 49.7198 11.5218 49.7147C12.8271 49.7047 12.6658 50.8638 12.9077 51.6249Z" fill="#E2E4DD"/>
<path d="M63.3369 117.204C63.3405 117.458 63.2853 117.71 63.1756 117.94C63.1257 118.034 63.0648 118.122 62.9942 118.202L62.8833 118.308L62.7623 118.398L62.6515 118.464L62.5255 118.529C62.4638 118.56 62.3998 118.585 62.334 118.605L62.1223 118.66C62.0547 118.681 61.9856 118.696 61.9156 118.706C61.7673 118.734 61.6176 118.754 61.4671 118.766C60.6355 118.797 59.9551 118.595 59.9047 117.602C59.8443 116.423 60.5398 115.969 61.6082 115.954C62.4952 115.939 63.3571 116.025 63.3369 117.204Z" fill="#E2E4DD"/>
<path d="M74.591 12.727C74.344 13.8105 73.079 13.9365 72.1164 14.0877C71.9503 14.128 71.7772 14.1302 71.6101 14.0942C71.443 14.0581 71.2863 13.9848 71.1515 13.8796C71.0168 13.7744 70.9075 13.6401 70.832 13.4868C70.7565 13.3334 70.7166 13.165 70.7153 12.9941C70.7808 11.5829 72.0862 11.85 72.9581 11.6031C73.7493 11.724 74.8228 11.7795 74.591 12.727Z" fill="#E2E4DD"/>
<path d="M17.61 78.674C17.4537 79.5559 17.7662 80.7857 16.602 80.7202C15.4378 80.6546 15.463 79.2687 15.2362 78.3665C15.0346 77.5501 15.3672 76.7588 16.3046 76.7588C17.6402 76.7538 17.3429 77.9835 17.61 78.674Z" fill="#E2E4DD"/>
<path d="M8.80026 35.2956C7.56044 35.2704 7.32357 34.091 7.16733 33.1486C7.13525 32.9628 7.14171 32.7723 7.18632 32.5891C7.23092 32.4059 7.31271 32.2338 7.42661 32.0835C7.54051 31.9332 7.68409 31.8079 7.84843 31.7154C8.01277 31.623 8.19437 31.5653 8.38195 31.5459C9.81832 31.5459 9.23369 33.0579 9.66712 33.5619C9.76792 34.5446 9.5764 35.3208 8.80026 35.2956Z" fill="#E2E4DD"/>
<path d="M83.9198 11.0084C83.6628 12.1474 82.6095 12.1121 81.798 12.3691C81.6258 12.4445 81.4378 12.4769 81.2503 12.4635C81.0627 12.45 80.8812 12.3912 80.7215 12.292C80.5618 12.1928 80.4286 12.0562 80.3334 11.894C80.2382 11.7319 80.1839 11.549 80.1752 11.3611C80.1399 10.1113 81.3848 10.2272 82.1912 9.98021C83.0832 9.6879 83.5519 10.2776 83.9198 11.0084Z" fill="#E2E4DD"/>
<path d="M46.2769 17.4393C46.2063 18.7194 44.8959 18.9512 43.8477 19.1226C43.0009 19.2738 42.628 18.6186 42.5776 17.918C42.4818 16.5018 43.6763 16.7891 44.3617 16.5724C45.2084 16.6732 46.3273 16.5321 46.2769 17.4393Z" fill="#E2E4DD"/>
<path d="M51.9972 120.752C51.0194 120.787 50.455 120.47 50.4852 119.653C50.5205 118.575 50.9035 117.688 52.224 117.713C52.9699 117.713 53.8065 117.658 53.9022 118.721C54.0484 120.238 52.5516 120.122 51.9972 120.752Z" fill="#E2E4DD"/>
<path d="M72.575 115.45C72.5095 116.554 71.7485 117.002 70.6952 117.022C69.8737 117.022 69.1832 116.907 69.153 115.868C69.153 114.608 70.0601 114.442 71.1034 114.356C71.8039 114.341 72.6355 114.397 72.575 115.45Z" fill="#E2E4DD"/>
<path d="M15.9922 69.7886C15.9468 70.5043 15.9922 71.3913 15.1203 71.3913C13.9006 71.3913 13.8048 70.212 13.704 69.3753C13.6083 68.5992 14.1022 67.7021 14.9439 67.818C15.9418 67.939 15.851 69.0377 15.9922 69.7886Z" fill="#E2E4DD"/>
<path d="M55.4394 15.8769C55.4092 16.9504 54.2802 17.1218 53.4234 17.2528C52.5667 17.3838 52.0375 16.6631 52.0526 15.9071C52.0526 14.7933 53.1362 15.2368 53.7057 15.005C54.4314 15.0352 55.4646 14.9143 55.4394 15.8769Z" fill="#E2E4DD"/>
<path d="M21.4756 107.507C20.392 107.573 20.2559 106.499 20.1803 105.703C20.1047 104.907 20.266 103.954 21.1883 103.964C22.2769 103.964 22.0753 105.133 22.2618 105.773C22.2568 106.565 22.2719 107.457 21.4756 107.507Z" fill="#E2E4DD"/>
<path d="M14.2635 60.7521C14.2635 61.4274 14.1879 62.2338 13.2253 62.0574C12.3433 61.8911 12.2626 61.0192 12.0862 60.2985C12.1417 59.5223 12.5348 58.9176 13.3009 58.9932C14.2887 59.094 14.2484 60.0213 14.2635 60.7521Z" fill="#E2E4DD"/>
<path d="M11.1387 42.7093C11.0581 43.3947 11.0783 44.3321 10.2719 44.2666C9.2639 44.1809 9.2639 43.1326 9.20342 42.3262C9.16814 41.6761 9.20342 40.8143 10.0552 40.8143C11.1539 40.905 10.9371 42.0087 11.1387 42.7093Z" fill="#E2E4DD"/>
<path d="M36.6457 19.1931C36.4515 19.6089 36.1504 19.9656 35.7732 20.2269C35.396 20.4881 34.9561 20.6444 34.4987 20.6799C33.4907 20.8059 33.3949 20.06 33.4907 19.3897C33.6217 18.2154 34.6196 18.3515 35.4109 18.3464C35.935 18.3414 36.6104 18.3414 36.6457 19.1931Z" fill="#E2E4DD"/>
<path d="M26.3491 89.2225L20.3013 58.1767L26.1526 57.0427L32.2004 88.0885L26.3491 89.2225ZM26.6818 76.663L25.5881 71.0234L35.5167 69.0982C36 69.0217 36.461 68.8416 36.8682 68.5702C37.2753 68.2987 37.6189 67.9424 37.8754 67.5257C38.4052 66.6283 38.5626 65.5591 38.3138 64.5471C38.1675 63.5054 37.6262 62.5598 36.8019 61.9062C36.4067 61.6183 35.9539 61.4193 35.4746 61.3227C34.9953 61.2262 34.5007 61.2344 34.0249 61.3468L24.0963 63.2771L23.0026 57.6374L32.7599 55.7626C34.5364 55.3738 36.3821 55.4379 38.1274 55.9491C39.6956 56.4376 41.0935 57.3602 42.1593 58.6101C43.2607 60.0022 44.0118 61.6383 44.3494 63.3809C44.6871 65.1235 44.6014 66.9218 44.0996 68.6244C43.5784 70.188 42.6156 71.5674 41.3277 72.5958C39.9001 73.7139 38.2165 74.4587 36.4289 74.763L26.6818 76.663Z" fill="white"/>
<path d="M53.1463 84.0263L47.0984 52.9554L52.9497 51.8214L58.9976 82.8873L53.1463 84.0263ZM53.0505 71.0839L51.9568 65.4442L62.7624 63.3476C63.1826 63.282 63.5815 63.1187 63.9272 62.8711C64.273 62.6234 64.5558 62.2981 64.7531 61.9213C65.1839 61.05 65.3014 60.0569 65.0858 59.1091C64.9456 58.1485 64.473 57.2674 63.7502 56.6194C63.4209 56.3448 63.0325 56.1501 62.6155 56.0505C62.1985 55.9508 61.7641 55.9489 61.3462 56.0448L50.5406 58.1414L49.447 52.5068L60.7212 50.3195C62.2958 49.9742 63.9351 50.0701 65.4587 50.5967C66.9003 51.1166 68.1617 52.0404 69.0925 53.2578C70.125 54.6372 70.8159 56.2417 71.1084 57.9398C71.4735 59.6259 71.4286 61.375 70.9774 63.0402C70.5667 64.5142 69.7452 65.8409 68.6087 66.8655C67.392 67.9166 65.9102 68.6139 64.3247 68.8814L53.0505 71.0839ZM69.5511 80.8411L59.4008 68.8512L65.4486 66.6588L76.617 79.4702L69.5511 80.8411Z" fill="white"/>
<path d="M91.5553 76.905C89.4878 77.3592 87.3379 77.2689 85.3159 76.6429C83.4566 76.046 81.8108 74.9219 80.5784 73.4073C79.2442 71.7424 78.3561 69.765 77.998 67.6618L76.2945 58.8621C75.8374 56.7744 75.919 54.6048 76.5313 52.5572C77.1139 50.6969 78.2197 49.0435 79.7166 47.7945C81.3876 46.503 83.338 45.621 85.4115 45.2193C87.4849 44.8175 89.6236 44.9073 91.6561 45.4812C93.5115 46.0778 95.1549 47.1979 96.3885 48.7068C97.7227 50.3755 98.6107 52.356 98.9689 54.4623L100.677 63.262C101.13 65.347 101.047 67.5126 100.436 69.5568C99.8626 71.4195 98.7635 73.077 97.2705 74.3296C95.6201 75.6677 93.651 76.5551 91.5553 76.905ZM90.4213 71.0536C91.1328 70.9472 91.8143 70.6931 92.4218 70.3077C93.0294 69.9224 93.5496 69.4142 93.9492 68.8159C94.3365 68.1911 94.5957 67.4955 94.7116 66.7695C94.8276 66.0436 94.798 65.3019 94.6246 64.5875L92.8606 55.5157C92.7556 54.7865 92.5062 54.0856 92.1272 53.4539C91.7482 52.8222 91.2471 52.2724 90.6531 51.8365C89.417 51.0872 87.9454 50.8269 86.5272 51.1066C85.109 51.3863 83.8465 52.1859 82.9875 53.3485C82.5988 53.9747 82.3389 54.672 82.223 55.3998C82.107 56.1275 82.1373 56.8711 82.3121 57.5871L84.0761 66.6589C84.1824 67.3862 84.4323 68.0852 84.8113 68.7151C85.1902 69.345 85.6907 69.8932 86.2835 70.3279C86.8837 70.7325 87.5622 71.0063 88.2751 71.1313C88.988 71.2563 89.7193 71.2299 90.4213 71.0536Z" fill="white"/>
<g opacity="0.3">
<path d="M144.232 89.3535V26.9496H155.99V89.3535H144.232ZM150.154 89.3535V78.0238H165.133C168.993 78.0238 171.982 77.0864 174.099 75.2116C176.215 73.3367 177.275 70.7109 177.279 67.3342V48.9688C177.279 45.5619 176.219 42.9294 174.099 41.0713C171.979 39.2133 168.99 38.2876 165.133 38.2944H150.154V26.9496H164.876C172.714 26.9496 178.772 28.9034 183.049 32.811C187.327 36.7186 189.465 42.2188 189.465 49.3116V66.9915C189.465 71.4266 188.55 75.3258 186.719 78.6891C184.849 82.0878 181.979 84.8292 178.498 86.5412C174.85 88.4161 170.293 89.3535 164.83 89.3535H150.154Z" fill="black"/>
<path d="M201.052 89.3535V26.9496H212.81V89.3535H201.052ZM205.301 38.2944V26.9496H242.853V38.2944H205.301ZM205.301 64.0482V52.7034H238.13V64.0331L205.301 64.0482ZM205.301 89.3686V78.0238H242.853V89.3535L205.301 89.3686Z" fill="black"/>
<path d="M247.575 89.3535L271.434 26.9496H278.903L302.762 89.3535H290.102L275.179 46.7362L260.246 89.3535H247.575ZM259.051 79.3544V68.0297H291.861V79.3644L259.051 79.3544Z" fill="black"/>
<path d="M310.488 89.3535V26.9496H322.246V89.3535H310.488ZM315.725 89.3535V78.0238H352.289V89.3535H315.725Z" fill="black"/>
<path d="M378.769 89.9936C375.834 89.9996 372.906 89.6972 370.035 89.0914C367.275 88.5213 364.59 87.6369 362.031 86.4556C359.621 85.3453 357.357 83.9402 355.293 82.2725L360.741 72.5656C363.217 74.5798 366.038 76.1286 369.067 77.1368C372.19 78.2053 375.468 78.7486 378.769 78.7445C382.602 78.7445 385.578 78.0944 387.694 76.7941C388.677 76.2529 389.492 75.4528 390.052 74.4807C390.612 73.5087 390.894 72.4019 390.869 71.2805V71.2351C390.869 69.4308 390.365 68.0549 389.282 67.0923C388.077 66.0604 386.643 65.3328 385.099 64.9705C383.238 64.4873 381.354 64.1004 379.454 63.8113C377.025 63.4384 374.564 62.973 372.071 62.4153C369.658 61.89 367.342 60.9922 365.206 59.7542C363.086 58.5048 361.344 56.7038 360.166 54.543C358.893 52.2817 358.256 49.2578 358.256 45.4712V45.4258C358.256 39.3309 360.259 34.627 364.264 31.3141C368.269 28.0012 373.934 26.3347 381.258 26.3145C384.76 26.3349 388.236 26.9064 391.56 28.0079C395.027 29.1289 398.31 30.7559 401.302 32.8362L396.323 42.7899C393.997 41.1478 391.452 39.8414 388.763 38.9092C386.346 38.043 383.801 37.5865 381.233 37.5585C377.631 37.5585 374.841 38.1516 372.862 39.3376C370.883 40.5237 369.905 42.1919 369.929 44.3422V44.3876C369.929 46.4035 370.515 47.9155 371.688 48.9235C373.019 50.0353 374.591 50.8221 376.279 51.2217C378.171 51.719 380.202 52.1826 382.372 52.6127C384.775 53.0696 387.163 53.6358 389.539 54.3111C391.854 54.9494 394.061 55.9259 396.091 57.2091C398.089 58.4984 399.715 60.288 400.808 62.4002C401.981 64.6009 402.567 67.4569 402.567 70.968V71.0537C402.567 77.0612 400.494 81.7181 396.348 85.0242C392.202 88.3304 386.342 89.9869 378.769 89.9936Z" fill="black"/>
</g>
<path d="M145.654 87.9222V25.5233H157.412V87.9222H145.654ZM151.575 87.9222V76.5975H166.554C170.418 76.5975 173.408 75.6601 175.525 73.7853C177.642 71.9104 178.7 69.2863 178.7 65.9129V47.5375C178.7 44.1373 177.642 41.5048 175.525 39.64C173.408 37.7752 170.418 36.8462 166.554 36.8529H151.58V25.5233H166.317C174.152 25.5233 180.21 27.4754 184.491 31.3796C188.771 35.2838 190.905 40.7807 190.892 47.8701V65.5551C190.892 69.9902 189.976 73.8877 188.145 77.2477C186.279 80.6517 183.408 83.3973 179.925 85.1099C176.276 86.9847 171.72 87.9222 166.257 87.9222H151.575Z" fill="white"/>
<path d="M202.483 87.9222V25.5233H214.241V87.9222H202.483ZM206.732 36.8529V25.5233H244.279V36.8529H206.732ZM206.732 62.6017V51.2721H239.562V62.6017H206.732ZM206.732 87.9222V76.5975H244.279V87.9272L206.732 87.9222Z" fill="white"/>
<path d="M249.002 87.9222L272.865 25.5233H280.329L304.193 87.9222H291.533L276.595 45.3048L261.662 87.9222H249.002ZM260.462 77.923V66.5933H293.292V77.923H260.462Z" fill="white"/>
<path d="M311.92 87.9222V25.5233H323.678V87.9222H311.92ZM317.151 87.9222V76.5975H353.715V87.9272L317.151 87.9222Z" fill="white"/>
<path d="M380.195 88.5673C377.263 88.5774 374.337 88.2818 371.466 87.6853C368.704 87.1134 366.017 86.2273 363.457 85.0444C361.047 83.9337 358.784 82.5286 356.719 80.8613L362.172 71.1645C364.649 73.1779 367.47 74.7265 370.498 75.7357C373.62 76.8017 376.896 77.345 380.195 77.3434C384.032 77.3434 387.009 76.6916 389.126 75.3879C390.108 74.8467 390.924 74.0466 391.483 73.0746C392.043 72.1026 392.326 70.9957 392.301 69.8743V69.834C392.301 68.0297 391.767 66.6488 390.713 65.6912C389.508 64.6566 388.071 63.9272 386.525 63.5644C384.666 63.0824 382.784 62.6971 380.885 62.4102C378.449 62.0373 375.988 61.5719 373.502 61.0142C371.091 60.4852 368.775 59.5877 366.638 58.3531C364.517 57.1023 362.775 55.2995 361.598 53.1368C360.321 50.8789 359.684 47.855 359.688 44.065V44.0247C359.688 37.9298 361.69 33.2158 365.695 29.8828C369.7 26.5497 375.365 24.8832 382.69 24.8832C386.191 24.9036 389.668 25.475 392.991 26.5766C396.458 27.6987 399.741 29.3255 402.733 31.4048L397.749 41.3586C395.434 39.7164 392.899 38.4083 390.219 37.4728C387.792 36.6066 385.237 36.1502 382.659 36.1221C379.058 36.1221 376.269 36.7168 374.293 37.9063C372.318 39.0957 371.33 40.7622 371.33 42.9058V42.9462C371.33 44.9621 371.914 46.4741 373.089 47.4821C374.421 48.5911 375.993 49.376 377.68 49.7752C379.572 50.2792 381.604 50.7446 383.778 51.1713C386.182 51.6299 388.566 52.1792 390.945 52.8647C393.249 53.5074 395.446 54.4837 397.467 55.7626C399.479 57.0525 401.117 58.8499 402.214 60.9739C403.383 63.178 403.97 66.0339 403.973 69.5417V69.6273C403.973 75.6349 401.898 80.2901 397.749 83.5929C393.599 86.8957 387.748 88.5538 380.195 88.5673Z" fill="white"/>
</svg>
