<svg width="37" height="37" viewBox="0 0 37 37" fill="none" xmlns="http://www.w3.org/2000/svg">
<path d="M18.4955 0.5C13.7246 0.506 9.15088 2.40387 5.77738 5.77738C2.40387 9.15088 0.506 13.7246 0.5 18.4955C0.5036 23.2679 2.40041 27.8439 5.77418 31.2194C9.14794 34.5949 13.723 36.494 18.4955 36.5C23.2695 36.4964 27.8469 34.5983 31.2226 31.2226C34.5983 27.8469 36.4964 23.2695 36.5 18.4955C36.494 13.7223 34.5943 9.14647 31.2178 5.77258C27.8414 2.39868 23.2687 0.502399 18.4955 0.5ZM18.4955 2.89909C20.5455 2.89611 22.5759 3.29754 24.4706 4.08039C26.3652 4.86324 28.0868 6.01214 29.5368 7.46129C30.9868 8.91044 32.1367 10.6314 32.9207 12.5256C33.7046 14.4198 34.1072 16.45 34.1054 18.5C34.106 20.5499 33.7026 22.5798 32.9183 24.4737C32.134 26.3676 30.9841 28.0884 29.5344 29.5376C28.0847 30.9869 26.3636 32.1363 24.4695 32.9201C22.5754 33.7038 20.5453 34.1066 18.4955 34.1054C16.4455 34.1072 14.4152 33.7046 12.521 32.9207C10.6269 32.1367 8.90591 30.9868 7.45675 29.5368C6.0076 28.0868 4.8587 26.3652 4.07585 24.4706C3.293 22.5759 2.89157 20.5455 2.89456 18.4955C2.89217 16.4461 3.29407 14.4163 4.07724 12.5224C4.86042 10.6286 6.00948 8.90779 7.45863 7.45863C8.90779 6.00948 10.6286 4.86042 12.5224 4.07724C14.4163 3.29407 16.4461 2.89217 18.4955 2.89456V2.89909ZM18.4819 8.90363C18.1647 8.90959 17.8628 9.04071 17.6419 9.26839C17.421 9.49607 17.2991 9.80185 17.3027 10.119V11.1304C15.3662 11.4932 13.7063 12.7404 13.7063 14.9036C13.7063 16.4002 14.3866 17.6156 15.2937 18.3231C16.2007 19.0306 17.2256 19.339 18.1236 19.6383C19.0261 19.9422 19.8016 20.2279 20.2415 20.5726C20.6859 20.9127 20.8946 21.2075 20.8946 22.1054C20.8946 24.1009 16.1054 24.1009 16.1054 22.1054C16.1155 21.9417 16.092 21.7777 16.0362 21.6234C15.9805 21.4691 15.8938 21.3278 15.7814 21.2083C15.669 21.0888 15.5334 20.9936 15.3828 20.9285C15.2322 20.8634 15.0699 20.8298 14.9059 20.8298C14.7419 20.8298 14.5796 20.8634 14.429 20.9285C14.2784 20.9936 14.1428 21.0888 14.0304 21.2083C13.918 21.3278 13.8313 21.4691 13.7756 21.6234C13.7198 21.7777 13.6963 21.9417 13.7063 22.1054C13.7063 24.2642 15.3662 25.5159 17.3027 25.8787V26.8855C17.2926 27.0492 17.3162 27.2133 17.3719 27.3676C17.4277 27.5218 17.5144 27.6631 17.6268 27.7826C17.7391 27.9021 17.8748 27.9973 18.0254 28.0624C18.1759 28.1275 18.3382 28.1611 18.5023 28.1611C18.6663 28.1611 18.8286 28.1275 18.9792 28.0624C19.1298 27.9973 19.2654 27.9021 19.3778 27.7826C19.4902 27.6631 19.5769 27.5218 19.6326 27.3676C19.6883 27.2133 19.7119 27.0492 19.7018 26.8855V25.8741C21.6383 25.5113 23.2982 24.2596 23.2982 22.1009C23.2982 20.5998 22.6179 19.3844 21.7109 18.6814C20.8039 17.9739 19.7789 17.6565 18.881 17.3571C17.9785 17.0578 17.2029 16.7721 16.7585 16.432C16.3186 16.0873 16.1054 15.7971 16.1054 14.8991C16.1054 12.8991 20.8946 12.8991 20.8946 14.8991C20.8946 15.2178 21.0212 15.5235 21.2466 15.7489C21.4719 15.9743 21.7776 16.1009 22.0964 16.1009C22.4151 16.1009 22.7208 15.9743 22.9462 15.7489C23.1716 15.5235 23.2982 15.2178 23.2982 14.8991C23.2982 12.7404 21.6383 11.4932 19.7018 11.1258V10.1145C19.7037 9.95362 19.6732 9.79399 19.6122 9.6451C19.5512 9.49621 19.4609 9.36108 19.3467 9.24773C19.2325 9.13438 19.0967 9.04511 18.9474 8.98522C18.798 8.92533 18.6382 8.89605 18.4773 8.89909L18.4819 8.90363Z" fill="#FEBB47"/>
</svg>
