<svg width="50" height="42" viewBox="0 0 50 42" fill="none" xmlns="http://www.w3.org/2000/svg">
<path d="M50 6.5H0V35.6667H50V6.5Z" fill="#27AE60"/>
<path d="M50 4.41675H0V33.5834H50V4.41675Z" fill="#2ECC71"/>
<path d="M50 2.33325H0V31.4999H50V2.33325Z" fill="#27AE60"/>
<path d="M50 0.25H0V29.4167H50V0.25Z" fill="#2ECC71"/>
<path d="M10.4163 2.33325C10.4163 6.91659 6.6853 10.6666 2.08301 10.6666V18.7916C6.6853 18.7916 10.4163 22.5416 10.4163 27.3333H39.583V27.125C39.583 22.5416 43.3143 18.7916 47.9163 18.7916V10.6666C43.3143 10.6666 39.583 6.91659 39.583 2.33325H10.4163Z" fill="#ECF0F1"/>
<path d="M33.3337 14.8334C33.3337 20.5855 29.6024 25.2501 25.0003 25.2501C20.398 25.2501 16.667 20.5855 16.667 14.8334C16.667 9.0805 20.398 4.41675 25.0003 4.41675C29.6024 4.41675 33.3337 9.0805 33.3337 14.8334Z" fill="#2ECC71"/>
<path d="M20.833 10.0392L25.983 8.64185H26.4979V18.8893C26.4979 19.588 26.5447 20.0537 26.6381 20.2866C26.7424 20.5195 26.9502 20.5194 27.2626 20.7523H29.1662V21.2183H21.2073V20.7523H23.1425C23.4338 20.5194 23.6367 20.5195 23.7514 20.2866C23.8656 20.0537 23.9227 19.588 23.9227 18.8893V12.3681C23.9227 11.4365 23.8708 10.738 23.7669 10.5051C23.6938 10.2722 23.5588 10.2721 23.361 10.0392H22.6743C22.2896 10.0392 21.7539 10.0391 21.0671 10.272L20.833 10.0392Z" fill="#ECF0F1"/>
<path d="M8.33392 35.6138C6.51102 35.6138 4.91312 36.0348 3.77563 36.6555H2.08398V37.2413V37.5669V37.6971V37.8273V38.7388C2.08398 40.4649 4.88187 41.8639 8.33392 41.8639C11.786 41.8639 14.5839 40.4649 14.5839 38.7388V37.8273V37.6971V37.5669V37.2413V36.6555H12.8922C11.7547 36.0348 10.1568 35.6138 8.33392 35.6138Z" fill="#F39C12"/>
<path d="M14.5839 36.6304C14.5839 38.3563 11.786 39.7555 8.33392 39.7555C4.88187 39.7555 2.08398 38.3563 2.08398 36.6304C2.08398 34.9046 4.88187 33.5054 8.33392 33.5054C11.786 33.5054 14.5839 34.9046 14.5839 36.6304Z" fill="#F1C40F"/>
<path d="M8.33392 31.4473C6.51102 31.4473 4.91312 31.8683 3.77563 32.489H2.08398V33.0748V33.4004V33.5306V33.6608V34.5723C2.08398 36.2984 4.88187 37.6974 8.33392 37.6974C11.786 37.6974 14.5839 36.2984 14.5839 34.5723V33.6608V33.5306V33.4004V33.0748V32.489H12.8922C11.7547 31.8683 10.1568 31.4473 8.33392 31.4473Z" fill="#F39C12"/>
<path d="M14.5839 32.4634C14.5839 34.1893 11.786 35.5885 8.33392 35.5885C4.88187 35.5885 2.08398 34.1893 2.08398 32.4634C2.08398 30.7376 4.88187 29.3384 8.33392 29.3384C11.786 29.3384 14.5839 30.7376 14.5839 32.4634Z" fill="#F1C40F"/>
<path d="M8.33392 27.2805C6.51102 27.2805 4.91312 27.7016 3.77563 28.3222H2.08398V28.908V29.2337V29.3639V29.4941V30.4056C2.08398 32.1316 4.88187 33.5306 8.33392 33.5306C11.786 33.5306 14.5839 32.1316 14.5839 30.4056V29.4941V29.3639V29.2337V28.908V28.3222H12.8922C11.7547 27.7016 10.1568 27.2805 8.33392 27.2805Z" fill="#F39C12"/>
<path d="M14.5839 28.2972C14.5839 30.023 11.786 31.4222 8.33392 31.4222C4.88187 31.4222 2.08398 30.023 2.08398 28.2972C2.08398 26.5713 4.88187 25.1721 8.33392 25.1721C11.786 25.1721 14.5839 26.5713 14.5839 28.2972Z" fill="#F1C40F"/>
<path d="M8.33392 23.1143C6.51102 23.1143 4.91312 23.5353 3.77563 24.1559H2.08398V24.7418V25.0674V25.1976V25.3278V26.2393C2.08398 27.9654 4.88187 29.3644 8.33392 29.3644C11.786 29.3644 14.5839 27.9654 14.5839 26.2393V25.3278V25.1976V25.0674V24.7418V24.1559H12.8922C11.7547 23.5353 10.1568 23.1143 8.33392 23.1143Z" fill="#F39C12"/>
<path d="M14.5839 24.1304C14.5839 25.8563 11.786 27.2555 8.33392 27.2555C4.88187 27.2555 2.08398 25.8563 2.08398 24.1304C2.08398 22.4046 4.88187 21.0054 8.33392 21.0054C11.786 21.0054 14.5839 22.4046 14.5839 24.1304Z" fill="#F1C40F"/>
<path d="M22.916 35.6138C21.0931 35.6138 19.4952 36.0348 18.3577 36.6555H16.666V37.2413V37.5669V37.6971V37.8273V38.7388C16.666 40.4649 19.4639 41.8639 22.916 41.8639C26.368 41.8639 29.1659 40.4649 29.1659 38.7388V37.8273V37.6971V37.5669V37.2413V36.6555H27.4742C26.3368 36.0348 24.7389 35.6138 22.916 35.6138Z" fill="#F39C12"/>
<path d="M29.1659 36.6304C29.1659 38.3563 26.368 39.7555 22.916 39.7555C19.4639 39.7555 16.666 38.3563 16.666 36.6304C16.666 34.9046 19.4639 33.5054 22.916 33.5054C26.368 33.5054 29.1659 34.9046 29.1659 36.6304Z" fill="#F1C40F"/>
<path d="M27.0829 33.5317C25.26 33.5317 23.6621 33.9528 22.5247 34.5734H20.833V35.1593V35.4849V35.6151V35.7453V36.6568C20.833 38.3829 23.6309 39.7818 27.0829 39.7818C30.535 39.7818 33.3329 38.3829 33.3329 36.6568V35.7453V35.6151V35.4849V35.1593V34.5734H31.6412C30.5037 33.9528 28.9058 33.5317 27.0829 33.5317Z" fill="#F39C12"/>
<path d="M33.3329 34.5479C33.3329 36.2738 30.535 37.673 27.0829 37.673C23.6309 37.673 20.833 36.2738 20.833 34.5479C20.833 32.822 23.6309 31.4229 27.0829 31.4229C30.535 31.4229 33.3329 32.822 33.3329 34.5479Z" fill="#F1C40F"/>
<path d="M8.33392 18.9473C6.51102 18.9473 4.91312 19.3683 3.77563 19.989H2.08398V20.5748V20.9004V21.0306V21.1608V22.0723C2.08398 23.7984 4.88187 25.1974 8.33392 25.1974C11.786 25.1974 14.5839 23.7984 14.5839 22.0723V21.1608V21.0306V20.9004V20.5748V19.989H12.8922C11.7547 19.3683 10.1568 18.9473 8.33392 18.9473Z" fill="#F39C12"/>
<path d="M14.5839 19.9637C14.5839 21.6895 11.786 23.0887 8.33392 23.0887C4.88187 23.0887 2.08398 21.6895 2.08398 19.9637C2.08398 18.2378 4.88187 16.8386 8.33392 16.8386C11.786 16.8386 14.5839 18.2378 14.5839 19.9637Z" fill="#F1C40F"/>
</svg>
