<svg width="185" height="185" viewBox="0 0 185 185" fill="none" xmlns="http://www.w3.org/2000/svg">
<path d="M185 141.487H0V141.58H185V141.487Z" fill="#E6E6E6"/>
<path d="M46.1831 147.086H33.9287V147.178H46.1831V147.086Z" fill="#E6E6E6"/>
<path d="M30.0515 147.086H22.9512V147.178H30.0515V147.086Z" fill="#E6E6E6"/>
<path d="M77.903 148.447H70.8027V148.54H77.903V148.447Z" fill="#E6E6E6"/>
<path d="M114.926 150.512H98.9453V150.604H114.926V150.512Z" fill="#E6E6E6"/>
<path d="M95.6526 150.512H93.3105V150.604H95.6526V150.512Z" fill="#E6E6E6"/>
<path d="M167.74 148.447H133.078V148.54H167.74V148.447Z" fill="#E6E6E6"/>
<path d="M87.69 124.986H16.2467C15.687 124.985 15.1506 124.762 14.7552 124.366C14.3598 123.969 14.1377 123.433 14.1377 122.873V22.4438C14.1426 21.8873 14.3668 21.3553 14.7617 20.9632C15.1566 20.571 15.6902 20.3506 16.2467 20.3496H87.69C88.2503 20.3496 88.7877 20.5722 89.1839 20.9684C89.5801 21.3646 89.8027 21.902 89.8027 22.4623V122.873C89.8027 123.433 89.5801 123.971 89.1839 124.367C88.7877 124.763 88.2503 124.986 87.69 124.986ZM16.2467 20.4236C15.7115 20.4246 15.1987 20.6379 14.8206 21.0166C14.4425 21.3954 14.2302 21.9087 14.2302 22.4438V122.873C14.2302 123.408 14.4425 123.921 14.8206 124.3C15.1987 124.679 15.7115 124.892 16.2467 124.893H87.69C88.2255 124.892 88.7388 124.679 89.1174 124.3C89.4961 123.922 89.7092 123.408 89.7102 122.873V22.4438C89.7092 21.9083 89.4961 21.395 89.1174 21.0164C88.7388 20.6377 88.2255 20.4246 87.69 20.4236H16.2467Z" fill="#E6E6E6"/>
<path d="M167.725 124.986H96.2777C95.7177 124.985 95.1809 124.762 94.7849 124.366C94.3889 123.97 94.166 123.433 94.165 122.873V22.4438C94.1709 21.887 94.3959 21.3549 94.7914 20.9629C95.1869 20.5709 95.7209 20.3506 96.2777 20.3496H167.725C168.281 20.3515 168.813 20.5724 169.207 20.9644C169.601 21.3565 169.825 21.888 169.83 22.4438V122.873C169.83 123.432 169.608 123.968 169.214 124.364C168.819 124.76 168.284 124.984 167.725 124.986ZM96.2777 20.4236C95.7422 20.4246 95.229 20.6377 94.8503 21.0164C94.4717 21.395 94.2585 21.9083 94.2575 22.4438V122.873C94.2585 123.408 94.4717 123.922 94.8503 124.3C95.229 124.679 95.7422 124.892 96.2777 124.893H167.725C168.26 124.892 168.774 124.679 169.152 124.3C169.531 123.922 169.744 123.408 169.745 122.873V22.4438C169.744 21.9083 169.531 21.395 169.152 21.0164C168.774 20.6377 168.26 20.4246 167.725 20.4236H96.2777Z" fill="#E6E6E6"/>
<path d="M98.9381 109.882H90.8018V142.157H98.9381V109.882Z" fill="#E0E0E0"/>
<path d="M97.3911 142.157H98.9377V137.762H95.7705L97.3911 142.157Z" fill="#FAFAFA"/>
<path d="M63.2847 109.882H55.1484V142.157H63.2847V109.882Z" fill="#E0E0E0"/>
<path d="M98.9385 109.882H61.9385V139.46H98.9385V109.882Z" fill="#FAFAFA"/>
<path d="M97.5948 111.337V119.162H63.2699V111.337H97.5837M97.728 111.192H63.1367V119.303H97.7391V111.192H97.728Z" fill="#E0E0E0"/>
<path d="M63.4814 142.157H61.9385V137.762H65.102L63.4814 142.157Z" fill="#FAFAFA"/>
<path d="M79.6201 115.247C79.6201 115.409 79.6681 115.567 79.7579 115.702C79.8478 115.836 79.9755 115.941 80.1249 116.003C80.2743 116.065 80.4387 116.081 80.5973 116.049C80.756 116.018 80.9017 115.94 81.016 115.826C81.1304 115.711 81.2083 115.566 81.2398 115.407C81.2714 115.248 81.2552 115.084 81.1933 114.934C81.1314 114.785 81.0266 114.657 80.8921 114.568C80.7576 114.478 80.5995 114.43 80.4378 114.43C80.2209 114.43 80.013 114.516 79.8596 114.669C79.7063 114.823 79.6201 115.031 79.6201 115.247Z" fill="#E6E6E6"/>
<path d="M97.5948 120.757V128.582H63.2699V120.757H97.5837M97.728 120.616H63.1367V128.727H97.7391V120.62L97.728 120.616Z" fill="#E0E0E0"/>
<path d="M79.6201 124.69C79.6201 124.851 79.6681 125.01 79.7579 125.144C79.8478 125.279 79.9755 125.383 80.1249 125.445C80.2743 125.507 80.4387 125.523 80.5973 125.492C80.756 125.46 80.9017 125.382 81.016 125.268C81.1304 125.154 81.2083 125.008 81.2398 124.849C81.2714 124.691 81.2552 124.526 81.1933 124.377C81.1314 124.227 81.0266 124.1 80.8921 124.01C80.7576 123.92 80.5995 123.872 80.4378 123.872C80.2209 123.872 80.013 123.958 79.8596 124.112C79.7063 124.265 79.6201 124.473 79.6201 124.69Z" fill="#E6E6E6"/>
<path d="M97.5948 130.18V138.01H63.2699V130.18H97.5837M97.728 130.036H63.1367V138.15H97.7391V130.036H97.728Z" fill="#E0E0E0"/>
<path d="M79.6201 134.095C79.6209 134.256 79.6694 134.414 79.7597 134.548C79.85 134.682 79.978 134.786 80.1275 134.848C80.2769 134.909 80.4412 134.925 80.5996 134.893C80.758 134.861 80.9033 134.783 81.0173 134.668C81.1313 134.554 81.2088 134.408 81.2401 134.249C81.2713 134.091 81.2549 133.927 81.1929 133.777C81.1309 133.628 81.0261 133.501 80.8917 133.411C80.7573 133.321 80.5994 133.273 80.4378 133.273C80.3301 133.273 80.2235 133.295 80.124 133.336C80.0246 133.377 79.9343 133.438 79.8583 133.514C79.7823 133.591 79.7222 133.681 79.6813 133.781C79.6404 133.88 79.6196 133.987 79.6201 134.095Z" fill="#E6E6E6"/>
<path d="M58.316 91.1377H50.1797V142.161H58.316V91.1377Z" fill="#E0E0E0"/>
<path d="M56.7692 142.157H58.3158V137.762H55.1523L56.7692 142.157Z" fill="#FAFAFA"/>
<path d="M27.9088 91.1377H19.7725V142.161H27.9088V91.1377Z" fill="#E0E0E0"/>
<path d="M58.3157 91.1377H26.5586V139.463H58.3157V91.1377Z" fill="#FAFAFA"/>
<path d="M56.9467 92.4995V103.44H27.9276V92.4995H56.9467ZM57.1169 92.333H27.75V103.6H57.1095V92.3367L57.1169 92.333Z" fill="#E0E0E0"/>
<path d="M56.9467 104.777V133.796H43.1235V104.777H56.9467ZM57.1169 104.606H42.957V133.966H57.1169V104.606Z" fill="#E0E0E0"/>
<path d="M41.7508 104.777V133.796H27.9276V104.777H41.7508ZM41.9173 104.606H27.75V133.966H41.9099V104.606H41.9173Z" fill="#E0E0E0"/>
<path d="M28.1052 142.157H26.5586V137.762H29.7258L28.1052 142.157Z" fill="#FAFAFA"/>
<path d="M41.6172 97.9759C41.6165 98.1385 41.664 98.2977 41.7538 98.4333C41.8436 98.5688 41.9717 98.6747 42.1217 98.7374C42.2717 98.8001 42.437 98.8169 42.5966 98.7857C42.7561 98.7544 42.9028 98.6765 43.0181 98.5617C43.1333 98.447 43.2119 98.3007 43.2439 98.1412C43.2759 97.9818 43.2599 97.8164 43.1978 97.6661C43.1358 97.5158 43.0305 97.3873 42.8953 97.2969C42.7602 97.2065 42.6012 97.1582 42.4386 97.1582C42.2214 97.1582 42.013 97.2442 41.8591 97.3975C41.7051 97.5507 41.6182 97.7587 41.6172 97.9759Z" fill="#E6E6E6"/>
<path d="M44.5479 118.596C44.5479 118.758 44.5961 118.917 44.6866 119.053C44.777 119.188 44.9055 119.293 45.0558 119.355C45.2061 119.417 45.3714 119.433 45.5309 119.401C45.6903 119.369 45.8367 119.291 45.9514 119.175C46.0661 119.06 46.144 118.913 46.1753 118.754C46.2066 118.594 46.1898 118.429 46.1271 118.279C46.0643 118.129 45.9585 118.001 45.8229 117.911C45.6873 117.821 45.5282 117.774 45.3656 117.774C45.2579 117.774 45.1512 117.796 45.0518 117.837C44.9523 117.878 44.862 117.939 44.786 118.015C44.7101 118.092 44.6499 118.182 44.609 118.282C44.5682 118.381 44.5474 118.488 44.5479 118.596Z" fill="#E6E6E6"/>
<path d="M38.6904 118.596C38.6912 118.757 38.7397 118.915 38.83 119.049C38.9203 119.183 39.0483 119.287 39.1978 119.349C39.3473 119.41 39.5115 119.426 39.6699 119.394C39.8283 119.362 39.9736 119.284 40.0876 119.169C40.2016 119.055 40.2791 118.909 40.3104 118.75C40.3416 118.592 40.3252 118.428 40.2632 118.278C40.2012 118.129 40.0964 118.002 39.962 117.912C39.8277 117.822 39.6697 117.774 39.5081 117.774C39.4004 117.774 39.2938 117.796 39.1944 117.837C39.0949 117.878 39.0046 117.939 38.9286 118.015C38.8526 118.092 38.7925 118.182 38.7516 118.282C38.7107 118.381 38.69 118.488 38.6904 118.596Z" fill="#E6E6E6"/>
<path d="M37.766 76.9111H34.3361C34.6522 78.5749 34.8512 80.2589 34.9318 81.9505C34.9318 83.8005 32.3196 91.1376 36.0418 91.1376C39.764 91.1376 37.1518 83.819 37.1518 81.9505C37.2385 80.2584 37.4437 78.5745 37.766 76.9111Z" fill="#E0E0E0"/>
<path d="M24.7158 84.415V86.635C24.7197 87.8251 25.1942 88.9654 26.0357 89.8069C26.8773 90.6484 28.0175 91.1229 29.2076 91.1268H31.4276C32.6177 91.1229 33.758 90.6484 34.5995 89.8069C35.441 88.9654 35.9155 87.8251 35.9194 86.635V84.415H24.7158Z" fill="#F5F5F5"/>
<path d="M72.3975 105.176C72.3975 107.766 75.2946 109.882 78.8355 109.882H82.0323C85.5732 109.882 88.4703 107.766 88.4703 105.176H72.3975Z" fill="#E0E0E0"/>
<path d="M157.106 101.379C155.167 102.963 152.488 105.86 150.039 109.937C148.404 112.653 147.419 115.487 146.986 119.254C146.986 114.999 147.012 110.429 147.027 106.115C147.519 105.005 148.644 102.445 149.451 100.425C152.141 93.6795 153.151 92.0182 155.567 86.2018C158.797 78.4318 162.105 69.2336 161.157 69.9699C159.226 71.4684 151.826 85.3249 151.027 87.3081C148.848 92.6006 147.502 98.1983 147.035 103.903C147.035 99.8326 147.064 96.1326 147.079 93.2614C147.131 83.8967 147.29 80.8738 147.368 79.9414C147.667 79.4678 148.019 78.9165 148.226 78.6205C149.965 76.1045 150.635 73.9659 152.27 70.2141C154.594 64.9046 156.592 55.4733 156.007 55.9469C153.572 57.9301 151.656 62.1851 149.132 67.613C146.609 73.0409 147.331 76.16 146.831 80.7924C146.727 81.7026 146.646 85.1362 146.587 89.8907C145.936 84.8217 144.707 81.4843 142.469 78.4503C139.716 74.717 137.052 72.1973 135.098 70.8801C133.145 69.5629 138.473 78.7315 141.018 82.7201C143.286 86.2869 145.377 89.4282 146.568 92.5251C146.505 98.9742 146.476 107.136 146.476 114.725C145.891 111.269 144.937 107.543 143.664 104.661C142.132 101.198 139.779 95.8847 137.903 94.0828C137.455 93.6499 139.864 103.984 141.411 106.729C142.957 109.475 144.093 112.068 145.066 113.626C145.292 113.996 146.047 115.391 146.476 116.198C146.476 125.474 146.528 133.658 146.609 136.444H147.009C146.983 135.726 146.975 131.005 146.986 124.759C147.952 121.37 150.157 117.5 151.978 113.97C153.961 110.148 159.045 99.8067 157.106 101.379Z" fill="#E0E0E0"/>
<path d="M152.603 142.157H141.007L140.13 130.791H153.479L152.603 142.157Z" fill="#F0F0F0"/>
<path d="M154.342 132.115H139.264L138.835 128.278H154.775L154.342 132.115Z" fill="#F5F5F5"/>
<path d="M45.9758 27.9346H25.2373V50.7081H45.9758V27.9346Z" fill="#E0E0E0"/>
<path d="M48.2218 27.9346H26.7988V50.7081H48.2218V27.9346Z" fill="#F5F5F5"/>
<path d="M46.4277 48.914V29.7295H28.5937V48.914H46.4277Z" fill="white"/>
<path d="M42.1025 44.2587V34.376H32.9154V44.2587H42.1025Z" fill="#F5F5F5"/>
<path d="M151.718 30.5879H132.452V51.7445H151.718V30.5879Z" fill="#E0E0E0"/>
<path d="M153.805 30.5879H133.906V51.7445H153.805V30.5879Z" fill="#F5F5F5"/>
<path d="M152.141 50.0751V32.2559H135.576V50.0751H152.141Z" fill="white"/>
<path d="M143.856 46.3349C146.711 46.3349 149.025 44.0207 149.025 41.166C149.025 38.3113 146.711 35.9971 143.856 35.9971C141.002 35.9971 138.688 38.3113 138.688 41.166C138.688 44.0207 141.002 46.3349 143.856 46.3349Z" fill="#F5F5F5"/>
<path d="M67.5213 41.5137H52.1367V58.4079H67.5213V41.5137Z" fill="#E0E0E0"/>
<path d="M69.1864 41.5137H53.2949V58.4079H69.1864V41.5137Z" fill="#F5F5F5"/>
<path d="M67.8545 57.0759V42.8457H54.627V57.0759H67.8545Z" fill="white"/>
<path d="M61.2426 46.3604L57.624 52.6282H64.8612L61.2426 46.3604Z" fill="#F5F5F5"/>
<path d="M92.5 158.197C132.121 158.197 164.239 156.322 164.239 154.009C164.239 151.696 132.121 149.82 92.5 149.82C52.8795 149.82 20.7607 151.696 20.7607 154.009C20.7607 156.322 52.8795 158.197 92.5 158.197Z" fill="#F5F5F5"/>
<path d="M129.222 60.4693L125.552 58.9893C125.552 58.9893 120.709 67.8212 119.321 68.2689C117.434 68.8757 113.527 70.5629 111.211 70.8589C110.896 71.2289 110.382 72.3796 110.43 72.7977C113.542 73.8374 120.379 72.4573 121.844 71.3695C125.178 68.9016 129.222 60.4693 129.222 60.4693Z" fill="#E58A7B"/>
<path d="M130.351 58.4602C131.035 60.9873 127.328 66.0711 127.328 66.0711L122.47 63.3479C122.47 63.3479 123.38 61.2574 124.49 59.1299C126.27 55.6926 129.57 55.5779 130.351 58.4602Z" fill="#DAA520"/>
<path opacity="0.2" d="M130.351 58.4602C131.035 60.9873 127.328 66.0711 127.328 66.0711L122.47 63.3479C122.47 63.3479 123.38 61.2574 124.49 59.1299C126.27 55.6926 129.57 55.5779 130.351 58.4602Z" fill="black"/>
<path opacity="0.2" d="M124.397 64.4356L126.31 65.5086L126.647 59.6367C125.533 60.4914 124.749 63.0666 124.397 64.4356Z" fill="black"/>
<path d="M127.154 56.5583C127.154 56.5583 123.373 64.9721 125.578 80.6379H140.478C140.715 78.3513 139.931 67.1921 142.768 56.4177C141.134 56.0983 139.48 55.8869 137.818 55.785C135.709 55.6628 133.596 55.6628 131.487 55.785C130.026 55.9334 128.577 56.1919 127.154 56.5583Z" fill="#DAA520"/>
<path opacity="0.2" d="M127.154 56.5583C127.154 56.5583 123.373 64.9721 125.578 80.6379H140.478C140.715 78.3513 139.931 67.1921 142.768 56.4177C141.134 56.0983 139.48 55.8869 137.818 55.785C135.709 55.6628 133.596 55.6628 131.487 55.785C130.026 55.9334 128.577 56.1919 127.154 56.5583Z" fill="black"/>
<g style="mix-blend-mode:multiply">
<path d="M123.698 154.342C123.676 154.741 129.326 155.063 136.315 155.063C143.305 155.063 148.995 154.741 149.017 154.342C149.04 153.942 143.393 153.624 136.4 153.624C129.407 153.624 123.724 153.946 123.698 154.342Z" fill="#E8ECF1"/>
</g>
<path d="M133.645 143.842L131.002 144.865L133.278 150.746L135.921 149.723L133.645 143.842Z" fill="#E58A7B"/>
<path d="M145.428 151.496H142.642L141.621 145.047H144.407L145.428 151.496Z" fill="#E58A7B"/>
<path d="M142.45 151.175H145.58C145.634 151.175 145.687 151.194 145.728 151.23C145.769 151.265 145.797 151.314 145.806 151.367L146.209 153.843C146.217 153.905 146.212 153.968 146.194 154.028C146.176 154.088 146.145 154.143 146.104 154.19C146.063 154.237 146.011 154.275 145.954 154.3C145.897 154.326 145.835 154.339 145.772 154.338C144.681 154.32 144.155 154.253 142.779 154.253C141.932 154.253 140.189 154.342 139.012 154.342C137.836 154.342 137.758 153.188 138.243 153.08C140.418 152.61 141.262 151.97 141.987 151.349C142.115 151.236 142.279 151.175 142.45 151.175Z" fill="#263238"/>
<path d="M133.2 150.22L136.16 149.354C136.213 149.339 136.269 149.342 136.32 149.364C136.37 149.386 136.412 149.424 136.437 149.472L137.547 151.692C137.573 151.748 137.586 151.81 137.586 151.872C137.586 151.934 137.572 151.995 137.545 152.051C137.519 152.107 137.481 152.156 137.433 152.196C137.385 152.236 137.33 152.265 137.27 152.28C136.193 152.576 135.472 152.758 134.125 153.15C133.196 153.42 132.249 153.86 131.331 154.153C130.695 154.356 129.2 154.364 128.427 154.364C127.284 154.364 127.028 153.157 127.52 153.102C128.76 152.965 128.926 153.028 129.611 152.684C130.731 152.194 131.746 151.493 132.601 150.619C132.762 150.435 132.968 150.298 133.2 150.22Z" fill="#263238"/>
<path d="M111.677 70.8435L108.613 69.5596L107.352 72.9562C108.607 73.1474 109.885 73.1474 111.14 72.9562L111.677 70.8435Z" fill="#E58A7B"/>
<path d="M106.334 69.4707L106.253 71.7277L107.352 72.9487L108.614 69.5521L106.334 69.4707Z" fill="#E58A7B"/>
<path d="M134.006 144.342L131.355 145.365L132.529 148.406L135.18 147.383L134.006 144.342Z" fill="#CF6F64"/>
<path d="M144.407 145.047H141.621L142.15 148.373H144.936L144.407 145.047Z" fill="#CF6F64"/>
<path opacity="0.2" d="M125.104 76.4006C125.16 77.0703 125.223 77.7548 125.304 78.4578L136.382 74.8614C138.112 74.3487 139.616 73.2616 140.644 71.7793C140.689 70.7914 140.744 69.7517 140.829 68.6676C140.866 68.1422 140.911 67.602 140.959 67.0544C141.007 66.5068 141.074 65.9 141.144 65.3154L125.104 76.4006Z" fill="black"/>
<path d="M128.723 64.2651L128.353 64.2207C128.571 62.3707 129.951 60.9129 131.405 60.9499V61.3199C130.132 61.294 128.919 62.6075 128.723 64.2651Z" fill="white"/>
<path d="M130.695 67.6801H130.632V67.3101C131.905 67.3582 133.1 66.0299 133.296 64.376L133.666 64.4204C133.47 66.2297 132.134 67.6801 130.695 67.6801Z" fill="white"/>
<path d="M137.611 48.6543C137.089 50.693 136.475 54.4263 137.818 55.7842C137.818 55.7842 136.878 57.8525 133.093 57.8525C129.634 57.8525 131.487 55.7842 131.487 55.7842C133.789 55.244 133.829 53.5642 133.526 51.9732L137.611 48.6543Z" fill="#E58A7B"/>
<path d="M135.945 50.0088L133.529 51.9735C133.604 52.3391 133.648 52.7105 133.659 53.0835C134.365 53.7865 135.783 52.0068 135.927 51.0966C136 50.7382 136.006 50.3694 135.945 50.0088Z" fill="#CF6F64"/>
<path d="M129.374 48.6292C129.543 48.9206 129.769 49.1742 130.04 49.3741C130.31 49.574 130.619 49.7159 130.947 49.791C131.835 49.9871 132.279 49.1694 132.035 48.348C131.816 47.608 131.088 46.6127 130.185 46.7829C129.991 46.8227 129.81 46.9083 129.657 47.0325C129.503 47.1567 129.382 47.3159 129.302 47.4967C129.223 47.6775 129.188 47.8746 129.201 48.0717C129.213 48.2687 129.273 48.4599 129.374 48.6292Z" fill="#CF6F64"/>
<path d="M130.843 42.1054C129.459 42.7381 128.971 48.2363 130.71 49.0503C132.449 49.8643 133.462 40.9029 130.843 42.1054Z" fill="#263238"/>
<path d="M138.033 45.5874C137.7 48.3476 137.663 49.9719 136.183 51.3853C135.724 51.8544 135.145 52.1875 134.509 52.3481C133.873 52.5086 133.205 52.4902 132.578 52.295C131.952 52.0998 131.392 51.7353 130.96 51.2417C130.528 50.7482 130.24 50.1449 130.129 49.4983C129.682 47.0193 130.3 42.9234 133.067 41.8245C133.649 41.568 134.288 41.4718 134.919 41.5457C135.551 41.6196 136.151 41.8609 136.657 42.2448C137.164 42.6287 137.558 43.141 137.8 43.7288C138.042 44.3165 138.122 44.9582 138.033 45.5874Z" fill="#E58A7B"/>
<path d="M133.485 43.534C135.535 43.0123 137.041 42.6571 136.501 44.3628C135.787 46.642 134.928 48.8471 136.079 48.9471C136.782 49.0099 139.89 47.6928 139.494 46.3571C139.15 45.1953 140.604 44.8771 140.863 44.2888C141.821 42.1575 139.08 42.4388 139.568 41.1438C140.056 39.8487 137.348 37.762 135.868 38.8017C133.459 40.4815 129.326 40.4556 131.498 37.6917C133.056 35.7196 130.277 36.1228 130.277 36.1228C130.277 36.1228 131.957 37.1182 129.13 38.6574C126.141 40.3002 128.882 44.7143 133.485 43.534Z" fill="#263238"/>
<path d="M139.12 48.6292C138.715 49.2147 138.107 49.6289 137.414 49.791C136.5 49.9871 136.149 49.1694 136.493 48.348C136.8 47.608 137.644 46.6127 138.517 46.7829C139.39 46.9531 139.59 47.904 139.12 48.6292Z" fill="#E58A7B"/>
<path d="M125.578 80.6377C125.578 80.6377 123.076 103.023 122.88 111.518C122.681 120.353 131.357 147.922 131.357 147.922L135.797 146.072C135.797 146.072 130.617 120.883 131.357 112.206C132.141 102.745 135.383 80.6525 135.383 80.6525L125.578 80.6377Z" fill="#DAA520"/>
<path opacity="0.2" d="M131.794 86.783C129.8 90.9196 131.143 99.1003 132.223 103.947C132.634 100.525 133.122 96.81 133.585 93.3727C133.54 88.0891 133.13 84.008 131.794 86.783Z" fill="black"/>
<path d="M135.601 144.606C135.623 144.606 136.127 146.02 136.127 146.02L131.006 148.173L130.199 146.671L135.601 144.606Z" fill="#DAA520"/>
<path d="M130.865 80.6377C130.865 80.6377 132.778 101.927 134.044 109.901C135.435 118.637 140.889 147.73 140.889 147.73H145.991C145.991 147.73 142.935 119.343 142.357 110.693C141.728 101.31 140.478 80.6377 140.478 80.6377H130.865Z" fill="#DAA520"/>
<path d="M146.069 146.401C146.091 146.401 146.239 147.826 146.239 147.826H140.63L140.23 146.19L146.069 146.401Z" fill="#DAA520"/>
<path opacity="0.2" d="M144.115 144.714C144.103 144.714 144.092 144.71 144.083 144.702C144.074 144.695 144.068 144.685 144.067 144.673C144.037 144.414 141.281 118.773 140.763 111.003C140.2 102.575 139.068 83.8784 139.057 83.6897C139.056 83.6836 139.057 83.6774 139.059 83.6716C139.061 83.6658 139.064 83.6604 139.068 83.6559C139.073 83.6514 139.078 83.6478 139.083 83.6453C139.089 83.6428 139.095 83.6416 139.101 83.6416C139.113 83.6416 139.125 83.6461 139.134 83.6544C139.143 83.6626 139.148 83.6739 139.149 83.686C139.149 83.8747 140.293 102.556 140.855 110.999C141.373 118.769 144.129 144.392 144.155 144.669C144.156 144.676 144.156 144.682 144.155 144.688C144.153 144.694 144.15 144.699 144.147 144.704C144.143 144.709 144.138 144.713 144.132 144.716C144.127 144.719 144.121 144.721 144.115 144.721V144.714Z" fill="black"/>
<path d="M133.799 46.3572C133.799 46.5829 133.658 46.7642 133.51 46.7642C133.362 46.7642 133.255 46.5829 133.27 46.3572C133.285 46.1315 133.411 45.9502 133.559 45.9502C133.707 45.9502 133.814 46.1352 133.799 46.3572Z" fill="#263238"/>
<path d="M131.261 46.3572C131.261 46.5829 131.117 46.7642 130.973 46.7642C130.828 46.7642 130.717 46.5829 130.728 46.3572C130.739 46.1315 130.873 45.9502 131.021 45.9502C131.169 45.9502 131.276 46.1352 131.261 46.3572Z" fill="#263238"/>
<path d="M132.06 46.4717C131.751 47.1609 131.353 47.8065 130.876 48.392C131.246 48.762 131.938 48.5918 131.938 48.5918L132.06 46.4717Z" fill="#DF5753"/>
<path d="M132.127 49.5356C132.119 49.5356 132.11 49.5339 132.103 49.5305C132.095 49.5271 132.088 49.5221 132.082 49.5159C132.076 49.5097 132.071 49.5023 132.068 49.4942C132.065 49.4862 132.064 49.4776 132.065 49.469C132.066 49.451 132.073 49.4341 132.086 49.4217C132.1 49.4093 132.117 49.4024 132.135 49.4024C132.418 49.4044 132.698 49.3429 132.954 49.2225C133.21 49.1022 133.436 48.9259 133.615 48.7068C133.628 48.6956 133.644 48.6895 133.661 48.6895C133.678 48.6895 133.695 48.6956 133.707 48.7068C133.719 48.7192 133.726 48.7358 133.726 48.7531C133.726 48.7703 133.719 48.7869 133.707 48.7993C133.516 49.0322 133.274 49.2192 133.001 49.3466C132.728 49.474 132.429 49.5386 132.127 49.5356Z" fill="#263238"/>
<path d="M134.251 45.6763C134.233 45.6854 134.213 45.6901 134.193 45.6901C134.173 45.6901 134.154 45.6854 134.136 45.6763C133.998 45.5868 133.84 45.5311 133.676 45.5138C133.512 45.4964 133.347 45.5179 133.192 45.5764C133.177 45.5839 133.161 45.5883 133.144 45.5894C133.128 45.5905 133.111 45.5882 133.095 45.5827C133.079 45.5772 133.064 45.5685 133.052 45.5573C133.039 45.546 133.029 45.5324 133.022 45.5172C133.009 45.4842 133.008 45.4473 133.021 45.4141C133.034 45.3809 133.06 45.3542 133.093 45.3396C133.286 45.2606 133.496 45.2294 133.704 45.2487C133.912 45.2681 134.112 45.3373 134.288 45.4506C134.302 45.4602 134.314 45.4726 134.323 45.4869C134.333 45.5013 134.339 45.5174 134.342 45.5343C134.345 45.5511 134.345 45.5684 134.341 45.5852C134.338 45.602 134.331 45.6178 134.321 45.6319C134.302 45.6531 134.278 45.6685 134.251 45.6763Z" fill="#263238"/>
<path d="M130.281 44.9363C130.261 44.9315 130.243 44.9213 130.229 44.9067C130.217 44.8947 130.207 44.8803 130.201 44.8644C130.194 44.8485 130.19 44.8314 130.19 44.8142C130.19 44.797 130.194 44.7799 130.201 44.764C130.207 44.7482 130.217 44.7338 130.229 44.7217C130.371 44.5627 130.548 44.4385 130.745 44.3589C130.943 44.2793 131.156 44.2465 131.369 44.2629C131.386 44.2655 131.402 44.2716 131.417 44.2808C131.431 44.29 131.444 44.3021 131.454 44.3163C131.463 44.3305 131.47 44.3466 131.473 44.3635C131.476 44.3804 131.476 44.3978 131.472 44.4146C131.465 44.4489 131.444 44.4791 131.416 44.4995C131.387 44.5199 131.352 44.5292 131.317 44.5256C131.149 44.515 130.981 44.5428 130.825 44.6069C130.669 44.671 130.53 44.7698 130.418 44.8956C130.401 44.9143 130.379 44.928 130.355 44.9352C130.331 44.9424 130.305 44.9428 130.281 44.9363Z" fill="#263238"/>
<path d="M144.201 60.0581L140.352 59.0332C140.352 59.0332 136.578 68.3239 135.243 68.927C133.43 69.7558 128.838 72.627 126.884 73.9849C126.777 74.4474 126.862 75.6721 127.106 76.0088C130.436 75.402 136.812 72.9489 138.144 71.702C141.181 68.8567 144.201 60.0581 144.201 60.0581Z" fill="#E58A7B"/>
<path d="M141.514 151.663C141.327 151.678 141.14 151.627 140.985 151.519C140.938 151.476 140.902 151.421 140.882 151.36C140.862 151.299 140.858 151.234 140.871 151.171C140.873 151.131 140.886 151.093 140.908 151.061C140.93 151.028 140.961 151.002 140.996 150.986C141.307 150.827 142.177 151.378 142.277 151.441C142.288 151.448 142.296 151.458 142.301 151.47C142.305 151.482 142.306 151.495 142.302 151.507C142.299 151.52 142.293 151.532 142.284 151.542C142.275 151.552 142.263 151.559 142.251 151.563C142.009 151.622 141.763 151.656 141.514 151.663ZM141.144 151.086C141.116 151.079 141.087 151.079 141.059 151.086C141.045 151.093 141.033 151.104 141.025 151.118C141.018 151.132 141.014 151.147 141.015 151.163C141.005 151.206 141.007 151.251 141.02 151.293C141.033 151.336 141.057 151.374 141.089 151.404C141.233 151.533 141.596 151.548 142.073 151.456C141.789 151.268 141.469 151.142 141.133 151.086H141.144Z" fill="#DAA520"/>
<path d="M142.232 151.563C142.222 151.566 142.212 151.566 142.202 151.563C141.924 151.408 141.403 150.797 141.48 150.487C141.492 150.437 141.52 150.393 141.559 150.362C141.599 150.33 141.648 150.313 141.699 150.313C141.748 150.306 141.799 150.31 141.847 150.325C141.895 150.34 141.939 150.364 141.976 150.398C142.283 150.66 142.302 151.467 142.302 151.508C142.304 151.52 142.301 151.532 142.295 151.543C142.289 151.554 142.28 151.562 142.269 151.567C142.256 151.569 142.243 151.568 142.232 151.563ZM141.736 150.435H141.71C141.625 150.435 141.614 150.483 141.61 150.501C141.566 150.683 141.895 151.145 142.169 151.363C142.167 151.051 142.071 150.746 141.891 150.49C141.848 150.453 141.793 150.433 141.736 150.435Z" fill="#DAA520"/>
<path d="M131.69 151.2C131.464 151.279 131.217 151.279 130.991 151.2C130.939 151.172 130.896 151.132 130.864 151.083C130.832 151.034 130.814 150.977 130.809 150.919C130.805 150.883 130.809 150.845 130.823 150.811C130.837 150.777 130.859 150.746 130.887 150.723C131.183 150.457 132.393 150.723 132.53 150.775C132.543 150.778 132.554 150.786 132.562 150.797C132.571 150.807 132.575 150.821 132.574 150.834C132.575 150.848 132.571 150.862 132.564 150.873C132.557 150.885 132.546 150.895 132.534 150.901C132.261 151.024 131.979 151.124 131.69 151.2ZM131.087 150.76C131.045 150.769 131.005 150.788 130.972 150.816C130.96 150.824 130.951 150.836 130.946 150.85C130.941 150.864 130.94 150.879 130.943 150.893C130.945 150.932 130.957 150.97 130.978 151.003C130.998 151.036 131.027 151.063 131.061 151.082C131.257 151.186 131.712 151.104 132.3 150.856C131.904 150.756 131.494 150.724 131.087 150.76Z" fill="#DAA520"/>
<path d="M132.523 150.901H132.494C132.124 150.834 131.384 150.409 131.361 150.09C131.361 150.016 131.395 149.913 131.572 149.854C131.632 149.832 131.696 149.823 131.759 149.827C131.823 149.831 131.885 149.847 131.942 149.876C132.342 150.072 132.553 150.782 132.564 150.816C132.566 150.827 132.566 150.838 132.563 150.85C132.56 150.861 132.554 150.871 132.545 150.879C132.54 150.888 132.532 150.895 132.523 150.901ZM131.646 149.965H131.609C131.495 150.005 131.495 150.053 131.495 150.068C131.495 150.261 132.031 150.612 132.405 150.731C132.319 150.433 132.136 150.173 131.887 149.991C131.812 149.953 131.727 149.944 131.646 149.965Z" fill="#DAA520"/>
<path d="M127.198 73.7666L123.339 75.5426L122.892 76.6526L124.316 77.6109C124.316 77.6109 126.98 77.3223 127.739 75.6092L127.198 73.7666Z" fill="#E58A7B"/>
<path d="M127.361 76.0716C127.275 75.3301 127.03 74.6158 126.644 73.9774L127.254 73.5186C127.713 74.2542 128.006 75.0813 128.112 75.9421L127.361 76.0716Z" fill="#263238"/>
<path d="M128.02 74.2917C128.101 74.42 128.141 74.5703 128.135 74.7222C128.128 74.8741 128.074 75.0202 127.981 75.1407C127.888 75.2611 127.761 75.3499 127.616 75.3952C127.47 75.4405 127.315 75.4399 127.17 75.3936C127.025 75.3473 126.898 75.2575 126.806 75.1364C126.714 75.0154 126.662 74.8689 126.656 74.7169C126.65 74.565 126.691 74.4149 126.774 74.2872C126.856 74.1595 126.976 74.0603 127.117 74.0031C127.275 73.9225 127.459 73.9076 127.628 73.9617C127.797 74.0157 127.938 74.1343 128.02 74.2917Z" fill="#263238"/>
<path d="M120.731 76.9786L121.246 77.4966L124.709 76.0166L123.34 75.543L120.731 76.9786Z" fill="#E58A7B"/>
<path opacity="0.2" d="M135.601 144.606C135.623 144.606 136.127 146.02 136.127 146.02L131.006 148.173L130.199 146.671L135.601 144.606Z" fill="black"/>
<path opacity="0.2" d="M146.069 146.401C146.091 146.401 146.239 147.826 146.239 147.826H140.63L140.23 146.19L146.069 146.401Z" fill="black"/>
<path d="M145.203 58.9925C146.22 62.2744 142.243 66.7625 142.243 66.7625L136.748 64.5203C137.399 62.6234 138.15 60.7622 138.998 58.9444C140.685 55.3073 144.174 55.681 145.203 58.9925Z" fill="#DAA520"/>
<path opacity="0.2" d="M145.203 58.9925C146.22 62.2744 142.243 66.7625 142.243 66.7625L136.748 64.5203C137.399 62.6234 138.15 60.7622 138.998 58.9444C140.685 55.3073 144.174 55.681 145.203 58.9925Z" fill="black"/>
<path d="M90.6055 26.1113H88.2412V26.4924H90.6055V26.1113Z" fill="#DAA520"/>
<path d="M121.211 41.1948L120.925 47.5449L121.306 47.5621L121.592 41.2119L121.211 41.1948Z" fill="#DAA520"/>
<path d="M120.476 27.8203H76.8155L72.7529 118.737H116.413L120.476 27.8203Z" fill="#DAA520"/>
<path opacity="0.56" d="M119.173 29.0713H75.5128L71.4502 119.988H115.11L119.173 29.0713Z" fill="#FAFAFA"/>
<path opacity="0.07" d="M117.871 30.3184H74.2108L70.1445 121.235H113.805L117.871 30.3184Z" fill="#DAA520"/>
<path d="M112.901 69.9707H75.635L75.3242 76.9267H112.591L112.901 69.9707Z" fill="white"/>
<path d="M96.1301 64.8945H75.8615L75.7246 68.0062H95.9932L96.1301 64.8945Z" fill="#DAA520"/>
<path d="M112.062 88.7451H74.7952L74.4844 95.7011H111.751L112.062 88.7451Z" fill="white"/>
<path opacity="0.47" d="M105.228 105.096H80.1676L79.7939 113.432H104.854L105.228 105.096Z" fill="#DAA520"/>
<path d="M103.552 114.726H78.4921C78.4812 114.729 78.4697 114.729 78.4588 114.726C78.4551 114.715 78.4551 114.703 78.4588 114.693L78.8288 106.353C78.8288 106.347 78.8299 106.341 78.8322 106.336C78.8345 106.331 78.8378 106.326 78.842 106.323C78.8462 106.319 78.8511 106.316 78.8565 106.314C78.8619 106.312 78.8676 106.312 78.8732 106.312H103.933C103.938 106.31 103.943 106.309 103.948 106.309C103.953 106.309 103.958 106.31 103.963 106.312C103.966 106.317 103.967 106.322 103.967 106.327C103.967 106.332 103.966 106.337 103.963 106.342L103.6 114.7C103.596 114.709 103.589 114.716 103.58 114.72C103.572 114.725 103.562 114.727 103.552 114.726ZM78.5365 114.637H103.508L103.878 106.386H78.9065L78.5365 114.637Z" fill="white"/>
<path d="M91.7521 83.6689H75.0207L74.8838 86.7843H91.6115L91.7521 83.6689Z" fill="#DAA520"/>
<path d="M104.75 47.5013C104.655 49.5257 103.935 51.4709 102.69 53.0698C101.768 54.2775 100.581 55.258 99.2216 55.9359C97.8618 56.6139 96.3648 56.9713 94.8455 56.9807C93.6177 56.99 92.401 56.7479 91.2704 56.2693C90.1397 55.7906 89.119 55.0855 88.2711 54.1975C87.4233 53.3094 86.7662 52.2571 86.3404 51.1055C85.9146 49.9539 85.7291 48.7273 85.7953 47.5013C85.9254 44.9572 87.0225 42.5589 88.8623 40.7968C90.7021 39.0348 93.1454 38.0421 95.6928 38.0219C96.9215 38.0104 98.1395 38.251 99.2716 38.7289C100.404 39.2067 101.426 39.9116 102.275 40.8C103.123 41.6884 103.781 42.7415 104.207 43.8941C104.633 45.0467 104.818 46.2744 104.75 47.5013Z" fill="white"/>
<path d="M105.643 40.0044C105.619 40.5427 105.427 41.06 105.095 41.4844C104.849 41.8052 104.534 42.0656 104.172 42.2458C103.81 42.4259 103.412 42.5211 103.008 42.5241C102.617 42.5265 102.231 42.4329 101.884 42.2517C101.537 42.0705 101.239 41.807 101.018 41.4844C100.724 41.0484 100.579 40.5294 100.603 40.0044C100.639 39.3289 100.931 38.6925 101.42 38.225C101.909 37.7575 102.558 37.494 103.234 37.4884C103.56 37.4854 103.884 37.5493 104.184 37.6761C104.485 37.8028 104.757 37.9899 104.982 38.2256C105.208 38.4613 105.383 38.7407 105.497 39.0466C105.61 39.3526 105.66 39.6785 105.643 40.0044Z" fill="#DAA520"/>
<path d="M79.6496 73.4489C79.6318 73.7471 79.5016 74.0274 79.2853 74.2334C79.0691 74.4394 78.7827 74.5557 78.4841 74.5589C78.3398 74.5606 78.1968 74.5327 78.0638 74.477C77.9308 74.4212 77.8107 74.3388 77.7108 74.2348C77.6109 74.1307 77.5334 74.0073 77.4832 73.8721C77.4329 73.737 77.4109 73.5929 77.4185 73.4489C77.4345 73.1501 77.5641 72.8688 77.7808 72.6624C77.9974 72.4561 78.2848 72.3404 78.584 72.3389C78.728 72.3377 78.8708 72.366 79.0035 72.4219C79.1363 72.4779 79.2562 72.5603 79.356 72.6642C79.4558 72.7682 79.5333 72.8914 79.5837 73.0263C79.6342 73.1612 79.6566 73.305 79.6496 73.4489Z" fill="#263238"/>
<path d="M84.6371 73.4489C84.6202 73.7474 84.4903 74.0282 84.2738 74.2344C84.0573 74.4406 83.7705 74.5566 83.4716 74.5589C83.3277 74.5602 83.185 74.5319 83.0525 74.4759C82.9199 74.4199 82.8002 74.3374 82.7007 74.2334C82.6013 74.1294 82.5241 74.0062 82.4741 73.8713C82.424 73.7364 82.4021 73.5926 82.4097 73.4489C82.4257 73.1508 82.5548 72.87 82.7706 72.6637C82.9865 72.4575 83.2729 72.3413 83.5715 72.3389C83.7157 72.3372 83.8587 72.3651 83.9917 72.4209C84.1247 72.4766 84.2449 72.5591 84.3447 72.6631C84.4446 72.7671 84.5221 72.8905 84.5724 73.0257C84.6226 73.1609 84.6447 73.3049 84.6371 73.4489Z" fill="#263238"/>
<path d="M89.6289 73.4489C89.6119 73.7474 89.4821 74.0282 89.2656 74.2344C89.0491 74.4406 88.7623 74.5566 88.4634 74.5589C88.3193 74.5601 88.1765 74.5319 88.0438 74.4759C87.911 74.42 87.7911 74.3375 87.6913 74.2336C87.5915 74.1297 87.5141 74.0065 87.4636 73.8716C87.4131 73.7366 87.3907 73.5928 87.3978 73.4489C87.4147 73.1505 87.5445 72.8697 87.761 72.6635C87.9775 72.4573 88.2643 72.3413 88.5633 72.3389C88.7075 72.3372 88.8505 72.3651 88.9835 72.4209C89.1165 72.4766 89.2366 72.5591 89.3365 72.6631C89.4364 72.7671 89.5139 72.8905 89.5641 73.0257C89.6144 73.1609 89.6365 73.3049 89.6289 73.4489Z" fill="#263238"/>
<path d="M78.8095 92.2233C78.7917 92.5215 78.6616 92.8018 78.4453 93.0078C78.229 93.2138 77.9427 93.3301 77.644 93.3333C77.5 93.3345 77.3572 93.3063 77.2244 93.2503C77.0917 93.1944 76.9717 93.1119 76.872 93.008C76.7722 92.9041 76.6947 92.7809 76.6442 92.6459C76.5938 92.511 76.5714 92.3672 76.5784 92.2233C76.5953 91.9249 76.7252 91.644 76.9417 91.4379C77.1582 91.2317 77.445 91.1157 77.7439 91.1133C77.888 91.1121 78.0308 91.1404 78.1635 91.1963C78.2963 91.2523 78.4162 91.3347 78.516 91.4386C78.6157 91.5426 78.6932 91.6658 78.7437 91.8007C78.7942 91.9356 78.8166 92.0794 78.8095 92.2233Z" fill="#263238"/>
<path d="M83.7972 92.2233C83.7804 92.5211 83.651 92.8014 83.4353 93.0075C83.2196 93.2136 82.9337 93.33 82.6354 93.3333C82.4912 93.335 82.3482 93.3072 82.2152 93.2514C82.0822 93.1956 81.962 93.1132 81.8622 93.0092C81.7623 92.9051 81.6848 92.7817 81.6345 92.6465C81.5842 92.5114 81.5622 92.3673 81.5698 92.2233C81.5867 91.9249 81.7166 91.644 81.9331 91.4379C82.1496 91.2317 82.4364 91.1157 82.7353 91.1133C82.8792 91.1121 83.0218 91.1404 83.1544 91.1963C83.287 91.2523 83.4067 91.3348 83.5062 91.4388C83.6056 91.5428 83.6828 91.6661 83.7328 91.801C83.7829 91.9359 83.8048 92.0796 83.7972 92.2233Z" fill="#263238"/>
<path d="M88.7996 92.2234C88.7827 92.5218 88.6528 92.8027 88.4363 93.0088C88.2198 93.215 87.933 93.331 87.6341 93.3334C87.4902 93.334 87.3476 93.3054 87.2151 93.2493C87.0826 93.1931 86.9629 93.1107 86.8632 93.0069C86.7636 92.9031 86.6861 92.7801 86.6354 92.6454C86.5847 92.5107 86.562 92.3671 86.5685 92.2234C86.5862 91.9252 86.7164 91.6449 86.9327 91.4389C87.149 91.2329 87.4353 91.1166 87.734 91.1134C87.8782 91.1116 88.0212 91.1395 88.1542 91.1953C88.2872 91.251 88.4074 91.3335 88.5072 91.4375C88.6071 91.5415 88.6846 91.665 88.7349 91.8001C88.7852 91.9353 88.8072 92.0793 88.7996 92.2234Z" fill="#263238"/>
<path d="M93.78 92.2233C93.7623 92.5215 93.6321 92.8018 93.4158 93.0078C93.1995 93.2138 92.9132 93.3301 92.6145 93.3333C92.4706 93.334 92.3281 93.3054 92.1956 93.2492C92.0631 93.1931 91.9434 93.1106 91.8437 93.0068C91.7441 92.903 91.6665 92.78 91.6159 92.6453C91.5652 92.5107 91.5424 92.3671 91.5489 92.2233C91.5667 91.9252 91.6969 91.6448 91.9132 91.4389C92.1294 91.2329 92.4158 91.1165 92.7144 91.1133C92.8585 91.1121 93.0013 91.1404 93.134 91.1963C93.2668 91.2523 93.3867 91.3347 93.4865 91.4386C93.5863 91.5426 93.6638 91.6658 93.7142 91.8007C93.7647 91.9356 93.7871 92.0794 93.78 92.2233Z" fill="#263238"/>
<path d="M98.7902 92.2233C98.7724 92.5215 98.6423 92.8018 98.426 93.0078C98.2097 93.2138 97.9233 93.3301 97.6247 93.3333C97.4805 93.335 97.3375 93.3072 97.2044 93.2514C97.0714 93.1956 96.9513 93.1132 96.8514 93.0092C96.7515 92.9051 96.6741 92.7817 96.6238 92.6465C96.5735 92.5114 96.5515 92.3673 96.5591 92.2233C96.576 91.9249 96.7059 91.644 96.9224 91.4379C97.1388 91.2317 97.4257 91.1157 97.7246 91.1133C97.8686 91.1121 98.0114 91.1404 98.1442 91.1963C98.2769 91.2523 98.3969 91.3347 98.4966 91.4386C98.5964 91.5426 98.6739 91.6658 98.7244 91.8007C98.7748 91.9356 98.7972 92.0794 98.7902 92.2233Z" fill="#263238"/>
<path d="M98.0325 47.007C99.5811 45.4926 99.6633 43.0651 98.216 41.5851C96.7687 40.1052 94.34 40.1331 92.7914 41.6475C91.2427 43.162 91.1606 45.5894 92.6078 47.0694C94.0551 48.5494 96.4838 48.5214 98.0325 47.007Z" fill="#DAA520"/>
<path d="M102.689 53.0694C101.767 54.2771 100.581 55.2576 99.2213 55.9355C97.8616 56.6135 96.3646 56.9709 94.8452 56.9803C93.3719 56.9928 91.9182 56.6426 90.6122 55.9605C89.3062 55.2785 88.1881 54.2856 87.3564 53.0694C89.1546 51.2786 91.9999 50.1094 95.1523 50.1094C98.3047 50.1094 101.05 51.2786 102.689 53.0694Z" fill="#DAA520"/>
<path opacity="0.1" d="M98.0325 47.007C99.5811 45.4926 99.6633 43.0651 98.216 41.5851C96.7687 40.1052 94.34 40.1331 92.7914 41.6475C91.2427 43.162 91.1606 45.5894 92.6078 47.0694C94.0551 48.5494 96.4838 48.5214 98.0325 47.007Z" fill="white"/>
<path opacity="0.1" d="M102.689 53.0694C101.767 54.2771 100.581 55.2576 99.2213 55.9355C97.8616 56.6135 96.3646 56.9709 94.8452 56.9803C93.3719 56.9928 91.9182 56.6426 90.6122 55.9605C89.3062 55.2785 88.1881 54.2856 87.3564 53.0694C89.1546 51.2786 91.9999 50.1094 95.1523 50.1094C98.3047 50.1094 101.05 51.2786 102.689 53.0694Z" fill="white"/>
<path d="M48.2521 78.6027C47.9006 79.3723 47.5306 80.2196 47.2087 81.041C46.8868 81.8624 46.5575 82.7097 46.2726 83.5533C45.6909 85.2158 45.2479 86.9237 44.948 88.6593L44.8666 89.2032C44.8589 89.2965 44.8676 89.3905 44.8925 89.4807C44.9798 89.7874 45.1174 90.0774 45.2995 90.3391C45.7747 91.0165 46.3259 91.6372 46.9423 92.1891C47.5923 92.7936 48.274 93.363 48.9847 93.8948C49.6951 94.4424 50.4425 94.9752 51.1788 95.4784L50.4869 96.7771C48.7288 96.0111 47.0599 95.0544 45.5104 93.9244C44.6837 93.3215 43.9377 92.6152 43.2904 91.8228C42.9068 91.3511 42.6076 90.8166 42.4061 90.2429C42.289 89.8845 42.229 89.5099 42.2285 89.1329C42.2285 89.0441 42.2285 88.9146 42.2285 88.8517V88.6704L42.2655 88.3004C42.4776 86.3727 42.883 84.4712 43.4754 82.6246C43.764 81.7144 44.0711 80.8079 44.4226 79.9236C44.7741 79.0393 45.1367 78.1735 45.5844 77.2744L48.2521 78.6027Z" fill="#E58A7B"/>
<path d="M50.657 95.2494L53.2728 93.9248L52.5957 96.796C52.5957 96.796 50.8012 97.2992 49.9688 96.426L50.657 95.2494Z" fill="#E58A7B"/>
<path d="M55.6667 94.3947L54.9711 96.7701L52.5957 96.796L53.2728 93.9248L55.6667 94.3947Z" fill="#E58A7B"/>
<path d="M59.359 64.75C59.4989 65.2628 59.6936 65.759 59.9399 66.23C59.8679 66.3116 59.7753 66.3722 59.6717 66.4054C59.5681 66.4386 59.4575 66.4432 59.3516 66.4187L59.359 64.75Z" fill="#DF5753"/>
<path d="M59.2814 64.7729C59.4347 64.7729 59.5589 64.5824 59.5589 64.3474C59.5589 64.1124 59.4347 63.9219 59.2814 63.9219C59.1281 63.9219 59.0039 64.1124 59.0039 64.3474C59.0039 64.5824 59.1281 64.7729 59.2814 64.7729Z" fill="#263238"/>
<path d="M59.2002 63.9364L59.7626 63.7773C59.7626 63.7773 59.4888 64.2139 59.2002 63.9364Z" fill="#263238"/>
<path d="M52.1334 67.4658C52.4701 69.1863 52.8068 72.3424 51.6006 73.4931C51.6006 73.4931 52.0742 75.2395 55.2747 75.2395C58.7934 75.2395 56.9545 73.4931 56.9545 73.4931C55.0342 73.0343 55.0823 71.6098 55.419 70.2704L52.1334 67.4658Z" fill="#E58A7B"/>
<path d="M51.1968 63.5444C51.3744 66.4193 51.3892 67.6403 52.8396 69.1166C55.0263 71.3366 58.5191 70.493 59.2036 67.6366C59.8215 65.0466 59.4293 60.7842 56.6136 59.6409C55.9955 59.3863 55.3228 59.2936 54.6589 59.3715C53.995 59.4494 53.3619 59.6954 52.8196 60.0862C52.2773 60.477 51.8437 60.9997 51.5597 61.6049C51.2757 62.21 51.1508 62.8776 51.1968 63.5444Z" fill="#E58A7B"/>
<path d="M51.4818 60.31C50.0388 60.8354 48.1148 60.4432 48.8696 64.8943C49.6688 69.6081 48.4404 71.1584 48.4404 71.1584C48.4404 71.1584 53.9127 72.3239 59.4997 71.0881C59.4997 71.0881 57.794 68.1059 58.2713 65.9081C58.8818 63.1331 58.4008 62.1082 58.4008 62.1082C58.4008 62.1082 53.5094 59.57 51.4818 60.31Z" fill="#263238"/>
<path d="M57.5869 65.0428C57.5884 65.5894 57.7449 66.1244 58.0383 66.5857C58.4305 67.1851 58.893 66.9557 59.0077 66.3193C59.1113 65.7606 59.0336 64.7727 58.5341 64.3879C58.0346 64.0031 57.5943 64.3805 57.5869 65.0428Z" fill="#E58A7B"/>
<path d="M50.2278 60.7949C49.8134 59.6294 51.7892 57.8349 55.9702 58.5749C60.1512 59.3149 60.3325 62.7966 60.3325 62.7966L59.4889 61.7902L59.5259 62.8484L55.2302 63.6735L50.2278 60.7949Z" fill="#263238"/>
<path d="M50.5831 73.6895C50.5584 73.5206 50.6006 73.3487 50.7009 73.2105C50.8011 73.0723 50.9513 72.9786 51.1196 72.9495C52.422 72.7349 55.3819 72.2984 56.8693 72.5056C57.9793 72.661 58.268 73.3047 58.3161 73.8338C58.3236 73.9265 58.3112 74.0197 58.2797 74.1071C58.2482 74.1946 58.1984 74.2743 58.1336 74.3409C58.0687 74.4075 57.9904 74.4594 57.9038 74.4932C57.8172 74.527 57.7244 74.5419 57.6315 74.5368L51.201 74.2482C51.0493 74.2406 50.905 74.1808 50.7924 74.079C50.6799 73.9772 50.6059 73.8396 50.5831 73.6895Z" fill="#DAA520"/>
<path opacity="0.6" d="M50.5831 73.6895C50.5584 73.5206 50.6006 73.3487 50.7009 73.2105C50.8011 73.0723 50.9513 72.9786 51.1196 72.9495C52.422 72.7349 55.3819 72.2984 56.8693 72.5056C57.9793 72.661 58.268 73.3047 58.3161 73.8338C58.3236 73.9265 58.3112 74.0197 58.2797 74.1071C58.2482 74.1946 58.1984 74.2743 58.1336 74.3409C58.0687 74.4075 57.9904 74.4594 57.9038 74.4932C57.8172 74.527 57.7244 74.5419 57.6315 74.5368L51.201 74.2482C51.0493 74.2406 50.905 74.1808 50.7924 74.079C50.6799 73.9772 50.6059 73.8396 50.5831 73.6895Z" fill="black"/>
<path d="M54.3008 138.328L56.6873 139.986L60.6796 134.573L58.2931 132.919L54.3008 138.328Z" fill="#E58A7B"/>
<path d="M48.7363 138.221L51.256 139.657L54.7895 133.933L52.2698 132.497L48.7363 138.221Z" fill="#E58A7B"/>
<path d="M60.6761 134.573L58.6189 137.363L56.2324 135.709L58.2896 132.919L60.6761 134.573Z" fill="#CF6F64"/>
<path d="M52.2667 132.497L54.7901 133.936L52.9697 136.885L50.4463 135.446L52.2667 132.497Z" fill="#CF6F64"/>
<path d="M56.3139 91.7598C56.3139 91.7598 65.6305 103.5 63.8804 114.729C62.4707 123.798 54.2937 136.078 54.2937 136.078L50.4494 134.169C53.1591 128.74 55.4715 123.121 57.3684 117.356C57.9534 115.567 58.1241 113.668 57.8677 111.803C57.6113 109.937 56.9345 108.155 55.8884 106.589C51.1672 99.6963 43.6044 103.8 48.6919 91.7598H56.3139Z" fill="#DAA520"/>
<path opacity="0.6" d="M56.3139 91.7598C56.3139 91.7598 65.6305 103.5 63.8804 114.729C62.4707 123.798 54.2937 136.078 54.2937 136.078L50.4494 134.169C53.1591 128.74 55.4715 123.121 57.3684 117.356C57.9534 115.567 58.1241 113.668 57.8677 111.803C57.6113 109.937 56.9345 108.155 55.8884 106.589C51.1672 99.6963 43.6044 103.8 48.6919 91.7598H56.3139Z" fill="black"/>
<path opacity="0.4" d="M60.8835 99.3009L59.5293 97.9541C59.5293 98.0614 62.1526 114.256 62.8889 118.807C63.3234 117.478 63.6561 116.117 63.8842 114.737C64.75 109.228 62.9407 103.6 60.8835 99.3009Z" fill="black"/>
<path d="M60.4729 91.7598C60.4729 91.7598 71.6913 106.515 72.0095 115.362C72.2722 122.762 59.7995 137.1 59.7995 137.1L56.1735 134.754C56.1735 134.754 63.4736 124.571 65.3125 116.254C64.6021 108.01 49.5801 91.7598 49.5801 91.7598H60.4729Z" fill="#DAA520"/>
<path opacity="0.6" d="M60.4729 91.7598C60.4729 91.7598 71.6913 106.515 72.0095 115.362C72.2722 122.762 59.7995 137.1 59.7995 137.1L56.1735 134.754C56.1735 134.754 63.4736 124.571 65.3125 116.254C64.6021 108.01 49.5801 91.7598 49.5801 91.7598H60.4729Z" fill="black"/>
<path d="M46.5936 74.1515C45.3948 74.4364 44.2441 78.795 44.2441 78.795L48.932 81.9252C48.932 81.9252 50.4934 78.4768 49.9458 76.9672C49.3797 75.3947 48.0995 73.7926 46.5936 74.1515Z" fill="#DAA520"/>
<path opacity="0.2" d="M47.5121 76.96L47.1865 80.7599L48.9292 81.9291C49.4104 80.8458 49.7667 79.7112 49.9911 78.5473L47.5121 76.96Z" fill="black"/>
<path d="M61.86 74.237C61.86 74.237 63.2437 74.7217 60.4725 91.7565H48.6843C48.8841 86.9465 48.8877 83.9865 46.5938 74.1519C48.2444 73.8118 49.9174 73.5916 51.5999 73.4933C53.3822 73.3655 55.1714 73.3655 56.9537 73.4933C59.2551 73.7042 61.86 74.237 61.86 74.237Z" fill="#DAA520"/>
<path d="M63.0595 76.9597C63.3259 77.6997 63.6071 78.4952 63.9031 79.2611C64.1991 80.027 64.4803 80.8151 64.78 81.5921L65.6865 83.9157L65.9159 84.4966L66.0343 84.7852L66.0898 84.9295C66.0898 84.9554 66.0898 84.9554 66.0898 84.9517C66.0222 84.8564 65.9336 84.7779 65.8308 84.7223C65.6844 84.6362 65.5194 84.5867 65.3498 84.578C65.2088 84.5737 65.0687 84.6002 64.9391 84.6557C64.7689 84.7334 64.7689 84.7667 64.7726 84.763C64.8033 84.7384 64.8307 84.7098 64.854 84.6779C65.0588 84.409 65.2361 84.1202 65.3831 83.8158C65.557 83.4754 65.7235 83.1128 65.89 82.7465C66.2156 82.0065 66.5153 81.2406 66.815 80.4673C67.1147 79.694 67.3996 78.9133 67.6771 78.1252L68.5207 75.7646L69.9452 76.1346C69.664 77.8218 69.3014 79.4646 68.8648 81.137C68.6539 81.9695 68.406 82.7946 68.1248 83.6271C67.9842 84.0452 67.8288 84.4596 67.6512 84.8851C67.4661 85.347 67.2381 85.7904 66.9704 86.2097C66.872 86.3509 66.7631 86.4845 66.6448 86.6093C66.4558 86.8134 66.2265 86.976 65.9714 87.0866C65.745 87.1838 65.4998 87.2293 65.2536 87.2198C64.9778 87.2096 64.7092 87.1294 64.4729 86.9867C64.1941 86.8128 63.9628 86.5726 63.7995 86.2874C63.744 86.1912 63.6959 86.095 63.6626 86.0247L63.5923 85.8841L63.4517 85.5955L63.1705 85.022C62.8005 84.2524 62.4305 83.4754 62.1086 82.6947C61.7867 81.914 61.4463 81.1222 61.1281 80.3267C60.8099 79.5312 60.525 78.7357 60.2549 77.8773L63.0595 76.9597Z" fill="#E58A7B"/>
<path d="M61.8599 74.2368C63.277 74.5735 64.8717 78.7619 64.8717 78.7619L60.6574 82.3472C60.6574 82.3472 57.9305 77.7814 58.4818 76.2755C59.0553 74.7067 60.0099 73.7965 61.8599 74.2368Z" fill="#DAA520"/>
<path d="M69.1898 74.4409L70.6698 73.2051L71.6984 74.8072L70.9399 76.1429C70.9399 76.1429 69.7337 77.2529 68.6681 76.6868C68.499 76.3066 68.4584 75.8817 68.5525 75.4764C68.6467 75.0711 68.8704 74.7076 69.1898 74.4409Z" fill="#E58A7B"/>
<path d="M73.3417 73.2088L73.2307 73.6121L70.8886 74.0043L70.6592 73.2051L73.3417 73.2088Z" fill="#E58A7B"/>
<path d="M60.0877 137.289L55.8623 134.558L56.6208 133.241L61.3679 136.161L60.0877 137.289Z" fill="#DAA520"/>
<path d="M52.9104 139.464C52.5396 139.419 52.1834 139.293 51.867 139.094C51.8539 139.09 51.8426 139.081 51.8346 139.07C51.8266 139.059 51.8223 139.045 51.8223 139.032C51.8223 139.018 51.8266 139.004 51.8346 138.993C51.8426 138.982 51.8539 138.973 51.867 138.969C51.9817 138.932 52.977 138.625 53.2656 138.861C53.298 138.888 53.3227 138.923 53.337 138.963C53.3513 139.003 53.3547 139.046 53.347 139.087C53.3418 139.154 53.3198 139.218 53.2829 139.274C53.2459 139.329 53.1954 139.375 53.1361 139.405C53.0668 139.443 52.9893 139.463 52.9104 139.464ZM52.0779 139.057C52.5404 139.294 52.9104 139.379 53.088 139.291C53.1266 139.269 53.1592 139.238 53.1825 139.201C53.2058 139.163 53.2191 139.12 53.2212 139.076C53.2212 139.017 53.2212 138.991 53.1879 138.976C53.0325 138.85 52.4775 138.946 52.0705 139.057H52.0779Z" fill="#263238"/>
<path d="M51.8922 139.12C51.8727 139.12 51.8541 139.112 51.8404 139.098C51.8349 139.088 51.832 139.076 51.832 139.065C51.832 139.053 51.8349 139.042 51.8404 139.031C51.8404 138.998 52.0809 138.195 52.4583 138.014C52.5065 137.992 52.5589 137.98 52.6119 137.98C52.6649 137.98 52.7172 137.992 52.7654 138.014C52.8174 138.03 52.8624 138.064 52.8932 138.108C52.924 138.153 52.939 138.207 52.9356 138.262C52.9097 138.595 52.2326 139.054 51.9218 139.131L51.8922 139.12ZM52.61 138.11C52.574 138.111 52.5387 138.12 52.5064 138.136C52.277 138.247 52.0883 138.68 51.9958 138.943C52.3214 138.806 52.7691 138.443 52.7839 138.24C52.7839 138.206 52.7839 138.166 52.6988 138.129C52.6711 138.114 52.6411 138.104 52.61 138.099V138.11Z" fill="#263238"/>
<path d="M58.1901 141.063C57.772 141.063 57.1911 140.526 56.8729 140.197C56.8647 140.186 56.8604 140.172 56.8604 140.158C56.8604 140.144 56.8647 140.13 56.8729 140.119C56.8802 140.107 56.8905 140.097 56.9029 140.091C56.9153 140.084 56.9292 140.081 56.9432 140.082C57.0912 140.082 58.3751 140.275 58.5564 140.637C58.5756 140.67 58.5857 140.707 58.5857 140.744C58.5857 140.782 58.5756 140.819 58.5564 140.852C58.5292 140.908 58.4881 140.957 58.437 140.993C58.3858 141.029 58.3263 141.052 58.2641 141.059L58.1901 141.063ZM57.1171 140.249C57.5833 140.7 57.994 140.952 58.2271 140.922C58.2679 140.917 58.3068 140.901 58.3403 140.878C58.3739 140.854 58.401 140.822 58.4195 140.785C58.4277 140.772 58.4321 140.758 58.4321 140.743C58.4321 140.727 58.4277 140.713 58.4195 140.7C58.3233 140.5 57.6388 140.33 57.1171 140.249Z" fill="#263238"/>
<path d="M57.1577 140.23C57.0747 140.233 56.9916 140.227 56.9098 140.212C56.8984 140.21 56.8876 140.206 56.8785 140.198C56.8695 140.191 56.8624 140.182 56.858 140.171C56.8525 140.16 56.8496 140.148 56.8496 140.136C56.8496 140.124 56.8525 140.112 56.858 140.101C56.8802 140.075 57.3797 139.472 57.8533 139.431C57.9874 139.421 58.1202 139.463 58.2233 139.55C58.3676 139.675 58.3602 139.786 58.3232 139.857C58.2307 140.108 57.5906 140.23 57.1577 140.23ZM57.0615 140.094C57.4759 140.116 58.1382 139.979 58.2233 139.798C58.2233 139.798 58.2529 139.738 58.1567 139.657C58.1184 139.624 58.0737 139.599 58.0253 139.583C57.977 139.568 57.926 139.563 57.8755 139.568C57.5565 139.657 57.2724 139.842 57.0615 140.097V140.094Z" fill="#263238"/>
<path d="M51.9922 138.721L48.8546 137.833C48.8005 137.817 48.7423 137.821 48.6911 137.845C48.6399 137.869 48.5993 137.911 48.5771 137.963L47.5189 140.342C47.494 140.403 47.4824 140.468 47.4847 140.534C47.4869 140.6 47.5031 140.664 47.5321 140.723C47.5611 140.782 47.6023 140.835 47.653 140.877C47.7036 140.919 47.7626 140.949 47.826 140.967C48.936 141.256 49.4688 141.337 50.8489 141.733C51.6999 141.97 52.9135 142.41 54.0864 142.743C55.2593 143.076 55.6515 141.933 55.1964 141.688C53.1392 140.601 52.9764 139.838 52.414 139.024C52.3133 138.877 52.164 138.77 51.9922 138.721Z" fill="#DAA520"/>
<path d="M56.9579 139.764L54.2791 137.914C54.2337 137.881 54.1777 137.866 54.1218 137.871C54.0659 137.877 54.0139 137.902 53.9757 137.944L52.1997 139.853C52.1565 139.902 52.1242 139.96 52.1051 140.023C52.0859 140.086 52.0804 140.152 52.0888 140.217C52.0972 140.282 52.1193 140.345 52.1538 140.401C52.1882 140.456 52.2342 140.504 52.2886 140.541C53.2321 141.174 53.7204 141.429 54.9007 142.247C55.6407 142.75 57.0726 143.867 58.0716 144.563C59.0706 145.259 59.8143 144.304 59.4591 143.927C57.8681 142.228 57.5203 141.163 57.2576 140.197C57.212 140.022 57.1059 139.868 56.9579 139.764Z" fill="#DAA520"/>
<path d="M54.7855 136.323L49.957 133.922L50.4565 132.612L55.6143 135.143L54.7855 136.323Z" fill="#DAA520"/>
<path d="M48.5072 91.065L48.1002 92.1306C48.0595 92.212 48.1557 92.2971 48.2926 92.2971H60.5322C60.6395 92.2971 60.7283 92.2453 60.7357 92.1787L60.8393 91.1205C60.8393 91.0502 60.7542 90.9873 60.6395 90.9873H48.6996C48.6637 90.9839 48.6275 90.9892 48.594 91.0028C48.5605 91.0163 48.5308 91.0376 48.5072 91.065Z" fill="#DAA520"/>
<path opacity="0.4" d="M48.5072 91.065L48.1002 92.1306C48.0595 92.212 48.1557 92.2971 48.2926 92.2971H60.5322C60.6395 92.2971 60.7283 92.2453 60.7357 92.1787L60.8393 91.1205C60.8393 91.0502 60.7542 90.9873 60.6395 90.9873H48.6996C48.6637 90.9839 48.6275 90.9892 48.594 91.0028C48.5605 91.0163 48.5308 91.0376 48.5072 91.065Z" fill="white"/>
<path d="M50.4343 92.4008H50.1124C50.0495 92.4008 50.0014 92.3675 50.0051 92.3268L50.1568 90.9541C50.1568 90.9171 50.216 90.8838 50.2789 90.8838H50.6008C50.6637 90.8838 50.7118 90.9171 50.7081 90.9541L50.5564 92.3268C50.5527 92.3675 50.4972 92.4008 50.4343 92.4008Z" fill="#DAA520"/>
<path d="M57.9823 92.4008H57.6641C57.6012 92.4008 57.5531 92.3675 57.5568 92.3268L57.7048 90.9541C57.7048 90.9171 57.7677 90.8838 57.8306 90.8838H58.1488C58.2117 90.8838 58.2635 90.9171 58.2561 90.9541L58.1081 92.3268C58.0896 92.3675 58.0489 92.4008 57.9823 92.4008Z" fill="#DAA520"/>
<g style="mix-blend-mode:multiply">
<path d="M50.1535 155.06C55.6279 155.06 60.0658 154.738 60.0658 154.342C60.0658 153.945 55.6279 153.624 50.1535 153.624C44.6791 153.624 40.2412 153.945 40.2412 154.342C40.2412 154.738 44.6791 155.06 50.1535 155.06Z" fill="#F5F5F5"/>
</g>
<path d="M56.1922 153.328C54.4384 152.817 52.4922 152.162 51.3156 151.478C51.2823 151.456 51.2453 151.444 51.212 151.426V143.486H54.7603C55.0296 143.47 55.2827 143.352 55.4678 143.155C55.6528 142.959 55.7559 142.699 55.7559 142.429C55.7559 142.16 55.6528 141.9 55.4678 141.704C55.2827 141.507 55.0296 141.389 54.7603 141.373H51.2305V105.18H49.0993V141.373H45.5732C45.4292 141.365 45.285 141.386 45.1494 141.435C45.0138 141.484 44.8898 141.56 44.7848 141.659C44.6798 141.758 44.5962 141.878 44.5391 142.01C44.4819 142.143 44.4524 142.285 44.4524 142.429C44.4524 142.574 44.4819 142.716 44.5391 142.849C44.5962 142.981 44.6798 143.101 44.7848 143.2C44.8898 143.298 45.0138 143.375 45.1494 143.424C45.285 143.473 45.4292 143.494 45.5732 143.486H49.0993V151.415C49.066 151.415 49.0327 151.444 48.9994 151.467C47.8043 152.162 45.8729 152.817 44.1191 153.317C44.0006 153.353 43.8989 153.43 43.8323 153.534C43.7657 153.638 43.7387 153.763 43.7561 153.886C43.7736 154.008 43.8343 154.12 43.9274 154.202C44.0204 154.284 44.1396 154.329 44.2634 154.33H56.0479C56.1661 154.322 56.278 154.274 56.3649 154.193C56.4518 154.113 56.5085 154.005 56.5254 153.887C56.5422 153.77 56.5184 153.651 56.4577 153.549C56.3971 153.447 56.3034 153.369 56.1922 153.328Z" fill="#E0E0E0"/>
<path d="M56.7359 101.495H43.5787C42.5202 101.495 41.6621 102.353 41.6621 103.412V107.323C41.6621 108.381 42.5202 109.239 43.5787 109.239H56.7359C57.7944 109.239 58.6525 108.381 58.6525 107.323V103.412C58.6525 102.353 57.7944 101.495 56.7359 101.495Z" fill="#DAA520"/>
<path d="M43.4561 109.243V109.917C43.4561 110.472 44.0592 110.923 44.7992 110.923H55.5292C56.2692 110.923 56.8723 110.472 56.8723 109.917V109.243H43.4561Z" fill="#DAA520"/>
<path opacity="0.3" d="M43.4561 109.243V109.917C43.4561 110.472 44.0592 110.923 44.7992 110.923H55.5292C56.2692 110.923 56.8723 110.472 56.8723 109.917V109.243H43.4561Z" fill="white"/>
</svg>
