<svg width="19" height="21" viewBox="0 0 19 21" fill="none" xmlns="http://www.w3.org/2000/svg">
<g clip-path="url(#clip0_2673_1560)">
<path d="M12.4117 16.97C12.1829 16.97 11.9481 16.9518 11.7082 16.9155C9.98547 16.6555 8.81416 14.9657 9.04197 13.0698C9.13017 12.3345 9.49356 11.7174 10.0641 11.3323C10.677 10.9193 11.4889 10.806 12.3482 11.0145C13.0987 11.1969 13.8335 12.0196 14.0845 12.6773C14.2977 13.2361 14.2675 13.8075 13.9994 14.2863C13.7353 14.7582 13.2645 15.0878 12.6758 15.2144C12.2122 15.3149 11.748 15.0598 11.2989 14.8131C11.2142 14.7665 11.1286 14.7204 11.0424 14.6753C10.8665 14.584 10.739 14.429 10.6951 14.249C10.6508 14.0705 10.6881 13.8855 10.8004 13.7281L11.6255 12.5758C11.7455 12.409 11.9813 12.3698 12.1517 12.4846C12.3225 12.6003 12.3644 12.8299 12.2454 12.9972L11.4788 14.068C11.5433 14.1018 11.6069 14.1372 11.6704 14.172C11.9813 14.3422 12.3351 14.5325 12.5136 14.4957C12.886 14.4158 13.1783 14.2166 13.3366 13.9336C13.4979 13.6442 13.513 13.2895 13.3769 12.9324C13.1768 12.4081 12.5992 11.8336 12.1658 11.7282C11.5212 11.5727 10.927 11.6468 10.495 11.9381C10.1054 12.201 9.85594 12.6332 9.79345 13.1551C9.61301 14.6571 10.5051 15.9889 11.8246 16.189C13.5735 16.4559 14.5744 15.5229 15.1047 14.6934C15.6888 13.7791 15.6429 12.7053 14.9776 11.6723C14.8789 11.5187 14.7992 11.3549 14.7196 11.1906C14.6873 11.1229 14.6546 11.0566 14.6208 10.9894C14.5271 10.8084 14.6032 10.5877 14.7896 10.496C14.9766 10.4052 15.2034 10.4783 15.2967 10.6608C15.3335 10.7324 15.3688 10.8055 15.4035 10.8781C15.4701 11.0159 15.5356 11.1543 15.6177 11.2818C16.4332 12.5474 16.4801 13.9321 15.7457 15.0819C14.9575 16.3151 13.7902 16.9695 12.4117 16.97Z" fill="white"/>
<path d="M15.0449 10.1077C14.8276 10.1077 14.6089 10.0277 14.4537 9.87615L13.9199 9.35668C13.677 9.12025 13.6059 8.71311 13.7566 8.41143L13.7904 8.34374C13.9199 8.08376 14.1457 7.82133 14.3468 7.68006L15.4098 6.93151C15.5786 6.8128 15.816 6.84959 15.938 7.01441C16.0594 7.17923 16.0221 7.40929 15.8523 7.52799L14.7888 8.27654C14.6895 8.3462 14.5449 8.51445 14.4905 8.62432C14.49 8.62531 14.4678 8.66945 14.4663 8.67043L14.437 8.72881C14.4265 8.75529 14.437 8.81711 14.4547 8.83624L14.9874 9.35472C15.001 9.366 15.0474 9.37386 15.065 9.36699C16.5609 8.52818 16.5886 7.91011 16.3956 7.3671C16.2217 6.87853 15.6361 6.30707 15.1668 6.16874C14.3927 5.93917 13.6881 6.27617 13.2829 7.06592L12.7789 8.04747C12.6856 8.22945 12.4583 8.30303 12.2713 8.2113C12.0848 8.12006 12.0087 7.89932 12.103 7.71734L12.6065 6.73726C13.1735 5.63259 14.2647 5.13274 15.3866 5.46434C16.0851 5.67036 16.8578 6.41597 17.1103 7.12625C17.6274 8.57821 16.4057 9.46558 15.4405 10.0061C15.3211 10.0753 15.183 10.1077 15.0449 10.1077Z" fill="white"/>
<path d="M6.89773 4.98267C6.76921 4.98267 6.64321 4.91841 6.57265 4.80313C5.85646 3.63126 6.29242 1.80405 7.50606 0.890683C8.75448 -0.048188 10.3749 -0.259115 11.842 0.326085C13.3803 0.939735 14.4346 2.27986 14.6614 3.91184C14.6897 4.11345 14.5445 4.29838 14.3369 4.32585C14.1307 4.35675 13.9397 4.21303 13.9115 4.01044C13.7215 2.64285 12.84 1.52003 11.5547 1.00694C10.3411 0.523277 9.00044 0.697409 7.96823 1.47342C7.05397 2.16114 6.69765 3.56848 7.22282 4.4269C7.32967 4.60153 7.27069 4.82717 7.09076 4.93116C7.02978 4.96648 6.96325 4.98267 6.89773 4.98267Z" fill="white"/>
<path d="M3.11079 8.75503C2.99588 8.75503 2.88601 8.73982 2.78924 8.70793C0.945082 8.09134 0.438054 6.72669 0.0434175 5.26296C-0.0175672 5.03879 -0.0231144 4.67383 0.0842387 4.40993C0.596812 3.15222 1.66329 2.28938 2.93742 2.10101C4.25892 1.90676 5.59907 2.45517 6.51989 3.56818C6.65043 3.72662 6.62472 3.95815 6.46243 4.08618C6.30064 4.21372 6.06225 4.1887 5.93071 4.03026C5.18024 3.12229 4.10318 2.67395 3.04981 2.82945C2.0297 2.97955 1.20465 3.65501 0.786321 4.68168C0.751545 4.76753 0.744984 4.97011 0.774216 5.07607C1.14063 6.43483 1.53981 7.51301 3.03318 8.01237C3.09265 8.03248 3.25544 8.0158 3.33205 7.97214L5.19586 6.91407C5.37579 6.81204 5.60763 6.87091 5.71246 7.04701C5.8173 7.2231 5.75631 7.44777 5.57588 7.5498L3.71156 8.60836C3.54322 8.70352 3.32046 8.75503 3.11079 8.75503Z" fill="white"/>
<path d="M3.54694 18.5528C3.34081 18.5528 3.12861 18.5391 2.90937 18.5072C2.59084 18.4616 2.27333 18.1938 2.17051 17.8847L0.953841 14.2249C0.857072 13.9325 0.933166 13.5504 1.13477 13.3145L1.65794 12.7062C1.76176 12.586 1.87717 12.3898 1.89985 12.2952C2.01527 11.8306 1.92253 11.3612 1.82525 10.8633C1.66145 10.0289 1.47599 9.0822 2.45074 8.25811C2.60849 8.12469 2.84739 8.14137 2.98448 8.29491C3.12106 8.44844 3.10442 8.68046 2.94667 8.81389C2.32977 9.33532 2.3963 9.85331 2.56766 10.725C2.67099 11.2508 2.78792 11.8468 2.6352 12.4668C2.57623 12.7062 2.38774 13.004 2.23754 13.1776L1.71439 13.7859C1.68011 13.8266 1.65541 13.9463 1.67255 13.9988L2.88922 17.6586C2.90434 17.7042 2.98296 17.7709 3.01925 17.7793C4.37049 17.9735 5.45561 17.3878 6.60575 16.7693C7.08506 16.5122 7.58151 16.2459 8.09661 16.0403C8.29115 15.9633 8.5109 16.0531 8.59003 16.241C8.66865 16.4298 8.57642 16.6437 8.38338 16.7212C7.90811 16.9105 7.45299 17.1548 6.97167 17.4138C5.92838 17.975 4.85333 18.5528 3.54694 18.5528Z" fill="white"/>
<path d="M8.57678 5.1441C8.38475 5.1441 8.21994 5.00283 8.20079 4.81201C8.18365 4.6418 8.1625 4.47208 8.14133 4.30089C8.09496 3.92662 8.04656 3.5391 8.0395 3.14766C8.01279 1.77418 9.20275 1.60887 9.9129 1.51076L10.0374 1.49311C10.6104 1.41119 12.1341 1.19241 12.4193 2.58992C12.5121 3.04906 12.2585 3.49544 12.0131 3.9276L11.8947 4.13951C11.7606 4.38624 11.4572 4.63543 11.1331 4.60355C10.8292 4.57215 10.5595 4.321 10.4371 4.10124L10.0923 3.48023C9.99304 3.30168 10.0611 3.078 10.2445 2.98137C10.4285 2.88375 10.6573 2.95046 10.7576 3.12951L11.1019 3.751C11.123 3.78878 11.1578 3.8236 11.1875 3.84715C11.2011 3.83341 11.2158 3.81576 11.2263 3.79564L11.3518 3.57147C11.5232 3.27029 11.7177 2.9279 11.6779 2.73316C11.5706 2.20928 11.1694 2.0734 10.1478 2.22154L10.0198 2.23969C9.14026 2.36183 8.78342 2.47661 8.79552 3.13441C8.80258 3.48857 8.84592 3.84028 8.89178 4.21308C8.91345 4.3882 8.93513 4.5643 8.95328 4.7404C8.97394 4.9425 8.82173 5.12203 8.61408 5.14214C8.60198 5.14361 8.58938 5.1441 8.57678 5.1441Z" fill="white"/>
<path d="M8.5039 11.45C8.18487 11.45 7.84214 11.4009 7.47774 11.3009C5.44761 10.7426 5.3196 9.02628 5.19561 7.36633L5.17797 7.13676C5.15428 6.82626 5.32514 6.4721 5.5847 6.29403L7.84012 4.74495C8.08456 4.57474 8.47568 4.51882 8.76901 4.61251C11.0159 5.3483 11.8888 5.31494 13.0147 4.45063C14.4743 3.32879 15.694 3.84238 16.819 4.46241C18.1329 5.18839 18.9267 6.26559 18.9948 7.41735C19.0583 8.48278 18.4797 9.50699 17.3648 10.3016C16.194 11.137 14.5338 11.0139 13.236 9.99605C13.0536 9.85183 12.8378 9.60216 12.7184 9.42998L10.2805 5.96391C10.2387 5.90455 10.2175 5.83736 10.215 5.77015C9.71351 5.67499 9.16163 5.51655 8.53011 5.31004C8.46812 5.29042 8.32952 5.30807 8.27861 5.34339L6.02117 6.89395C5.97934 6.92339 5.92893 7.02884 5.93296 7.08035L5.9506 7.31188C6.08316 9.08563 6.23738 10.1937 7.68337 10.5911C8.92423 10.9305 9.73115 10.5636 10.0804 9.49816C10.1092 9.41232 10.0996 9.21071 10.0623 9.10476L9.53761 7.61552C9.52048 7.56696 9.43732 7.49779 9.3975 7.48994C8.22972 7.306 7.56997 7.58167 7.11889 8.43617C7.1083 8.46119 7.11435 8.52496 7.12998 8.54655C7.59668 8.97821 8.04122 8.79426 8.78463 8.4293L8.91114 8.3675C9.09812 8.27724 9.32492 8.35082 9.41816 8.53281C9.51191 8.7148 9.4353 8.93553 9.24831 9.02628L9.12483 9.08662C8.39453 9.44421 7.4848 9.89108 6.60531 9.07582C6.34978 8.84135 6.27972 8.41165 6.44755 8.09918C7.05084 6.95625 8.0261 6.53145 9.51745 6.76445C9.83598 6.81399 10.146 7.07202 10.2528 7.37811L10.7775 8.86735C10.8561 9.09054 10.8894 9.45598 10.8001 9.7243C10.4302 10.8525 9.61624 11.45 8.5039 11.45ZM11.1308 5.87267L13.3434 9.01892C13.4391 9.15774 13.61 9.34659 13.7108 9.42655C14.7384 10.2325 16.0272 10.3458 16.9173 9.71007C17.831 9.05914 18.2892 8.28165 18.2403 7.46198C18.1874 6.56431 17.5332 5.70491 16.4455 5.10402C15.2646 4.4521 14.4819 4.2608 13.483 5.02995C12.6907 5.63722 11.975 5.88052 11.1308 5.87267Z" fill="white"/>
<path d="M5.7226 6.94414C5.55678 6.94414 5.40507 6.83721 5.3587 6.67435L4.91367 5.11545C4.89099 5.03451 4.79018 4.9212 4.72416 4.89275L3.7731 4.48316C3.74185 4.46942 3.65416 4.48365 3.62594 4.50769L2.31855 5.66583C2.59172 6.01459 2.7666 6.07836 2.84523 6.08473C3.00399 6.10681 3.20308 5.90962 3.40014 5.72714C3.60427 5.5378 3.81645 5.34207 4.08458 5.24838C4.28165 5.1802 4.49737 5.27978 4.56742 5.47157C4.63799 5.66386 4.53566 5.87332 4.33809 5.9415C4.22066 5.98222 4.06745 6.12398 3.91927 6.26034C3.63299 6.52523 3.27364 6.85241 2.78526 6.81758C2.41733 6.78913 2.06452 6.55564 1.7092 6.10386C1.47988 5.81543 1.52424 5.37445 1.8085 5.12134L3.11589 3.9632C3.36487 3.74344 3.76856 3.6787 4.07702 3.80918L5.0301 4.22024C5.30327 4.33846 5.5588 4.62689 5.63793 4.90551L6.08699 6.47814C6.14243 6.67337 6.02451 6.87644 5.82341 6.9304C5.78964 6.93972 5.75587 6.94414 5.7226 6.94414Z" fill="white"/>
<path d="M12.6077 20.6745C12.5109 20.6745 12.4142 20.6387 12.3406 20.5666L12.1793 20.4057C12.073 20.2988 11.9666 20.1913 11.8527 20.0932C11.0272 19.3824 9.64517 18.1924 10.7721 16.3588C10.879 16.1842 11.1118 16.1278 11.2897 16.2318C11.4687 16.3363 11.5281 16.5619 11.4203 16.7356C10.7399 17.8432 11.2005 18.549 12.3542 19.5424C12.4827 19.6532 12.6027 19.7734 12.7221 19.8941L12.8758 20.0466C13.0235 20.1904 13.0235 20.4238 12.8758 20.5676C12.8013 20.6387 12.7045 20.6745 12.6077 20.6745Z" fill="white"/>
<path d="M6.05664 20.9995C5.85806 20.9995 5.69124 20.8484 5.67965 20.6532L5.51232 17.8743C5.50072 17.6717 5.65898 17.4971 5.86763 17.4853C6.0768 17.4706 6.25523 17.6286 6.26682 17.8311L6.43415 20.61C6.44624 20.8126 6.28747 20.9877 6.07882 20.999C6.07126 20.9995 6.06369 20.9995 6.05664 20.9995Z" fill="white"/>
<path d="M5.88977 12.3361C5.87062 12.3361 5.85147 12.3346 5.83182 12.3317L3.64846 12.005C3.44283 11.9741 3.3012 11.7867 3.33245 11.586C3.3642 11.3849 3.55825 11.2461 3.76338 11.278L5.94673 11.6047C6.15287 11.6356 6.29399 11.8225 6.26275 12.0236C6.23452 12.2056 6.07323 12.3361 5.88977 12.3361Z" fill="white"/>
<path d="M12.7758 9.88423H10.7608C10.5522 9.88423 10.3828 9.71941 10.3828 9.51633C10.3828 9.31325 10.5522 9.14844 10.7608 9.14844H12.7758C12.9845 9.14844 13.1538 9.31325 13.1538 9.51633C13.1538 9.71941 12.9845 9.88423 12.7758 9.88423Z" fill="white"/>
</g>
<defs>
<clipPath id="clip0_2673_1560">
<rect width="19" height="21" fill="white"/>
</clipPath>
</defs>
</svg>
