<svg width="44" height="44" viewBox="0 0 44 44" fill="none" xmlns="http://www.w3.org/2000/svg">
<g clip-path="url(#clip0_2589_4572)">
<path d="M36.3528 12.2219L35.8373 12.7309C35.0542 13.5204 33.7623 13.5204 32.9727 12.7309L31.263 11.0213C30.4735 10.2318 30.4735 8.94619 31.263 8.1566L33.8079 5.61182C33.8667 5.62488 33.9319 5.63124 33.9971 5.63794C33.6839 6.61007 33.5077 7.58245 33.4882 8.46984C33.299 8.54821 33.1163 8.65907 32.9662 8.81574C32.3529 9.42907 32.3529 10.421 32.9662 11.0344C33.3316 11.4062 33.8472 11.5498 34.3234 11.4716C34.5648 11.7455 34.8455 11.9544 35.1717 12.0914C35.4327 12.1957 35.7133 12.248 36.0004 12.248C36.1179 12.248 36.2353 12.2415 36.3528 12.2219Z" fill="#F8F1C3"/>
<path d="M30.2373 12.0488L31.9492 13.7608C32.7369 14.5485 34.0258 14.5485 34.8135 13.7608L36.3509 12.2233L35.8404 12.7339C35.0527 13.5216 33.7638 13.5216 32.9761 12.7339L31.2641 11.0219C30.4765 10.2343 30.4764 8.94542 31.264 8.15771L30.2373 9.18441C29.4496 9.9722 29.4496 11.2612 30.2373 12.0488Z" fill="#F8F1C3"/>
<path d="M40.9009 7.46487C40.2875 8.97222 39.4327 10.2317 38.4996 11.0799C38.4604 10.7733 38.4213 10.4796 38.3821 10.1926C38.356 9.98379 38.3299 9.77488 38.3038 9.57928C38.8454 8.92676 39.374 8.07194 39.7981 7.02127C40.9661 4.15018 40.6268 1.6836 39.5827 1.25959C39.4718 1.21387 39.3414 1.18774 39.2043 1.18774C38.1602 1.18774 36.4767 2.60365 35.4065 5.2268C35.3282 5.42257 35.2564 5.61189 35.1912 5.80112C34.8192 5.74887 34.4212 5.69663 33.9971 5.63802C34.0884 5.35081 34.1928 5.0637 34.3038 4.7832C35.4523 1.9641 37.4685 0 39.2043 0C39.3413 0 39.4783 0.0130625 39.6023 0.0326562C39.7524 0.0587812 39.896 0.0977969 40.033 0.156578C40.7182 0.437078 41.2205 1.05059 41.4882 1.91838C41.5926 2.25122 41.6643 2.62969 41.697 3.0342C41.8078 4.36537 41.5273 5.93811 40.9009 7.46487Z" fill="#8B8774"/>
<path d="M35.3574 10.8239C34.998 10.5158 34.7616 9.91401 34.6952 9.11281C34.6783 8.9088 34.673 8.69687 34.6779 8.47928C34.2989 8.32073 33.8702 8.31746 33.4892 8.46983C33.4837 8.72377 33.4903 8.97162 33.5101 9.21112C33.5901 10.1751 33.8723 10.9468 34.3259 11.473C34.639 11.422 34.9396 11.2761 35.181 11.0347C35.2471 10.9685 35.3056 10.8978 35.3574 10.8239Z" fill="#937D6B"/>
<path d="M38.3823 10.1912C38.3545 9.98111 38.3271 9.77632 38.3005 9.57712C38.0322 7.57383 37.8306 6.16669 37.8306 6.16669C37.8306 6.16669 36.776 6.01561 35.1932 5.80103C34.8733 6.72898 34.6963 7.64842 34.6772 8.47935C34.8601 8.55584 35.0314 8.66816 35.1803 8.817C35.7266 9.36331 35.7851 10.2124 35.3566 10.824C35.3048 10.8979 35.2464 10.9686 35.1803 11.0346C34.9389 11.276 34.6383 11.4219 34.3252 11.4729C34.5627 11.7483 34.8472 11.9565 35.1743 12.0897C35.434 12.1955 35.7128 12.2491 36.003 12.2491C36.1176 12.2491 36.2335 12.24 36.3501 12.2232L38.3823 10.1912Z" fill="#ECE5BB"/>
<path d="M34.6779 8.47935C34.697 7.64842 34.8741 6.72898 35.194 5.80103C34.821 5.75041 34.4189 5.69635 33.9941 5.63989C33.6809 6.61262 33.5084 7.58028 33.4893 8.4699C33.8702 8.31745 34.2988 8.32071 34.6779 8.47935Z" fill="#937D6B"/>
<path d="M39.5239 23.1061L19.6478 42.9821C18.6951 43.9348 17.3183 44.2218 16.1111 43.8303C15.6021 43.6672 15.1192 43.3866 14.7147 42.9821L1.01165 29.279C0.613583 28.8743 0.332997 28.3981 0.169887 27.8891C-0.221644 26.6883 0.0654732 25.3051 1.01165 24.3524L20.8876 4.47642C21.3248 4.03908 28.9333 4.97236 33.8076 5.61182L31.2628 8.1566L30.2383 9.18768C29.4487 9.97066 29.4487 11.2626 30.2383 12.0457L31.9479 13.762C32.7375 14.5515 34.023 14.5515 34.8125 13.762L36.3525 12.222L38.3818 10.1927C38.421 10.4798 38.4601 10.7734 38.4993 11.08C39.1323 15.9347 39.9349 22.6949 39.5239 23.1061Z" fill="#C3C067"/>
<path d="M16.8487 30.4796C16.7509 30.1991 16.5877 29.9379 16.3463 29.6966C16.1179 29.4684 15.8895 29.2985 15.6546 29.1811C15.4132 29.0702 15.1651 29.018 14.9107 29.031C14.6954 29.031 14.4866 29.0767 14.2777 29.1615C14.0689 29.2529 13.8341 29.3964 13.573 29.5923L12.8878 30.0948C12.7638 30.186 12.6529 30.2513 12.5484 30.2904C12.444 30.3295 12.3396 30.3557 12.2417 30.3557C12.1373 30.3557 12.046 30.3361 11.9677 30.2971C11.8828 30.2579 11.811 30.2056 11.7458 30.1403C11.5761 29.9708 11.4848 29.7619 11.4848 29.5139C11.4848 29.2661 11.6153 29.0114 11.8763 28.7505C12.0394 28.5874 12.2352 28.4373 12.4571 28.2938C12.6789 28.1502 12.94 28.0784 13.2401 28.0719L13.2466 26.8516C12.8225 26.8583 12.4375 26.943 12.0981 27.1126C11.7523 27.2757 11.4064 27.5302 11.0606 27.876C10.7931 28.1502 10.5842 28.4308 10.4473 28.7178C10.3102 29.0048 10.2319 29.2921 10.2124 29.5726C10.1993 29.8531 10.2384 30.1272 10.3428 30.3882C10.4473 30.6558 10.6169 30.8972 10.8388 31.119C11.263 31.5432 11.7067 31.7521 12.17 31.739C12.3918 31.739 12.6137 31.6933 12.8355 31.602C13.0509 31.5171 13.2923 31.3801 13.5468 31.1908L14.232 30.6883C14.3755 30.5775 14.493 30.5056 14.5778 30.4664C14.6627 30.434 14.7475 30.4144 14.8454 30.4078C15.0542 30.4078 15.2434 30.4926 15.4131 30.6623C15.6154 30.8646 15.6937 31.0929 15.6545 31.3475C15.6088 31.6084 15.4391 31.8826 15.152 32.1762C14.9237 32.4046 14.6756 32.5872 14.4081 32.7309C14.1406 32.8809 13.8535 32.9527 13.5337 32.9527V34.2055C14.0231 34.2122 14.4668 34.1142 14.8583 33.9118C15.2433 33.7161 15.6283 33.4224 16.0067 33.0505C16.2677 32.7896 16.4765 32.509 16.6397 32.2154C16.7963 31.9217 16.8942 31.6281 16.9334 31.3345C16.9662 31.0408 16.9401 30.7536 16.8487 30.4796Z" fill="#FDFEFE"/>
<path d="M15.7781 23.2432L15.0146 24.0065L18.1794 30.7928L19.1908 29.7815L18.6165 28.6003L20.3784 26.832L21.5529 27.4192L22.5709 26.4012L15.7781 23.2432ZM18.0685 27.5107L16.8875 25.0701L19.3083 26.2708L18.0685 27.5107Z" fill="#FDFEFE"/>
<path d="M25.547 21.6966L23.2893 23.9543L19.1784 19.8435L18.2061 20.8156L23.1848 25.788L26.4084 22.5645L25.547 21.6966Z" fill="#FDFEFE"/>
<path d="M29.6121 17.6313L27.3022 19.9347L26.095 18.7275L28.0591 16.7634L27.1912 15.8956L25.2271 17.8597L24.0657 16.6916L26.3691 14.3881L25.5013 13.5203L22.2256 16.7959L27.1978 21.7748L30.4735 18.4926L29.6121 17.6313Z" fill="#FDFEFE"/>
<path opacity="0.06" d="M36.352 12.2012L36.339 12.2208L38.3684 10.1914L36.352 12.2012ZM36.3325 12.2208V12.2273H36.339V12.2208H36.3325ZM36.326 12.2273L35.8235 12.7298V12.7363L36.3325 12.2273H36.326ZM36.326 12.2273L35.8235 12.7298V12.7363L36.3325 12.2273H36.326ZM41.6962 3.01361C41.6636 2.6091 41.5918 2.23063 41.4874 1.89779C41.4417 1.75428 41.383 1.63689 41.3308 1.50635L40.3912 2.44599C40.6587 3.52261 40.5282 5.18654 39.7844 7.02018C39.6278 7.40527 39.4581 7.76397 39.2819 8.09028C39.2754 8.10987 39.2623 8.12293 39.2623 8.136C39.2035 8.24032 39.1448 8.33829 39.0927 8.42964C39.0209 8.54721 38.9556 8.65153 38.8904 8.75595C38.7925 8.906 38.6946 9.04298 38.5967 9.18005C38.5511 9.24536 38.4988 9.31068 38.4467 9.37582C38.4009 9.4346 38.3553 9.49991 38.3031 9.55852C38.3161 9.63036 38.3227 9.70203 38.3292 9.78041C38.3161 9.70857 38.3031 9.63689 38.2965 9.56505C38.2965 9.57158 38.2965 9.57158 38.29 9.57811C38.0159 7.57482 37.8202 6.16536 37.8202 6.16536C37.8202 6.16536 37.4482 6.11311 36.8153 6.02185L33.507 9.3301C33.52 9.44113 33.533 9.55199 33.5526 9.66302C33.5722 9.76735 33.5918 9.87167 33.6113 9.97626C33.6374 10.0806 33.6636 10.1786 33.6897 10.2698C33.7158 10.3676 33.7484 10.4591 33.781 10.5503C33.8137 10.6418 33.8529 10.7265 33.892 10.8112C33.9312 10.8896 33.9703 10.9743 34.016 11.0462C34.0943 11.1897 34.1791 11.3137 34.277 11.4313C34.2835 11.4443 34.29 11.4574 34.3031 11.4705C34.0747 11.5095 33.8333 11.4964 33.6114 11.4247C33.37 11.3529 33.1416 11.2224 32.9524 11.0331C32.7436 10.8243 32.6 10.5698 32.5413 10.2959L31.5363 11.3073H31.5298L30.5054 12.3317L25.0958 17.7412L24.1235 18.7135L21.0828 21.761L20.1105 22.7267L18.3813 24.4559L17.4743 25.3628L17.1677 25.6694L16.2215 26.6157L12.5608 30.2762L11.3275 31.5096L7.29492 35.5421L14.7142 42.9613C15.1188 43.366 15.6016 43.6465 16.1106 43.8096C17.3177 44.2012 18.6945 43.9139 19.6472 42.9613L39.5101 23.1049L39.5232 23.0853C39.5363 23.0723 39.5559 23.0398 39.5624 23.0071C39.5689 22.981 39.5754 22.9549 39.5819 22.9222C39.5884 22.883 39.595 22.8375 39.6015 22.7918C39.7777 21.3759 39.0664 15.4378 38.4987 11.0659V11.0593C38.5574 11.0071 38.6162 10.955 38.6749 10.8962C38.7337 10.844 38.7859 10.7788 38.8446 10.72C39.6407 9.89789 40.3584 8.77554 40.8869 7.46396C40.8935 7.45743 40.9 7.4509 40.9 7.44437C41.5266 5.91726 41.8073 4.34478 41.6962 3.01361ZM35.1645 8.82118C35.7126 9.36284 35.7713 10.211 35.3406 10.8243C34.9818 10.5176 34.7469 9.91739 34.6816 9.11474C34.662 8.91244 34.662 8.69717 34.662 8.48181C34.8447 8.55357 35.0209 8.67113 35.1645 8.82118ZM35.7518 12.808L34.8121 13.7412L35.6735 12.8733L35.6865 12.8602L35.8235 12.7298L35.8366 12.7102L36.326 12.2273L35.8235 12.7298V12.7363L35.7518 12.808ZM36.326 12.2273L35.8235 12.7298V12.7363L36.3325 12.2273H36.326ZM36.3325 12.2208V12.2273H36.339V12.2208H36.3325Z" fill="#040000"/>
</g>
<defs>
<clipPath id="clip0_2589_4572">
<rect width="44" height="44" fill="white"/>
</clipPath>
</defs>
</svg>
