<svg width="300" height="280" viewBox="0 0 300 280" fill="none" xmlns="http://www.w3.org/2000/svg">
<g clip-path="url(#clip0_2350_116)">
<path d="M92.6406 205.401H55.062C54.1146 205.401 53.3438 204.664 53.3438 203.759C53.3438 202.853 54.1146 202.117 55.062 202.117H92.6406C93.588 202.117 94.3585 202.853 94.3585 203.759C94.3585 204.664 93.588 205.401 92.6406 205.401Z" fill="#F9A826"/>
<path d="M25.5273 214.193C25.5273 214.488 25.7752 214.725 26.0839 214.725H121.619C121.928 214.725 122.175 214.488 122.175 214.193C122.175 213.898 121.928 213.661 121.619 213.661H26.0839C25.7752 213.661 25.5273 213.898 25.5273 214.193Z" fill="#3F3D56"/>
<path d="M227.091 107.014C243.879 107.014 257.488 94.0059 257.488 77.9591C257.488 61.9123 243.879 48.9038 227.091 48.9038C210.303 48.9038 196.694 61.9123 196.694 77.9591C196.694 94.0059 210.303 107.014 227.091 107.014Z" fill="#FF6884"/>
<path d="M0 250.907C0 251.202 0.247866 251.439 0.556525 251.439H244.803C245.111 251.439 245.359 251.202 245.359 250.907C245.359 250.612 245.111 250.375 244.803 250.375H0.556525C0.247866 250.375 0 250.612 0 250.907Z" fill="#3F3D56"/>
<path d="M3.53327 214.985L2.75195 214.167L79.0079 147.655L106.481 159.427L136.149 110.795L160.524 99.5651L183.107 135.543C195.3 105.371 225.878 73.8039 262.518 41.7769L263.42 42.4744C229.055 73.9232 199.652 105.515 182.966 137.472L162.077 104.096C161.09 102.519 159.016 101.91 157.273 102.685C143.95 108.611 132.837 118.283 125.42 130.409L106.836 160.793L102.594 158.975C88.4062 152.896 71.7973 155.444 60.3124 165.461L3.53327 214.985Z" fill="#3F3D56"/>
<path d="M264.237 47.832L263.079 47.9089L261.211 44.0389L257.029 43.2268L256.866 42.1284L263.761 41.1919L264.237 47.832Z" fill="#3F3D56"/>
<path d="M145.29 71.5119L149.389 56.4491L165.358 55.7148L170.135 76.4785L145.29 71.5119Z" fill="#FFB6B6"/>
<path opacity="0.1" d="M145.29 71.5119L149.389 56.4491L165.358 55.7148L170.135 76.4785L145.29 71.5119Z" fill="black"/>
<path d="M155.798 64.8785C166.443 64.8785 175.073 56.6299 175.073 46.4546C175.073 36.2794 166.443 28.0308 155.798 28.0308C145.153 28.0308 136.523 36.2794 136.523 46.4546C136.523 56.6299 145.153 64.8785 155.798 64.8785Z" fill="#FFB6B6"/>
<path d="M166.432 50.3545C166.432 50.3545 159.11 36.4873 150.531 37.2879C141.952 38.0885 137.432 39.0622 137.432 39.0622C137.432 39.0622 134.886 28.2617 146.875 24.1074C146.875 24.1074 131.631 9.74337 149.781 2.6972C167.93 -4.34898 178.087 4.63752 178.087 4.63752C178.087 4.63752 191.521 17.4574 174.601 27.039C174.601 27.039 187.165 43.1932 171.953 56.5079C171.953 56.5079 175.355 45.7334 171.805 47.7204C168.255 49.7074 166.432 50.3545 166.432 50.3545Z" fill="#2F2E41"/>
<path d="M134.531 147.695L131.968 150.044L113.445 188.006L111.418 250.798H142.538L157.136 219.702L166.971 250.497H194.953L201.439 194.595L184.002 155.06L134.531 147.695Z" fill="#2F2E41"/>
<path d="M166.768 69.981H145.986L123.38 81.609L128.651 104.09C128.651 104.09 127.435 117.656 130.273 127.734C133.112 137.811 131.895 150.99 131.895 150.99L184.002 155.06L185.624 109.323L184.813 78.702L166.768 69.981Z" fill="#E6E6E6"/>
<path d="M126.827 81.8032C126.827 81.8032 114.256 82.1908 112.229 89.9429C110.201 97.6949 108.579 137.618 108.579 137.618C108.579 137.618 109.796 161.308 123.38 150.044C136.964 138.781 135.748 104.672 135.748 104.672L126.827 81.8032Z" fill="#E6E6E6"/>
<path d="M248.753 279.553H174.674C172.165 279.553 170.124 277.602 170.124 275.204V202.003C170.124 199.605 172.165 197.654 174.674 197.654H248.753C251.262 197.654 253.303 199.605 253.303 202.003V275.204C253.303 277.602 251.262 279.553 248.753 279.553Z" fill="white"/>
<path d="M248.753 280H174.674C171.907 280 169.656 277.849 169.656 275.204V202.003C169.656 199.359 171.907 197.207 174.674 197.207H248.753C251.52 197.207 253.771 199.359 253.771 202.003V275.204C253.771 277.849 251.52 280 248.753 280ZM174.674 198.101C172.423 198.101 170.592 199.852 170.592 202.003V275.204C170.592 277.356 172.423 279.106 174.674 279.106H248.753C251.004 279.106 252.835 277.356 252.835 275.204V202.003C252.835 199.852 251.004 198.101 248.753 198.101H174.674Z" fill="#3F3D56"/>
<path d="M214.636 260.322H208.531C207.787 260.322 207.183 259.876 207.183 259.328V234.201C207.183 233.652 207.787 233.206 208.531 233.206H214.636C215.38 233.206 215.984 233.652 215.984 234.201V259.328C215.984 259.876 215.38 260.322 214.636 260.322Z" fill="#F9A826"/>
<path d="M194.451 245.515C193.85 245.515 193.361 245.876 193.361 246.319V259.3C193.361 259.743 193.85 260.104 194.451 260.104H200.556C201.157 260.104 201.645 259.743 201.645 259.3V246.319C201.645 245.876 201.157 245.515 200.556 245.515H194.451Z" fill="#F9A826"/>
<path d="M228.716 260.322H222.611C221.867 260.322 221.263 259.876 221.263 259.328V218.149C221.263 217.601 221.867 217.155 222.611 217.155H228.716C229.46 217.155 230.065 217.601 230.065 218.149V259.328C230.065 259.876 229.46 260.322 228.716 260.322Z" fill="#F9A826"/>
<path d="M97.3288 79.8226H90.3544C89.5052 79.8226 88.8145 79.3129 88.8145 78.6864V49.9844C88.8145 49.3578 89.5052 48.8481 90.3544 48.8481H97.3288C98.1779 48.8481 98.8687 49.3578 98.8687 49.9844V78.6864C98.8687 79.3129 98.1779 79.8226 97.3288 79.8226Z" fill="#F9A826"/>
<path d="M74.2706 62.9082C73.5846 62.9082 73.0264 63.3201 73.0264 63.8262V78.6543C73.0264 79.1604 73.5846 79.5723 74.2706 79.5723H81.245C81.931 79.5723 82.4892 79.1604 82.4892 78.6543V63.8262C82.4892 63.3201 81.931 62.9082 81.245 62.9082H74.2706Z" fill="#F9A826"/>
<path d="M113.412 79.8226H106.437C105.588 79.8226 104.897 79.3129 104.897 78.6864V31.6489C104.897 31.0224 105.588 30.5127 106.437 30.5127H113.412C114.261 30.5127 114.952 31.0224 114.952 31.6489V78.6864C114.952 79.3129 114.261 79.8226 113.412 79.8226Z" fill="#F9A826"/>
<path d="M200.357 208.305C203.969 207.974 206.457 203.308 205.913 197.88C205.727 195.709 205 193.613 203.792 191.765L203.096 185.623L203.203 185.592L204.953 156.466C205.36 149.694 202.555 143.04 197.152 138.642C193.938 136.026 190.509 134.702 188.304 138.007C184.645 143.491 189.384 166.1 192.496 178.953L193.703 192.689C192.883 194.722 192.585 196.913 192.833 199.079C193.376 204.505 196.744 208.635 200.357 208.305Z" fill="#FFB6B6"/>
<path d="M180.353 79.4776C180.353 79.4776 190.896 75.6016 195.762 87.2296C200.628 98.8577 205.899 156.223 205.899 156.223L181.164 151.959L180.353 79.4776Z" fill="#E6E6E6"/>
<path d="M35.5835 73.7899H21.3872C20.4398 73.7899 19.6689 73.053 19.6689 72.1475C19.6689 71.2419 20.4398 70.5054 21.3872 70.5054H35.5835C36.5309 70.5054 37.3014 71.2419 37.3014 72.1475C37.3014 73.053 36.5309 73.7899 35.5835 73.7899Z" fill="#E6E6E6"/>
<path d="M35.5835 50.5101H21.3872C20.4398 50.5101 19.6689 49.7732 19.6689 48.8677C19.6689 47.9621 20.4398 47.2256 21.3872 47.2256H35.5835C36.5309 47.2256 37.3014 47.9621 37.3014 48.8677C37.3014 49.7732 36.5309 50.5101 35.5835 50.5101Z" fill="#E6E6E6"/>
<path d="M35.5835 33.722H21.3872C20.4398 33.722 19.6689 32.9851 19.6689 32.0796C19.6689 31.174 20.4398 30.4375 21.3872 30.4375H35.5835C36.5309 30.4375 37.3014 31.174 37.3014 32.0796C37.3014 32.9852 36.5309 33.722 35.5835 33.722Z" fill="#E6E6E6"/>
<path d="M19.0996 79.9035C19.0996 80.1985 19.3475 80.4354 19.6561 80.4354H115.191C115.5 80.4354 115.748 80.1985 115.748 79.9035C115.748 79.6085 115.5 79.3716 115.191 79.3716H19.6561C19.3475 79.3716 19.0996 79.6085 19.0996 79.9035Z" fill="#3F3D56"/>
<path d="M203.352 217.581C203.352 217.876 203.599 218.113 203.908 218.113H299.443C299.752 218.113 300 217.876 300 217.581C300 217.286 299.752 217.049 299.443 217.049H203.908C203.599 217.049 203.352 217.286 203.352 217.581Z" fill="#3F3D56"/>
<path d="M175.293 260.941C175.293 261.236 175.541 261.473 175.849 261.473H271.385C271.693 261.473 271.941 261.236 271.941 260.941C271.941 260.646 271.693 260.409 271.385 260.409H175.849C175.541 260.409 175.293 260.646 175.293 260.941Z" fill="#3F3D56"/>
<path d="M111.05 77.2143C107.438 77.545 104.95 82.2109 105.493 87.6385C105.679 89.8095 106.407 91.9063 107.614 93.7535L108.311 99.8963L108.204 99.9269L106.454 129.053C106.047 135.825 108.851 142.479 114.255 146.877C117.469 149.493 120.898 150.817 123.103 147.512C126.762 142.028 122.023 119.419 118.91 106.566L117.704 92.8303C118.523 90.7971 118.822 88.6059 118.573 86.4399C118.031 81.0142 114.662 76.8838 111.05 77.2143Z" fill="#FFB6B6"/>
</g>
<defs>
<clipPath id="clip0_2350_116">
<rect width="300" height="280" fill="white"/>
</clipPath>
</defs>
</svg>
