<svg width="300" height="280" viewBox="0 0 300 280" fill="none" xmlns="http://www.w3.org/2000/svg">
<g clip-path="url(#clip0_2350_177)">
<path d="M207.313 279.295H122.189C109.421 279.295 99.0342 268.603 99.0342 255.461V23.8337C99.0342 10.6918 109.421 0 122.189 0H207.313C220.08 0 230.467 10.6918 230.467 23.8337C232.052 116.848 234.754 221.009 230.467 255.461C230.467 268.603 220.08 279.295 207.313 279.295Z" fill="#3F3D56"/>
<path d="M231.654 85.2002C231.114 85.2002 230.675 85.6524 230.675 86.2085V118.474C230.675 119.03 231.114 119.482 231.654 119.482C232.195 119.482 232.634 119.03 232.634 118.474V86.2085C232.634 85.6524 232.195 85.2002 231.654 85.2002Z" fill="#3F3D56"/>
<path d="M228.263 23.8338V255.457C228.263 266.896 219.614 276.253 208.677 276.979H208.672C208.511 276.989 208.349 276.999 208.182 277.004C207.893 277.019 207.605 277.024 207.311 277.024C207.311 277.024 206.233 276.943 204.264 276.792C202.276 276.641 199.381 276.414 195.771 276.116C194.689 276.031 193.548 275.935 192.343 275.834C189.943 275.632 187.308 275.411 184.482 275.159C183.356 275.063 182.19 274.957 181 274.851C174.917 274.312 168.104 273.681 160.919 272.966C159.704 272.85 158.48 272.729 157.245 272.603C156.922 272.567 101.238 258.159 101.238 255.457V23.8338C101.238 11.9209 110.618 2.2666 122.191 2.2666H134.7C136.698 2.2666 138.305 3.86977 138.476 5.92163C138.491 6.05776 138.506 6.19386 138.53 6.32999C138.893 8.39194 140.729 9.82873 142.767 9.82873H186.735C188.772 9.82873 190.609 8.39194 190.972 6.32999C190.996 6.19386 191.011 6.05776 191.025 5.92163C191.197 3.86977 192.803 2.2666 194.802 2.2666H207.311C218.884 2.2666 228.263 11.9209 228.263 23.8338Z" fill="white"/>
<path d="M98.544 61.0015C98.0038 61.0015 97.5645 61.4537 97.5645 62.0098V70.076C97.5645 70.6321 98.0038 71.0843 98.544 71.0843C99.0843 71.0843 99.5236 70.6321 99.5236 70.076V62.0098C99.5236 61.4537 99.0843 61.0015 98.544 61.0015Z" fill="#3F3D56"/>
<path d="M98.544 85.2002C98.0038 85.2002 97.5645 85.6524 97.5645 86.2085V101.837C97.5645 102.393 98.0038 102.845 98.544 102.845C99.0843 102.845 99.5236 102.393 99.5236 101.837V86.2085C99.5236 85.6524 99.0843 85.2002 98.544 85.2002Z" fill="#3F3D56"/>
<path d="M98.544 107.382C98.0038 107.382 97.5645 107.835 97.5645 108.391V124.019C97.5645 124.575 98.0038 125.027 98.544 125.027C99.0843 125.027 99.5236 124.575 99.5236 124.019V108.391C99.5236 107.835 99.0843 107.382 98.544 107.382Z" fill="#3F3D56"/>
<path d="M134.378 5.79785H115.606C115.515 5.79785 115.441 5.87376 115.441 5.9674V8.14901C115.441 8.24265 115.515 8.31856 115.606 8.31856H134.378C134.469 8.31856 134.543 8.24265 134.543 8.14901V5.9674C134.543 5.87376 134.469 5.79785 134.378 5.79785Z" fill="#E6E6E6"/>
<path d="M197.897 8.31829C198.979 8.31829 199.856 7.41544 199.856 6.30172C199.856 5.188 198.979 4.28516 197.897 4.28516C196.815 4.28516 195.938 5.188 195.938 6.30172C195.938 7.41544 196.815 8.31829 197.897 8.31829Z" fill="#E6E6E6"/>
<path d="M203.284 8.31829C204.366 8.31829 205.243 7.41544 205.243 6.30172C205.243 5.188 204.366 4.28516 203.284 4.28516C202.202 4.28516 201.325 5.188 201.325 6.30172C201.325 7.41544 202.202 8.31829 203.284 8.31829Z" fill="#E6E6E6"/>
<path d="M208.672 8.31829C209.754 8.31829 210.631 7.41544 210.631 6.30172C210.631 5.188 209.754 4.28516 208.672 4.28516C207.59 4.28516 206.713 5.188 206.713 6.30172C206.713 7.41544 207.59 8.31829 208.672 8.31829Z" fill="#E6E6E6"/>
<path d="M7.60059 279.35C7.60059 279.71 7.88203 280 8.23249 280H299.368C299.718 280 300 279.71 300 279.35C300 278.989 299.718 278.699 299.368 278.699H8.23249C7.88203 278.699 7.60059 278.989 7.60059 279.35Z" fill="#CCCCCC"/>
<path d="M100.428 275.078L94.4573 275.077L91.6172 251.374L100.429 251.374L100.428 275.078Z" fill="#FFB6B6"/>
<path d="M79.9725 274.938C79.7866 275.261 79.6885 276.301 79.6885 276.676C79.6885 277.827 80.5957 278.761 81.7148 278.761H100.204C100.968 278.761 101.586 278.124 101.586 277.338V276.546C101.586 276.546 102.501 274.165 100.618 271.229C100.618 271.229 98.2776 273.528 94.7804 269.928L93.7491 268.005L86.2839 273.625L82.1461 274.149C81.2408 274.264 80.4381 274.131 79.9725 274.938Z" fill="#2F2E41"/>
<path d="M67.4111 242.154L61.4408 242.134L58.6738 218.421L67.4854 218.45L67.4111 242.154Z" fill="#FFB6B6"/>
<path d="M46.9563 241.948C46.7695 242.269 46.6681 243.309 46.667 243.684C46.6634 244.836 47.5678 245.772 48.6869 245.776L67.1761 245.837C67.9395 245.839 68.5604 245.204 68.5629 244.418L68.5653 243.626C68.5653 243.626 69.4873 241.247 67.6133 238.306C67.6133 238.306 65.2658 240.597 61.7797 236.985L60.7543 235.059L53.2718 240.654L49.1324 241.165C48.2268 241.277 47.4245 241.142 46.9563 241.948Z" fill="#2F2E41"/>
<path d="M91.7195 131.174L84.2857 131.721C84.2857 131.721 59.1192 146.449 56.9952 149.729C54.8713 153.008 51.9508 157.654 54.6058 162.573C57.2607 167.492 55.2401 227.052 55.2401 227.052L67.9269 224.098L76.0553 161.782L93.047 159.322C93.047 159.322 98.8878 172.293 96.7639 183.024C94.6399 193.755 93.5779 200.314 93.5779 200.314L90.923 263.715L101.277 263.442L110.57 204.686L126.499 158.229L105.791 133.087L91.7195 131.174Z" fill="#2F2E41"/>
<path d="M128.358 63.9473L112.959 65.5869L111.366 71.0525L96.4987 79.2509L101.278 113.684L97.5606 119.696L99.1536 125.708C99.1536 125.708 94.9057 126.255 95.4367 129.534L85.8789 131.174C85.8789 131.174 98.5557 133.838 101.244 146.99C103.932 160.142 126.234 161.781 126.234 161.781L143.757 105.486L145.35 72.1456L133.137 68.8663L128.358 63.9473Z" fill="#E6E6E6"/>
<path d="M120.243 61.8732C126.854 61.8732 132.214 56.3566 132.214 49.5516C132.214 42.7466 126.854 37.23 120.243 37.23C113.632 37.23 108.272 42.7466 108.272 49.5516C108.272 56.3566 113.632 61.8732 120.243 61.8732Z" fill="#FFB6B6"/>
<path d="M114.021 60.6678C114.021 60.6678 103.402 60.1212 104.464 51.3763C101.835 42.0639 104.162 36.0174 112.428 33.8864C112.428 33.8864 114.552 33.3398 115.083 33.3398C122.067 33.3398 125.703 35.5261 125.703 35.5261C125.703 35.5261 125.172 33.3614 125.703 33.8972C126.234 34.433 126.765 35.5261 126.765 35.5261C126.765 35.5261 132.075 38.2589 132.075 43.7245C132.075 49.19 132.075 47.0038 132.075 47.0038C132.075 47.0038 131.013 47.0038 129.951 43.7245C128.889 40.4451 122.013 42.6313 122.013 42.6313L122.517 43.7245L120.924 43.1779L119.331 44.8176L118.269 44.271C118.269 44.271 114.021 44.271 114.552 44.271C115.083 44.271 114.713 47.9854 114.713 47.9854L110.835 52.4694L115.083 60.6678H114.021Z" fill="#2F2E41"/>
<path d="M57.4419 125.902C54.4188 127.6 52.8192 130.582 53.8692 132.563C54.9191 134.543 58.221 134.771 61.2441 133.073C62.5674 132.33 63.6179 131.34 64.2928 130.297L77.0149 122.935L73.5316 116.863L61.3598 124.765C60.1419 124.785 58.7652 125.159 57.4419 125.902Z" fill="#FFB6B6"/>
<path d="M100.345 79.5063C100.345 79.5063 95.3583 77.5518 93.64 79.9045C91.9217 82.2571 80.5709 110.804 80.5709 110.804L63.917 119.757L68.6002 128.151L90.0454 120.802L104.194 94.1665L100.345 79.5063Z" fill="#E6E6E6"/>
<path d="M257.609 173.258V231.193C257.609 236.316 253.56 240.485 248.582 240.485H109.463C104.486 240.485 100.437 236.316 100.437 231.193V173.258C100.437 168.134 104.486 163.966 109.463 163.966H248.582C253.56 163.966 257.609 168.134 257.609 173.258Z" fill="white"/>
<path d="M257.609 173.258V231.193C257.609 236.316 253.56 240.485 248.582 240.485H109.463C104.486 240.485 100.437 236.316 100.437 231.193V173.258C100.437 168.134 104.486 163.966 109.463 163.966H248.582C253.56 163.966 257.609 168.134 257.609 173.258ZM248.582 239.391C252.981 239.391 256.547 235.721 256.547 231.193V201.984C256.547 181.591 240.486 165.059 220.674 165.059H109.463C105.064 165.059 101.498 168.73 101.498 173.258V231.193C101.498 235.721 105.064 239.391 109.463 239.391H248.582Z" fill="#3F3D56"/>
<path d="M162.886 198.969H144.716C144.258 198.969 143.885 199.352 143.885 199.824C143.885 200.295 144.258 200.679 144.716 200.679H162.886C163.344 200.679 163.717 200.295 163.717 199.824C163.717 199.352 163.344 198.969 162.886 198.969Z" fill="#F9A826"/>
<path d="M190.498 198.969H172.327C171.869 198.969 171.496 199.352 171.496 199.824C171.496 200.295 171.869 200.679 172.327 200.679H190.498C190.956 200.679 191.328 200.295 191.328 199.824C191.328 199.352 190.956 198.969 190.498 198.969Z" fill="#F9A826"/>
<path d="M162.886 208.318H144.716C144.258 208.318 143.885 208.702 143.885 209.173C143.885 209.645 144.258 210.029 144.716 210.029H162.886C163.344 210.029 163.717 209.645 163.717 209.173C163.717 208.702 163.344 208.318 162.886 208.318Z" fill="#F9A826"/>
<path d="M190.498 208.318H172.327C171.869 208.318 171.496 208.702 171.496 209.173C171.496 209.645 171.869 210.029 172.327 210.029H190.498C190.956 210.029 191.328 209.645 191.328 209.173C191.328 208.702 190.956 208.318 190.498 208.318Z" fill="#F9A826"/>
<path d="M218.94 209.173C218.94 208.702 218.567 208.318 218.109 208.318H199.938C199.48 208.318 199.107 208.702 199.107 209.173C199.107 209.645 199.48 210.029 199.938 210.029H218.109C218.567 210.029 218.94 209.645 218.94 209.173Z" fill="#F9A826"/>
<path d="M152.266 191.503C152.724 191.503 153.097 191.12 153.097 190.648C153.097 190.176 152.724 189.793 152.266 189.793H134.095C133.637 189.793 133.265 190.176 133.265 190.648C133.265 191.12 133.637 191.503 134.095 191.503H152.266Z" fill="#F9A826"/>
<path d="M205.779 191.156H223.95C224.408 191.156 224.781 190.772 224.781 190.3C224.781 189.829 224.408 189.445 223.95 189.445H205.779C205.321 189.445 204.948 189.829 204.948 190.3C204.948 190.772 205.321 191.156 205.779 191.156Z" fill="#F9A826"/>
<path d="M159.921 191.335H197.593C198.051 191.335 198.423 190.952 198.423 190.48C198.423 190.008 198.051 189.625 197.593 189.625H159.921C159.463 189.625 159.09 190.008 159.09 190.48C159.09 190.952 159.463 191.335 159.921 191.335Z" fill="#F9A826"/>
<path d="M174.744 216.812H156.573C156.115 216.812 155.742 217.196 155.742 217.668C155.742 218.139 156.115 218.523 156.573 218.523H174.744C175.202 218.523 175.574 218.139 175.574 217.668C175.574 217.196 175.202 216.812 174.744 216.812Z" fill="#F9A826"/>
<path d="M233.429 172.821V230.756C233.429 235.879 229.38 240.048 224.402 240.048H168.118C163.14 240.048 159.091 235.879 159.091 230.756V172.821C159.091 167.697 163.14 163.529 168.118 163.529H224.402C229.38 163.529 233.429 167.697 233.429 172.821Z" fill="white"/>
<path d="M233.429 172.821V230.756C233.429 235.879 229.38 240.048 224.402 240.048H168.118C163.14 240.048 159.091 235.879 159.091 230.756V172.821C159.091 167.697 163.14 163.529 168.118 163.529H224.402C229.38 163.529 233.429 167.697 233.429 172.821ZM220.911 238.954C227.238 238.954 232.367 233.675 232.367 227.162V201.547C232.367 181.154 216.306 164.622 196.494 164.622H168.118C163.719 164.622 160.153 168.293 160.153 172.821V222.673C160.153 231.665 167.235 238.954 175.971 238.954L220.911 238.954Z" fill="#3F3D56"/>
<path d="M203.753 187.191H185.582C185.124 187.191 184.751 186.808 184.751 186.336C184.751 185.864 185.124 185.481 185.582 185.481H203.753C204.211 185.481 204.583 185.864 204.583 186.336C204.583 186.808 204.211 187.191 203.753 187.191Z" fill="#F9A826"/>
<path d="M203.753 205.426H185.582C185.124 205.426 184.751 205.042 184.751 204.571C184.751 204.099 185.124 203.716 185.582 203.716H203.753C204.211 203.716 204.583 204.099 204.583 204.571C204.583 205.042 204.211 205.426 203.753 205.426Z" fill="#F9A826"/>
<path d="M194.725 230.568H176.554C176.096 230.568 175.724 230.184 175.724 229.713C175.724 229.241 176.096 228.858 176.554 228.858H194.725C195.183 228.858 195.556 229.241 195.556 229.713C195.556 230.184 195.183 230.568 194.725 230.568Z" fill="#F9A826"/>
<path d="M213.503 196.315H175.831C175.373 196.315 175 195.931 175 195.46C175 194.988 175.373 194.604 175.831 194.604H213.503C213.961 194.604 214.333 194.988 214.333 195.46C214.333 195.931 213.961 196.315 213.503 196.315Z" fill="#F9A826"/>
<path d="M222.839 140.718C222.839 122.645 207.999 112.702 191.047 107.993C169.313 101.956 153.395 114.173 159.255 140.718C160.583 146.734 163.759 153.76 167.69 159.771H198.888C209.309 152.787 222.839 154.746 222.839 140.718Z" fill="#F9A826"/>
<path d="M190.58 174.883C192.355 171.401 194.605 168.888 197.084 166.976H167.863C175.384 178.034 185.358 185.131 190.58 174.883Z" fill="#F9A826"/>
<path d="M187.208 121.37C189.084 121.37 190.605 122.935 190.605 124.866V131.858H183.812V124.866C183.812 122.935 185.332 121.37 187.208 121.37ZM192.303 131.858V124.866C192.303 121.97 190.022 119.622 187.208 119.622C184.395 119.622 182.113 121.97 182.113 124.866V131.858C180.238 131.858 178.717 133.424 178.717 135.355V144.095C178.717 146.026 180.238 147.591 182.113 147.591H192.303C194.179 147.591 195.7 146.026 195.7 144.095V135.355C195.7 133.424 194.179 131.858 192.303 131.858ZM182.113 133.606H192.303C193.241 133.606 194.002 134.389 194.002 135.355V144.095C194.002 145.061 193.241 145.843 192.303 145.843H182.113C181.175 145.843 180.415 145.061 180.415 144.095V135.355C180.415 134.389 181.175 133.606 182.113 133.606Z" fill="white"/>
<path d="M138.668 162.078C138.258 165.598 139.69 168.669 141.866 168.937C144.042 169.206 146.138 166.57 146.548 163.05C146.727 161.509 146.554 160.054 146.119 158.883L147.673 143.946L140.847 143.345L140.04 158.134C139.349 159.166 138.847 160.538 138.668 162.078Z" fill="#FFB6B6"/>
<path d="M140.305 72.9658C140.305 72.9658 147.739 70.7796 149.332 74.0589C150.925 77.3383 154.642 120.516 154.642 120.516L147.474 154.982L139.243 152.763L143.491 117.784L137.65 91.5488L140.305 72.9658Z" fill="#E6E6E6"/>
<path d="M31.0628 177.817C48.2183 177.817 62.1256 163.502 62.1256 145.844C62.1256 128.185 48.2183 113.87 31.0628 113.87C13.9073 113.87 0 128.185 0 145.844C0 163.502 13.9073 177.817 31.0628 177.817Z" fill="#F9A826"/>
<path d="M31.0628 131.53C33.2571 131.53 35.0359 133.361 35.0359 135.62V143.799H27.0896V135.62C27.0896 133.361 28.8685 131.53 31.0628 131.53ZM37.0225 143.799V135.62C37.0225 132.232 34.3542 129.485 31.0628 129.485C27.7713 129.485 25.103 132.232 25.103 135.62V143.799C22.9087 143.799 21.1299 145.63 21.1299 147.889V158.113C21.1299 160.372 22.9087 162.203 25.103 162.203H37.0225C39.2168 162.203 40.9956 160.372 40.9956 158.113V147.889C40.9956 145.63 39.2168 143.799 37.0225 143.799ZM25.103 145.844H37.0225C38.1196 145.844 39.0091 146.759 39.0091 147.889V158.113C39.0091 159.242 38.1196 160.158 37.0225 160.158H25.103C24.0059 160.158 23.1165 159.242 23.1165 158.113V147.889C23.1165 146.759 24.0059 145.844 25.103 145.844Z" fill="white"/>
</g>
<defs>
<clipPath id="clip0_2350_177">
<rect width="300" height="280" fill="white"/>
</clipPath>
</defs>
</svg>
