<svg width="300" height="280" viewBox="0 0 300 280" fill="none" xmlns="http://www.w3.org/2000/svg">
<g clip-path="url(#clip0_2350_60)">
<path d="M81.0721 25.8158C82.2878 22.6056 84.9093 20.7026 86.9251 21.5617C88.941 22.4209 89.5908 25.7235 88.3751 28.9337C87.9065 30.2224 87.1418 31.3679 86.1382 32.2732L80.8157 45.7977L74.5957 42.8923L80.5018 29.8667C80.3692 28.4764 80.5637 27.0861 81.0677 25.8112L81.0721 25.8158Z" fill="#A0616A"/>
<path d="M58.769 112.159C58.769 112.159 49.8435 107.641 50.4624 104.399C51.0813 101.152 77.672 32.0005 77.672 32.0005L89.9838 40.4533L58.769 112.163V112.159Z" fill="#E6E6E6"/>
<path d="M192.638 280H107.264C94.8465 280 84.7451 269.446 84.7451 256.471V23.5293C84.7451 10.5544 94.8465 0 107.264 0H192.638C205.055 0 215.157 10.5544 215.157 23.5293V256.471C215.157 269.446 205.055 280 192.638 280Z" fill="#D7D7D8"/>
<path d="M192.7 273.63H107.203C98.0121 273.63 90.5322 265.815 90.5322 256.212V23.3304C90.5322 13.7275 98.0121 5.91211 107.203 5.91211H192.7C201.891 5.91211 209.37 13.7275 209.37 23.3304V256.212C209.37 265.815 201.891 273.63 192.7 273.63Z" fill="white"/>
<path d="M162.042 21.4139H137.865C134.673 21.4139 132.078 18.7025 132.078 15.3676C132.078 12.0327 134.673 9.32129 137.865 9.32129H162.042C165.234 9.32129 167.829 12.0327 167.829 15.3676C167.829 18.7025 165.234 21.4139 162.042 21.4139Z" fill="#D7D7D8"/>
<path d="M190.362 93.207H109.546C105.889 93.207 102.924 96.3039 102.924 100.124C102.924 103.944 105.889 107.041 109.546 107.041H190.362C194.019 107.041 196.984 103.944 196.984 100.124C196.984 96.3039 194.019 93.207 190.362 93.207Z" fill="#F9A826"/>
<path d="M132.773 81.7104H106.032C105.395 81.7104 104.878 82.2502 104.878 82.916C104.878 83.5818 105.395 84.1216 106.032 84.1216H132.773C133.41 84.1216 133.927 83.5818 133.927 82.916C133.927 82.2502 133.41 81.7104 132.773 81.7104Z" fill="#F9A826"/>
<path d="M190.362 140.039H109.546C105.889 140.039 102.924 143.136 102.924 146.956C102.924 150.776 105.889 153.873 109.546 153.873H190.362C194.019 153.873 196.984 150.776 196.984 146.956C196.984 143.136 194.019 140.039 190.362 140.039Z" fill="#D7D7D8"/>
<path d="M132.773 128.538H106.032C105.395 128.538 104.878 129.078 104.878 129.744C104.878 130.409 105.395 130.949 106.032 130.949H132.773C133.41 130.949 133.927 130.409 133.927 129.744C133.927 129.078 133.41 128.538 132.773 128.538Z" fill="#D7D7D8"/>
<path d="M190.362 186.867H109.546C105.889 186.867 102.924 189.964 102.924 193.784C102.924 197.604 105.889 200.701 109.546 200.701H190.362C194.019 200.701 196.984 197.604 196.984 193.784C196.984 189.964 194.019 186.867 190.362 186.867Z" fill="#D7D7D8"/>
<path d="M132.773 175.37H106.032C105.395 175.37 104.878 175.91 104.878 176.576C104.878 177.241 105.395 177.781 106.032 177.781H132.773C133.41 177.781 133.927 177.241 133.927 176.576C133.927 175.91 133.41 175.37 132.773 175.37Z" fill="#D7D7D8"/>
<path d="M237.813 56.9986C237.813 56.9986 228.698 58.0748 228.11 72.8187C227.619 85.1053 226.62 91.9553 231.403 94.5188C233.114 95.4334 235.125 95.5165 236.951 94.8883L256.482 88.1769C256.482 88.1769 256.778 66.0565 250.014 60.6845C243.251 55.308 237.813 56.9986 237.813 56.9986Z" fill="#2F2E41"/>
<path d="M248.582 90.8928L238.697 94.2878V79.4238H247.663L248.582 90.8928Z" fill="#FFB6B6"/>
<path d="M218.367 175.287C217.832 178.691 215.657 181.134 213.513 180.742C211.369 180.349 210.061 177.268 210.6 173.859C210.794 172.497 211.312 171.204 212.107 170.1L214.556 155.702L221.223 157.162L218.097 171.199C218.509 172.529 218.601 173.929 218.367 175.287Z" fill="#FFB6B6"/>
<path d="M272.251 173.633C272.909 177.014 271.702 180.105 269.563 180.534C267.423 180.964 265.155 178.566 264.501 175.185C264.223 173.837 264.267 172.442 264.629 171.111L262.025 156.742L268.754 155.628L270.606 169.91C271.442 171.001 272.003 172.275 272.251 173.633Z" fill="#FFB6B6"/>
<path d="M244.864 257.312H235.607V271.035H244.864V257.312Z" fill="#FFB6B6"/>
<path d="M226.594 279.344C225.621 279.344 224.755 279.321 224.101 279.256C221.643 279.021 219.295 277.122 218.115 276.014C217.584 275.515 217.416 274.72 217.69 274.037C217.889 273.547 218.283 273.178 218.774 273.034L225.272 271.094L235.793 263.676L235.913 263.898C235.957 263.981 236.991 265.926 237.336 267.238C237.469 267.736 237.433 268.152 237.235 268.475C237.098 268.697 236.903 268.826 236.748 268.9C236.938 269.108 237.535 269.533 239.374 269.838C242.058 270.281 242.623 267.376 242.646 267.256L242.663 267.159L242.743 267.104C244.02 266.244 244.807 265.852 245.077 265.935C245.245 265.986 245.528 266.078 246.293 273.991C246.368 274.24 246.903 276.06 246.54 277.801C246.147 279.695 238.225 279.044 236.638 278.896C236.594 278.901 230.661 279.344 226.598 279.344H226.594Z" fill="#2F2E41"/>
<path d="M271.222 246.532L263.367 251.65L270.317 263.295L278.172 258.176L271.222 246.532Z" fill="#FFB6B6"/>
<path d="M260.792 277.464C259.705 277.464 258.706 277.326 257.994 277.196C257.296 277.067 256.747 276.485 256.633 275.755C256.553 275.229 256.699 274.697 257.044 274.305L261.575 269.067L266.747 256.956L266.959 257.076C267.039 257.122 268.9 258.198 269.859 259.122C270.226 259.473 270.408 259.847 270.399 260.231C270.394 260.499 270.297 260.711 270.2 260.864C270.465 260.937 271.186 260.965 272.901 260.208C275.403 259.104 274.413 256.323 274.369 256.208L274.333 256.115L274.373 256.027C275.023 254.591 275.487 253.824 275.761 253.746C275.933 253.695 276.216 253.616 280.871 259.912C281.062 260.078 282.436 261.33 283.011 263.007C283.634 264.831 276.583 268.66 275.164 269.409C275.12 269.446 267.742 275.048 264.709 276.642C263.507 277.275 262.083 277.469 260.788 277.469L260.792 277.464Z" fill="#2F2E41"/>
<path d="M251.682 142.552H225.763L223.411 167.744L233.703 260.826H246.934L241.642 207.066L263.105 255.602L274.864 247.002L258.105 201.689C258.105 201.689 264.091 162.215 259.387 152.381C254.683 142.552 251.682 142.552 251.682 142.552Z" fill="#2F2E41"/>
<path d="M264.572 144.09H219.591L235.762 88.4863H253.697L264.572 144.09Z" fill="#F9A826"/>
<path d="M238.591 88.4955C238.591 88.4955 227.42 88.186 226.244 91.2623C225.068 94.3339 211.249 167.448 211.249 167.448H220.365L238.596 88.4955H238.591Z" fill="#F9A826"/>
<path d="M245.859 88.5604C245.859 88.5604 255.7 87.2579 256.876 90.3295C258.052 93.4012 271.871 166.516 271.871 166.516H262.755L245.859 88.5604Z" fill="#F9A826"/>
<path d="M239.923 83.5394C245.362 83.5394 249.772 78.9318 249.772 73.2482C249.772 67.5645 245.362 62.957 239.923 62.957C234.483 62.957 230.073 67.5645 230.073 73.2482C230.073 78.9318 234.483 83.5394 239.923 83.5394Z" fill="#FFB6B6"/>
<path d="M237.225 60.8371C237.225 60.8371 231.806 83.8352 237.831 94.5837L229.343 92.6991C229.343 92.6991 226.054 67.5301 232.668 62.9526L237.225 60.8325V60.8371Z" fill="#2F2E41"/>
<path d="M300 278.794C300 279.178 299.704 279.487 299.337 279.487H0.66311C0.296189 279.487 0 279.178 0 278.794C0 278.411 0.296189 278.102 0.66311 278.102H299.337C299.704 278.102 300 278.411 300 278.794Z" fill="#2E2E41"/>
<path d="M50.8828 80.708L62.2043 84.5972V67.5669H51.9305L50.8828 80.708Z" fill="#A0616A"/>
<path d="M60.8032 72.2786C67.0339 72.2786 72.0849 67.001 72.0849 60.4908C72.0849 53.9807 67.0339 48.7031 60.8032 48.7031C54.5725 48.7031 49.5215 53.9807 49.5215 60.4908C49.5215 67.001 54.5725 72.2786 60.8032 72.2786Z" fill="#A0616A"/>
<path d="M57.929 61.4145L59.4851 63.3868L62.2967 58.2412C62.2967 58.2412 65.8864 58.4352 65.8864 55.65C65.8864 52.8647 69.1798 52.7862 69.1798 52.7862C69.1798 52.7862 73.8437 44.278 64.1844 46.5182C64.1844 46.5182 57.4826 41.7236 54.1537 45.8207C54.1537 45.8207 43.9374 51.1972 46.8595 60.5554L51.7179 70.2045L52.8187 68.0197C52.8187 68.0197 52.1511 58.8509 57.929 61.4053V61.4145Z" fill="#2F2E41"/>
<path d="M47.4832 271.182H56.7402V257.459H47.4832V271.182Z" fill="#A0616A"/>
<path d="M55.7187 279.044C54.1361 279.192 46.2141 279.848 45.8162 277.949C45.4537 276.208 45.9886 274.388 46.0638 274.138C46.8242 266.221 47.1071 266.134 47.2795 266.083C47.5492 266 48.336 266.392 49.6136 267.252L49.6932 267.307L49.7109 267.404C49.733 267.529 50.2989 270.434 52.9822 269.986C54.8213 269.681 55.4181 269.256 55.6082 269.048C55.4534 268.974 55.2589 268.845 55.1219 268.623C54.9229 268.3 54.8876 267.884 55.0202 267.385C55.365 266.069 56.3995 264.124 56.4437 264.046L56.563 263.824L67.0844 271.242L73.5829 273.182C74.0736 273.33 74.467 273.695 74.6659 274.185C74.94 274.868 74.7721 275.663 74.2416 276.162C73.0612 277.27 70.7182 279.169 68.2559 279.404C67.6016 279.469 66.7351 279.492 65.7626 279.492C61.6999 279.492 55.7673 279.053 55.7231 279.044H55.7187Z" fill="#2F2E41"/>
<path d="M68.5657 139.148L44.2826 137.85C44.2826 137.85 40.5603 152.593 45.264 167.956L45.8299 260.471H59.5518L72.4869 165.037L68.5657 139.148Z" fill="#2F2E41"/>
<path d="M64.4671 77.4378L51.1386 70.0474C51.1386 70.0474 36.7756 91.9784 38.7606 103.859C40.7499 115.739 44.2776 137.854 44.2776 137.854L73.6799 139.152L68.5475 95.5998L64.4671 77.4378Z" fill="#E6E6E6"/>
<path d="M54.0701 271.182H63.3271V257.459H54.0701V271.182Z" fill="#A0616A"/>
<path d="M62.3056 279.044C60.723 279.192 52.801 279.848 52.4031 277.949C52.0406 276.208 52.5755 274.388 52.6507 274.138C53.4111 266.221 53.694 266.134 53.8664 266.083C54.1361 266 54.923 266.392 56.2006 267.252L56.2801 267.307L56.2978 267.404C56.3199 267.529 56.8858 270.434 59.5692 269.986C61.4082 269.681 62.005 269.256 62.1951 269.048C62.0403 268.974 61.8458 268.845 61.7088 268.623C61.5099 268.3 61.4745 267.884 61.6071 267.385C61.9519 266.069 62.9864 264.124 63.0306 264.046L63.15 263.824L73.6713 271.242L80.1698 273.182C80.6605 273.33 81.0539 273.695 81.2529 274.185C81.527 274.868 81.359 275.663 80.8285 276.162C79.6481 277.27 77.3051 279.169 74.8428 279.404C74.1885 279.469 73.3221 279.492 72.3495 279.492C68.2868 279.492 62.3542 279.053 62.31 279.044H62.3056Z" fill="#2F2E41"/>
<path d="M73.68 139.148L44.2777 137.85C44.2777 137.85 40.5555 152.593 45.2591 167.956L50.9442 260.471H64.6662L77.6012 165.037L73.68 139.148Z" fill="#2F2E41"/>
<path d="M84.9756 163.305C86.0587 166.566 85.2585 169.795 83.194 170.52C81.1296 171.241 78.5788 169.185 77.4957 165.919C77.0448 164.621 76.9122 163.231 77.1067 161.864L72.6992 147.984L79.2242 145.947L82.8802 159.845C83.8483 160.811 84.5689 161.998 84.98 163.305H84.9756Z" fill="#A0616A"/>
<path d="M47.9824 82.657C47.9824 82.657 57.5666 79.9965 59.1271 82.8787C60.6832 85.761 83.6931 156.303 83.6931 156.303L69.087 158.289L47.9868 82.657H47.9824Z" fill="#E6E6E6"/>
</g>
<defs>
<clipPath id="clip0_2350_60">
<rect width="300" height="280" fill="white"/>
</clipPath>
</defs>
</svg>
