<svg width="37" height="37" viewBox="0 0 37 37" fill="none" xmlns="http://www.w3.org/2000/svg">
<path d="M18.5125 19.7008C17.0885 19.7008 15.6964 19.2785 14.5124 18.4874C13.3284 17.6962 12.4055 16.5717 11.8606 15.2561C11.3156 13.9405 11.173 12.4928 11.4508 11.0961C11.7287 9.69947 12.4144 8.41655 13.4213 7.40961C14.4283 6.40268 15.7112 5.71694 17.1078 5.43913C18.5045 5.16132 19.9522 5.3039 21.2678 5.84885C22.5834 6.3938 23.7079 7.31664 24.4991 8.50068C25.2902 9.68471 25.7125 11.0768 25.7125 12.5008C25.7125 14.4103 24.9539 16.2417 23.6037 17.5919C22.2534 18.9422 20.4221 19.7008 18.5125 19.7008ZM18.5125 7.70078C17.5631 7.70078 16.6351 7.9823 15.8458 8.50973C15.0564 9.03716 14.4412 9.78682 14.0779 10.6639C13.7146 11.541 13.6195 12.5061 13.8047 13.4372C13.9899 14.3683 14.4471 15.2236 15.1184 15.8949C15.7897 16.5662 16.645 17.0233 17.5761 17.2085C18.5072 17.3938 19.4723 17.2987 20.3494 16.9354C21.2265 16.5721 21.9761 15.9569 22.5035 15.1675C23.031 14.3782 23.3125 13.4501 23.3125 12.5008C23.3125 11.2277 22.8068 10.0068 21.9066 9.10667C21.0064 8.2065 19.7855 7.70078 18.5125 7.70078Z" fill="#4CBDCC"/>
<path d="M18.5125 36.5018C15.8514 36.5 13.2238 35.9082 10.8189 34.7691C8.414 33.6299 6.29159 31.9717 4.60447 29.9138L3.98047 29.1458L4.60447 28.3898C6.29301 26.3346 8.41605 24.6791 10.8209 23.5425C13.2257 22.4059 15.8526 21.8164 18.5125 21.8164C21.1724 21.8164 23.7992 22.4059 26.204 23.5425C28.6089 24.6791 30.7319 26.3346 32.4205 28.3898L33.0445 29.1458L32.4205 29.9138C30.7333 31.9717 28.6109 33.6299 26.206 34.7691C23.8011 35.9082 21.1735 36.5 18.5125 36.5018ZM7.12447 29.1578C8.58395 30.7202 10.349 31.9659 12.3101 32.8176C14.2712 33.6693 16.3864 34.1088 18.5245 34.1088C20.6625 34.1088 22.7777 33.6693 24.7388 32.8176C26.6999 31.9659 28.465 30.7202 29.9245 29.1578C28.465 27.5954 26.6999 26.3496 24.7388 25.4979C22.7777 24.6462 20.6625 24.2067 18.5245 24.2067C16.3864 24.2067 14.2712 24.6462 12.3101 25.4979C10.349 26.3496 8.58395 27.5954 7.12447 29.1578Z" fill="#4CBDCC"/>
<path d="M18.512 36.5C14.4233 36.5027 10.4555 35.1133 7.26164 32.5605C4.06778 30.0077 1.8382 26.4436 0.939858 22.4548C0.041515 18.466 0.527944 14.2903 2.31908 10.6147C4.11023 6.93924 7.09934 3.98305 10.7945 2.23273C14.4896 0.482415 18.6705 0.0422685 22.6491 0.984737C26.6277 1.92721 30.1669 4.19613 32.6842 7.41806C35.2014 10.64 36.5468 14.623 36.4988 18.7114C36.4507 22.7998 35.0122 26.7501 32.42 29.912C30.7329 31.9699 28.6105 33.6281 26.2056 34.7673C23.8006 35.9064 21.1731 36.4982 18.512 36.5ZM18.512 2.90001C15.4266 2.90001 12.4105 3.81493 9.84512 5.52908C7.27971 7.24323 5.28022 9.67962 4.09949 12.5301C2.91877 15.3807 2.60984 18.5173 3.21177 21.5434C3.81369 24.5695 5.29945 27.3492 7.48115 29.5309C9.66285 31.7126 12.4425 33.1983 15.4686 33.8002C18.4947 34.4022 21.6313 34.0932 24.4819 32.9125C27.3324 31.7318 29.7688 29.7323 31.4829 27.1669C33.1971 24.6015 34.112 21.5854 34.112 18.5C34.112 14.3626 32.4684 10.3947 29.5429 7.46914C26.6173 4.54358 22.6494 2.90001 18.512 2.90001Z" fill="#4CBDCC"/>
<path d="M5.52832 29.1597C5.52832 29.1597 17.6123 42.6597 29.9123 30.5037L31.4963 29.1597C31.4963 29.1597 21.2243 18.5037 10.7963 24.8997L5.52832 29.1597Z" fill="#4CBDCC"/>
<path d="M18.5117 18.5C21.8254 18.5 24.5117 15.8137 24.5117 12.5C24.5117 9.18629 21.8254 6.5 18.5117 6.5C15.198 6.5 12.5117 9.18629 12.5117 12.5C12.5117 15.8137 15.198 18.5 18.5117 18.5Z" fill="#4CBDCC"/>
</svg>
