<svg width="19" height="20" viewBox="0 0 19 20" fill="none" xmlns="http://www.w3.org/2000/svg">
<g clip-path="url(#clip0_2754_1190)">
<path d="M17 15.2744C17.0085 13.4708 15.7417 12.3426 14.0361 11.9082C13.8547 11.8607 13.6725 11.8442 13.4933 11.8442C13.1541 11.8459 12.8216 11.9004 12.4957 11.938C12.5572 11.9131 12.6222 11.881 12.6898 11.8392C12.8138 11.7621 12.9748 11.7371 13.1155 11.7375C13.2825 11.7372 13.4093 11.7713 13.4099 11.7698C13.4725 11.7857 13.5369 11.751 13.5539 11.692C13.5709 11.6331 13.5339 11.5723 13.4713 11.5564C13.4651 11.5549 13.315 11.5165 13.1155 11.5163C12.9484 11.5167 12.7428 11.543 12.5613 11.6542C12.4057 11.7498 12.2747 11.7821 12.1854 11.7922C12.1588 11.7105 12.1362 11.607 12.1364 11.4937C12.1364 11.4243 12.1446 11.3512 12.1649 11.2757C12.1969 11.1572 12.1209 11.037 11.9953 11.0069C11.8696 10.9767 11.7419 11.0483 11.71 11.1667C11.679 11.281 11.6669 11.3913 11.6669 11.4937C11.6673 11.5805 11.6762 11.6611 11.6896 11.7349C11.4972 11.697 11.2647 11.6384 11.1383 11.5621C11.0204 11.4934 10.8905 11.473 10.7735 11.4729C10.5297 11.4739 10.327 11.5587 10.3192 11.5611C10.2597 11.5855 10.2324 11.6505 10.2583 11.7066C10.2841 11.7626 10.3531 11.7883 10.4126 11.7641C10.4128 11.7633 10.5897 11.6931 10.7735 11.6941C10.8619 11.6939 10.9469 11.7101 11.0146 11.75C11.1852 11.847 11.4335 11.911 11.6352 11.9507C11.282 11.9083 10.9135 11.819 10.5276 11.8161C10.3956 11.8161 10.2612 11.8276 10.1263 11.8587C8.32958 12.2587 6.99071 13.4017 7.00005 15.2744C7.00146 17.5635 8.95136 19.3522 11.4306 19.5954L11.336 19.6735C11.293 19.7089 11.2832 19.7679 11.3127 19.8138C11.3422 19.8599 11.4021 19.8792 11.4553 19.8599L12.0002 19.6624L12.2758 19.8848C12.3031 19.907 12.34 19.916 12.3754 19.9093C12.4107 19.9025 12.441 19.8807 12.4572 19.8503L12.5441 19.6866L13.1421 19.987C13.1914 20.0118 13.2525 20.0004 13.288 19.9596C13.3234 19.9189 13.3236 19.8602 13.2881 19.8194L13.037 19.5304C15.2894 19.122 16.9987 17.4176 17 15.2744ZM12.0001 19.1818C9.47986 19.1787 7.47404 17.4644 7.46944 15.2743C7.47878 13.6198 8.5662 12.6861 10.2375 12.2883C10.3287 12.2673 10.4247 12.2583 10.5274 12.2583C10.9276 12.2542 11.42 12.4115 11.9766 12.4148C12.5456 12.4127 13.06 12.284 13.4933 12.2864C13.6421 12.2864 13.7804 12.3002 13.9104 12.3343C15.4917 12.7606 16.5221 13.6834 16.5306 15.2743C16.526 17.4644 14.5202 19.1787 12.0001 19.1818Z" fill="white"/>
<path d="M15.834 15.2C15.8085 15.1954 15.784 15.2111 15.779 15.2352C15.7253 15.4992 15.6442 15.7544 15.5387 15.9979C15.5288 16.0206 15.5403 16.0463 15.5644 16.0557C15.5883 16.0649 15.6157 16.054 15.6256 16.0314C15.7336 15.7825 15.8164 15.5216 15.8713 15.2517C15.8761 15.2278 15.8594 15.2046 15.834 15.2Z" fill="white"/>
<path d="M15.2691 16.6005C15.2473 16.5875 15.2182 16.5939 15.2045 16.6145C14.5866 17.5456 13.5774 18.2311 12.3885 18.4748C12.3632 18.48 12.3471 18.5036 12.3527 18.5274C12.3582 18.5513 12.3832 18.5665 12.4085 18.5612C13.6224 18.3123 14.6528 17.6127 15.2842 16.6615C15.2978 16.6407 15.2912 16.6135 15.2691 16.6005Z" fill="white"/>
</g>
<g clip-path="url(#clip1_2754_1190)">
<path d="M17.9111 4.739C17.8617 4.68372 17.7732 4.62295 17.6595 4.62317C17.4053 4.65208 17.3565 4.79148 17.2477 4.91996C17.1959 4.99351 17.1395 5.0799 17.0763 5.17515C16.2758 4.44956 15.1673 4 13.9443 4C12.6875 4 11.5517 4.47483 10.7467 5.23604C10.578 5.07126 10.3813 4.96323 10.1522 4.9444C9.94617 4.94156 9.75995 5.06622 9.65385 5.24339C9.23779 5.90271 9 6.66679 9 7.47964C9.00017 9.68721 10.7502 11.5243 13.0638 11.9205C13.0791 11.9233 13.0944 11.9258 13.1097 11.9285C13.1134 11.9291 13.1171 11.9296 13.1208 11.9302C13.3878 11.9758 13.663 12.0001 13.9443 12C13.9519 12 13.9594 11.9997 13.967 11.9996C13.9781 11.9997 13.989 12 14.0001 12C16.7611 12 18.9998 9.97665 19 7.47964C19.0028 6.38345 18.6378 5.51779 17.9111 4.739ZM16.8348 5.4927C16.8393 5.49699 16.8446 5.50021 16.8495 5.50403C16.5637 5.89589 16.1583 6.35341 15.5231 6.7148C15.0582 6.97912 14.4236 7.40227 13.8793 7.77817C13.8811 7.74919 13.8823 7.72005 13.8823 7.6905C13.8802 7.17444 13.6277 6.55066 13.5468 5.89108C13.541 5.84481 13.5384 5.79988 13.5384 5.75611C13.523 5.02787 14.3437 4.58733 14.7802 4.4579C15.5789 4.61109 16.2892 4.97922 16.8348 5.4927ZM13.9443 4.37894C14.0952 4.37894 14.2442 4.38674 14.3907 4.4014C13.9068 4.62173 13.3416 5.05879 13.3293 5.75611C13.3293 5.80707 13.3324 5.8591 13.3391 5.91233C13.4258 6.59787 13.6755 7.22964 13.6733 7.6905C13.6732 7.78234 13.6634 7.86612 13.6426 7.94262C13.3187 8.16874 13.0467 8.36349 12.8922 8.47481C12.8084 8.37804 12.7219 8.28351 12.633 8.19242C11.7612 7.30611 11.6065 7.12484 11.3417 6.28702C11.2497 6.02221 11.1359 5.76547 10.9964 5.54836C11.7292 4.82925 12.7775 4.37905 13.9443 4.37894ZM9.4182 7.47964C9.41837 6.73386 9.63587 6.03559 10.0169 5.4314C10.0894 5.32534 10.122 5.32603 10.1521 5.32319C10.2034 5.31349 10.3785 5.40313 10.536 5.60668C10.6958 5.80454 10.8464 6.08878 10.939 6.38929C11.2039 7.26299 11.4559 7.57778 12.3217 8.44549C13.1018 9.22128 13.7026 10.3839 13.6907 10.878C13.6907 10.9145 13.6877 10.9462 13.6827 10.9718C13.6305 11.2391 13.5941 11.3955 13.5713 11.4825C13.549 11.5693 13.5436 11.5717 13.5459 11.5726L13.5454 11.5734L13.5454 11.5737C13.5416 11.5823 13.5395 11.5909 13.5373 11.5996C13.3879 11.5859 13.2406 11.5655 13.0958 11.5391C12.9661 11.5139 12.6769 11.4398 12.6586 11.439C10.7838 10.9192 9.42196 9.34465 9.4182 7.47964ZM14.6343 11.5676C14.418 11.6014 14.1957 11.6196 13.9687 11.6208C13.9673 11.6208 13.966 11.6208 13.9646 11.6208C13.9893 11.5333 14.0301 11.366 14.0946 11.0379C14.1045 10.9862 14.1089 10.9329 14.1089 10.8781C14.0996 10.3367 13.71 9.51845 13.1412 8.77949C13.5607 8.47701 14.9437 7.49044 15.7451 7.03584C16.4855 6.61557 16.9428 6.07378 17.2462 5.64665C17.3978 5.43329 17.5123 5.24722 17.5993 5.12491C17.6189 5.09713 17.6371 5.07296 17.6533 5.05284C18.2809 5.75767 18.579 6.48939 18.5817 7.47968C18.5781 9.3018 17.2781 10.8468 15.4699 11.4016C15.3953 11.4245 14.7989 11.5418 14.6343 11.5676Z" fill="white"/>
<path d="M17.3368 9.37689C17.3172 9.36579 17.2915 9.3711 17.2791 9.38879C16.6963 10.2298 15.7443 10.849 14.6228 11.0691C14.6002 11.0735 14.5859 11.0936 14.5908 11.1142C14.5956 11.1346 14.6179 11.1476 14.6405 11.1432C15.7843 10.9186 16.7552 10.2874 17.3499 9.42918C17.3623 9.41134 17.3563 9.388 17.3368 9.37689Z" fill="white"/>
<path d="M17.8706 8.11399C17.848 8.10997 17.8261 8.12346 17.8218 8.144C17.771 8.38251 17.6947 8.613 17.5949 8.83302C17.5862 8.85231 17.5964 8.87447 17.6177 8.88243C17.6391 8.89039 17.6636 8.8811 17.6724 8.86182C17.7741 8.63709 17.8521 8.40184 17.9038 8.15828C17.9082 8.13775 17.8934 8.11793 17.8706 8.11399Z" fill="white"/>
</g>
<g clip-path="url(#clip2_2754_1190)">
<path d="M8.81794 7.99827C8.50411 6.86241 8.06735 5.07677 7.6292 3.52627C7.40969 2.7504 7.19045 2.03334 6.98211 1.47645C6.75116 0.912456 6.63077 0.540413 6.29199 0.303783C5.94503 0.101478 5.61298 -0.00019512 5.29768 2.81108e-07C4.34056 0.0225365 3.85917 0.841331 3.50742 1.51768C3.05636 2.42277 0.363254 6.28461 0.0565402 9.07206C0.0201549 9.41369 0 9.76118 0 10.1084C0.00119732 11.3089 0.236937 12.5144 0.913423 13.4496C1.58785 14.3881 2.72723 15.0065 4.35007 14.9999C4.38206 14.9999 4.41426 14.9997 4.44679 14.9993C7.687 14.9337 9.01018 11.8286 8.99987 9.45121C8.99973 8.93131 8.939 8.43721 8.81794 7.99827ZM4.43727 14.3481C4.40814 14.3485 4.379 14.3487 4.35007 14.3487C1.48328 14.3296 0.70469 12.3706 0.665046 10.1084C0.665046 9.78593 0.683804 9.46058 0.718127 9.13961C0.974487 6.6317 3.59263 2.78694 4.10256 1.80863C4.4392 1.13515 4.84077 0.628669 5.29768 0.651141C5.46524 0.651141 5.67836 0.704355 5.95195 0.863606C5.95295 0.862825 5.95348 0.862499 5.97916 0.898127C6.22621 1.20022 6.67367 2.53747 7.06952 3.99047C7.47621 5.45604 7.87758 7.0881 8.17598 8.16833C8.27901 8.5407 8.33496 8.98146 8.33476 9.45121C8.32444 11.665 7.1371 14.329 4.43727 14.3481Z" fill="white"/>
<path d="M4.55677 6.10156C3.84769 6.10886 2.45135 6.84917 2.07679 8.61826C2.02005 8.8928 1.98067 9.19749 1.98047 9.50896C1.98067 10.0597 2.10413 10.6391 2.49698 11.0877C2.88983 11.537 3.54291 11.8263 4.52158 11.8246C4.53369 11.8246 4.54593 11.8246 4.55797 11.8246C6.4371 11.8165 7.04906 10.3365 7.04294 9.17443C7.04254 8.75947 6.97223 8.37544 6.8551 8.07993C6.40005 6.98171 5.29226 6.12299 4.55677 6.10156ZM4.55564 11.499C4.54433 11.499 4.53283 11.499 4.52152 11.499C2.70472 11.4789 2.3378 10.5222 2.31312 9.50896C2.31312 9.22472 2.34964 8.94028 2.40272 8.68274C2.72733 7.06697 4.04977 6.41961 4.55684 6.42703C5.0377 6.40567 6.17222 7.21847 6.54526 8.19841C6.6439 8.44481 6.71075 8.79679 6.71035 9.17437C6.69499 10.2595 6.2138 11.4819 4.55564 11.499Z" fill="white"/>
<path d="M6.19372 9.51706C6.15766 9.50957 6.12248 9.53223 6.11496 9.56727C5.94873 10.3415 5.24384 10.9106 4.41756 10.9104C4.38403 10.9104 4.35031 10.9094 4.31632 10.9076C4.27967 10.9055 4.24834 10.9331 4.24621 10.9689C4.24408 11.0049 4.27208 11.0356 4.3088 11.0377C4.34519 11.0396 4.38157 11.0407 4.41756 11.0407C5.30703 11.0405 6.06567 10.4287 6.2452 9.59411C6.25272 9.55887 6.2297 9.52435 6.19372 9.51706Z" fill="white"/>
<path d="M5.97655 8.33189C5.94416 8.34895 5.93192 8.3883 5.94934 8.42002C6.07014 8.64114 6.14185 8.89028 6.15136 9.15355C6.15256 9.18957 6.18329 9.21764 6.22007 9.2164C6.25686 9.21504 6.28553 9.18494 6.28426 9.14906C6.27415 8.8654 6.19679 8.59672 6.06668 8.35873C6.04932 8.327 6.00888 8.31496 5.97655 8.33189Z" fill="white"/>
</g>
<defs>
<clipPath id="clip0_2754_1190">
<rect width="10" height="9" fill="white" transform="translate(7 11)"/>
</clipPath>
<clipPath id="clip1_2754_1190">
<rect width="10" height="8" fill="white" transform="translate(9 4)"/>
</clipPath>
<clipPath id="clip2_2754_1190">
<rect width="9" height="15" fill="white"/>
</clipPath>
</defs>
</svg>
