<svg width="20" height="20" viewBox="0 0 20 20" fill="none" xmlns="http://www.w3.org/2000/svg">
<circle cx="10" cy="10" r="10" fill="#2A2A2A"/>
<path d="M14.6305 11.8581L12.5113 10.9496C12.2617 10.8415 11.969 10.9144 11.7994 11.125L10.9383 12.1761C9.58572 11.512 8.48707 10.4123 7.823 9.06097L8.87399 8.20085C9.08396 8.02935 9.15544 7.73817 9.04927 7.48857L8.14086 5.36951C8.02183 5.09784 7.72874 4.94922 7.44183 5.01582L5.47305 5.4699C5.19473 5.53337 5 5.77848 5 6.0648C5 10.9923 9.00786 15 13.9357 15C14.2222 15 14.4665 14.8053 14.5304 14.527L14.9845 12.5583C15.0503 12.2722 14.902 11.9753 14.6305 11.8581Z" fill="white"/>
</svg>
