<svg width="20" height="20" viewBox="0 0 20 20" fill="none" xmlns="http://www.w3.org/2000/svg">
<path d="M7 19H5C2.79086 19 1 17.2091 1 15V8.70757C1 7.30884 1.73061 6.01172 2.92679 5.28676L7.92679 2.25646C9.2011 1.48418 10.7989 1.48418 12.0732 2.25646L17.0732 5.28676C18.2694 6.01172 19 7.30884 19 8.70757V15C19 17.2091 17.2091 19 15 19H13M7 19V15C7 13.3431 8.3431 12 10 12C11.6569 12 13 13.3431 13 15V19M7 19H13" stroke="white" stroke-width="2" stroke-linecap="round" stroke-linejoin="round"/>
</svg>
