<svg width="24" height="24" viewBox="0 0 24 24" fill="none" xmlns="http://www.w3.org/2000/svg">
<path d="M9 20.9985H7C4.79086 20.9985 3 19.2076 3 16.9985V10.7061C3 9.30737 3.73061 8.01025 4.92679 7.28529L9.92679 4.25499C11.2011 3.48271 12.7989 3.48271 14.0732 4.25499L19.0732 7.28529C20.2694 8.01025 21 9.30737 21 10.7061V16.9985C21 19.2076 19.2091 20.9985 17 20.9985H15M9 20.9985V16.9985C9 15.3416 10.3431 13.9985 12 13.9985C13.6569 13.9985 15 15.3416 15 16.9985V20.9985M9 20.9985H15" stroke="white" stroke-width="2" stroke-linecap="round" stroke-linejoin="round"/>
</svg>
