<svg width="20" height="20" viewBox="0 0 20 20" fill="none" xmlns="http://www.w3.org/2000/svg">
    <g clip-path="url(#clip0_2871_10126)">
        <path
            d="M10 18.75C9.86563 18.75 9.73125 18.7069 9.61875 18.6206C9.2775 18.3575 1.25 12.1225 1.25 6.875C1.25 4.11813 3.49313 1.875 6.25 1.875C9.00688 1.875 11.25 4.11813 11.25 6.875C11.25 7.22 10.9706 7.5 10.625 7.5C10.28 7.5 10 7.22 10 6.875C10 4.80687 8.31812 3.125 6.25 3.125C4.18187 3.125 2.5 4.80687 2.5 6.875C2.5 10.9169 8.42312 16.0331 10 17.3244C11.5763 16.0331 17.5 10.9125 17.5 6.875C17.5 4.80687 15.8181 3.125 13.75 3.125C13.1906 3.125 12.6525 3.245 12.1506 3.48125C11.8381 3.62875 11.465 3.49437 11.3188 3.1825C11.1719 2.87 11.3056 2.49812 11.6175 2.35062C12.2875 2.035 13.005 1.875 13.75 1.875C16.5069 1.875 18.75 4.11813 18.75 6.875C18.75 12.1225 10.7225 18.3575 10.3813 18.6206C10.2688 18.7069 10.1344 18.75 10 18.75Z"
            fill="red" />
    </g>
    <defs>
        <clipPath id="clip0_2871_10126">
            <rect width="20" height="20" fill="white" />
        </clipPath>
    </defs>
</svg>
