<svg width="24" height="24" viewBox="0 0 24 24" fill="none" xmlns="http://www.w3.org/2000/svg">
<g clip-path="url(#clip0_2574_1471)">
<path d="M20.94 11.085C20.48 6.91496 17.17 3.60496 13 3.14496V1.08496H11V3.14496C6.83 3.60496 3.52 6.91496 3.06 11.085H1V13.085H3.06C3.52 17.255 6.83 20.565 11 21.025V23.085H13V21.025C17.17 20.565 20.48 17.255 20.94 13.085H23V11.085H20.94ZM12 19.085C8.135 19.085 5 15.95 5 12.085C5 8.21996 8.135 5.08496 12 5.08496C15.865 5.08496 19 8.21996 19 12.085C19 15.95 15.865 19.085 12 19.085Z" fill="#2A2A2A"/>
<circle cx="12" cy="12" r="3.25" stroke="#2A2A2A" stroke-width="1.5"/>
</g>
<defs>
<clipPath id="clip0_2574_1471">
<rect width="24" height="24" fill="white"/>
</clipPath>
</defs>
</svg>
