<svg width="20" height="20" viewBox="0 0 20 20" fill="none" xmlns="http://www.w3.org/2000/svg">
<circle cx="10" cy="10" r="10" fill="#2A2A2A"/>
<path d="M6.4375 13.75H13.0625C13.3027 13.75 13.5 13.5566 13.5 13.3184V9.17969C13.5 8.94141 13.3047 8.75 13.0625 8.75H12.6406V8.14648C12.6406 7.33594 12.3242 6.43555 11.8086 5.89258C11.2949 5.34961 10.5586 5 9.75195 5H9.75H9.74805C8.94141 5 8.20508 5.34961 7.69141 5.89062C7.17578 6.43359 6.85938 7.33398 6.85938 8.14453V8.75H6.48828H6.4375C6.19531 8.75 6 8.94336 6 9.17969V13.3184C6 13.5566 6.19531 13.75 6.4375 13.75ZM7.89453 8.14648C7.89453 7.61328 8.08789 6.95312 8.44336 6.57812V6.57227C8.78711 6.20898 9.26172 5.99609 9.74805 5.99609H9.75H9.75195C10.2383 5.99609 10.7129 6.20898 11.0566 6.57227V6.57617L11.0547 6.57812C11.4121 6.95312 11.6035 7.61328 11.6035 8.14648V8.75H11.2617H8.23438H7.89453V8.14648Z" fill="white"/>
</svg>
