<svg width="24" height="19" viewBox="0 0 24 19" fill="none" xmlns="http://www.w3.org/2000/svg">
<path d="M5.24004 9.16959V9.16283V2.40231L5.17764 2.35603H5.17244L3.75284 1.30563C2.88444 0.660831 1.64684 0.692031 0.877239 1.45123C0.362439 1.96083 0.0400391 2.66803 0.0400391 3.45323V5.32627L5.24004 9.16959ZM18.76 9.16283V9.16959L23.96 5.32627V3.45323C23.96 2.67843 23.648 1.97123 23.1384 1.46163C22.3792 0.703991 21.1806 0.615071 20.318 1.25207L18.8224 2.35603L18.76 2.40231V9.16283ZM6.28004 9.93139L11.6912 13.9312C11.8747 14.067 12.1259 14.067 12.3094 13.9312L17.72 9.93139V3.17087L12 7.40003L6.28004 3.17087V9.93139ZM18.76 10.4623V18.32C18.76 18.6071 18.993 18.84 19.28 18.84H22.66C23.3782 18.84 23.96 18.2582 23.96 17.54V6.61847L18.76 10.4623ZM5.24004 10.4623L0.0400391 6.61847V17.54C0.0400391 18.2582 0.621919 18.84 1.34004 18.84H4.72004C5.00708 18.84 5.24004 18.6071 5.24004 18.32V10.4623Z" fill="#DAA520"/>
</svg>
