<svg width="24" height="24" viewBox="0 0 24 24" fill="none" xmlns="http://www.w3.org/2000/svg">
<path d="M2 18.003C2 18.5526 2.4456 18.9982 2.9952 18.9982H11.0048C11.5544 18.9982 12 18.5526 12 18.003C12 17.4534 11.5544 17.0078 11.0048 17.0078H2.9952C2.4456 17.0078 2 17.4534 2 18.003Z" fill="black"/>
<path d="M2 11.999C2 12.5487 2.4456 12.9942 2.9952 12.9942H21.0048C21.5544 12.9942 22 12.5487 22 11.999C22 11.4494 21.5544 11.0039 21.0048 11.0039H2.9952C2.4456 11.0039 2 11.4494 2 11.999Z" fill="black"/>
<path d="M2.9952 6.99039C2.4456 6.99039 2 6.54482 2 5.99519C2 5.44556 2.4456 5 2.9952 5H15.0048C15.5544 5 16 5.44556 16 5.99519C16 6.54482 15.5544 6.99039 15.0048 6.99039H2.9952Z" fill="black"/>
</svg>
