<svg width="24" height="24" viewBox="0 0 24 24" fill="none" xmlns="http://www.w3.org/2000/svg">
<circle cx="12" cy="12" r="12" fill="#DAA520"/>
<path d="M7.58333 17H16.4167C16.737 17 17 16.7569 17 16.4574V11.2545C17 10.9549 16.7396 10.7143 16.4167 10.7143H15.8542V9.95558C15.8542 8.93661 15.4323 7.80469 14.7448 7.1221C14.0599 6.43951 13.0781 6 12.0026 6H12H11.9974C10.9219 6 9.9401 6.43951 9.25521 7.11964C8.56771 7.80223 8.14583 8.93415 8.14583 9.95313V10.7143H7.65104H7.58333C7.26042 10.7143 7 10.9574 7 11.2545V16.4574C7 16.7569 7.26042 17 7.58333 17ZM9.52604 9.95558C9.52604 9.28527 9.78385 8.45536 10.2578 7.98393V7.97656C10.7161 7.51987 11.349 7.25223 11.9974 7.25223H12H12.0026C12.651 7.25223 13.2839 7.51987 13.7422 7.97656V7.98147L13.7396 7.98393C14.2161 8.45536 14.4714 9.28527 14.4714 9.95558V10.7143H14.0156H9.97917H9.52604V9.95558Z" fill="white"/>
</svg>
