<svg width="18" height="18" viewBox="0 0 18 18" fill="none" xmlns="http://www.w3.org/2000/svg">
<path d="M12.375 5.625L14.625 9L13.5 13.2188V14.625H7.875V5.625H12.375Z" fill="#D9DAE2"/>
<path d="M10.6822 0.84375H3.94284C3.4739 0.84375 3.09375 1.2239 3.09375 1.69284V12.3697C3.09375 12.8386 3.4739 13.2188 3.94284 13.2188H10.6822C11.1511 13.2188 11.5312 12.8386 11.5312 12.3697V1.69284C11.5312 1.2239 11.1511 0.84375 10.6822 0.84375Z" fill="#027DE5"/>
<path d="M10.6875 0.84375V0.848531V4.78603C10.6876 5.7826 10.4913 6.76943 10.11 7.69016C9.72871 8.61089 9.16976 9.4475 8.46511 10.1522C7.76045 10.8569 6.92389 11.4159 6.00318 11.7973C5.08248 12.1787 4.09566 12.375 3.09909 12.375H3.09375C3.09509 12.5992 3.18507 12.8138 3.34404 12.9718C3.50302 13.1299 3.71809 13.2187 3.94228 13.2188H10.6822C10.9073 13.2188 11.1233 13.1293 11.2826 12.9701C11.4418 12.8108 11.5312 12.5948 11.5312 12.3697V1.69284C11.5313 1.46855 11.4426 1.25334 11.2845 1.09424C11.1264 0.935145 10.9118 0.845088 10.6875 0.84375Z" fill="#0468AD"/>
<path d="M13.7812 14.3438H7.59375V17.1562H13.7812V14.3438Z" fill="#CFCFD9"/>
<path d="M6.1875 0.84375H4.5V13.2188H6.1875V0.84375Z" fill="#444444"/>
<path d="M4.5 12.2437V13.2188H6.1875V11.7178C5.64764 11.9588 5.08122 12.1354 4.5 12.2437Z" fill="black"/>
<path d="M9.59934 2.25H8.96316C8.67284 2.25 8.4375 2.48534 8.4375 2.77566V3.97434C8.4375 4.26466 8.67284 4.5 8.96316 4.5H9.59934C9.88966 4.5 10.125 4.26466 10.125 3.97434V2.77566C10.125 2.48534 9.88966 2.25 9.59934 2.25Z" fill="#CCEAFF"/>
<path d="M10.6875 7.03125V10.4062L9 12.0938V14.3438H12.375V7.03125H10.6875Z" fill="#E5E6EB"/>
<path d="M9.28125 14.9062L8.15625 16.0312V14.9062H9.28125Z" fill="white"/>
<path d="M14.8967 9.07256C14.907 9.03396 14.909 8.9936 14.9025 8.95417C14.896 8.91474 14.8812 8.87715 14.859 8.84391L12.609 5.46891C12.5833 5.4304 12.5485 5.39883 12.5077 5.377C12.4669 5.35516 12.4213 5.34374 12.375 5.34375H11.5312V5.90625H12.2245L14.3204 9.05034L13.2283 13.1462C13.2219 13.1698 13.2187 13.1942 13.2188 13.2188V14.0625H8.15625V13.2188H7.59375V14.0625C7.51916 14.0625 7.44762 14.0921 7.39488 14.1449C7.34213 14.1976 7.3125 14.2692 7.3125 14.3438V17.1562C7.3125 17.2308 7.34213 17.3024 7.39488 17.3551C7.44762 17.4079 7.51916 17.4375 7.59375 17.4375H13.7812C13.8558 17.4375 13.9274 17.4079 13.9801 17.3551C14.0329 17.3024 14.0625 17.2308 14.0625 17.1562V14.3438C14.0625 14.2692 14.0329 14.1976 13.9801 14.1449C13.9274 14.0921 13.8558 14.0625 13.7812 14.0625V13.2556L14.8967 9.07256ZM13.5 16.875H7.875V14.625H13.5V16.875Z" fill="black"/>
<path d="M12.6562 14.3438H12.0938V7.3125H10.9688V10.4062C10.9687 10.4808 10.9391 10.5524 10.8863 10.6051L9.28125 12.2102V14.3438H8.71875V12.0938C8.71877 12.0192 8.74841 11.9476 8.80116 11.8949L10.4062 10.2898V7.03125C10.4062 6.95666 10.4359 6.88512 10.4886 6.83238C10.5414 6.77963 10.6129 6.75 10.6875 6.75H12.375C12.4496 6.75 12.5211 6.77963 12.5739 6.83238C12.6266 6.88512 12.6562 6.95666 12.6562 7.03125V14.3438Z" fill="black"/>
</svg>
