<svg width="234" height="38" viewBox="0 0 234 38" fill="none" xmlns="http://www.w3.org/2000/svg">
<path d="M0.160511 37V0.636363H14.5071C17.2652 0.636363 19.6148 1.16311 21.5561 2.21662C23.4974 3.25829 24.977 4.70833 25.995 6.56676C27.0249 8.41335 27.5398 10.544 27.5398 12.9588C27.5398 15.3736 27.0189 17.5043 25.9773 19.3509C24.9356 21.1974 23.4264 22.6357 21.4496 23.6655C19.4846 24.6953 17.1054 25.2102 14.3118 25.2102H5.16761V19.049H13.0689C14.5485 19.049 15.7678 18.7945 16.7266 18.2855C17.6972 17.7647 18.4193 17.0485 18.8928 16.1371C19.3781 15.2138 19.6207 14.1544 19.6207 12.9588C19.6207 11.7514 19.3781 10.6979 18.8928 9.79829C18.4193 8.88684 17.6972 8.18253 16.7266 7.68537C15.7559 7.17637 14.5249 6.92188 13.0334 6.92188H7.84872V37H0.160511ZM32.4415 37V9.72727H39.7746V14.4858H40.0587C40.5559 12.7931 41.3904 11.5147 42.5623 10.6506C43.7341 9.77462 45.0836 9.33665 46.6105 9.33665C46.9893 9.33665 47.3977 9.36032 47.8357 9.40767C48.2737 9.45502 48.6584 9.52012 48.9898 9.60298V16.3146C48.6347 16.2081 48.1435 16.1134 47.5161 16.0305C46.8887 15.9477 46.3146 15.9062 45.7938 15.9062C44.6811 15.9062 43.6868 16.1489 42.8108 16.6342C41.9467 17.1077 41.2602 17.7706 40.7512 18.6229C40.254 19.4751 40.0054 20.4576 40.0054 21.5703V37H32.4415ZM64.0034 37.5327C61.2454 37.5327 58.8602 36.9467 56.8479 35.7749C54.8474 34.5911 53.3027 32.9458 52.2136 30.8388C51.1246 28.7199 50.5801 26.2637 50.5801 23.4702C50.5801 20.6529 51.1246 18.1908 52.2136 16.0838C53.3027 13.965 54.8474 12.3196 56.8479 11.1477C58.8602 9.96401 61.2454 9.37216 64.0034 9.37216C66.7615 9.37216 69.1407 9.96401 71.1412 11.1477C73.1535 12.3196 74.7042 13.965 75.7932 16.0838C76.8822 18.1908 77.4267 20.6529 77.4267 23.4702C77.4267 26.2637 76.8822 28.7199 75.7932 30.8388C74.7042 32.9458 73.1535 34.5911 71.1412 35.7749C69.1407 36.9467 66.7615 37.5327 64.0034 37.5327ZM64.0389 31.6733C65.2937 31.6733 66.3412 31.3182 67.1817 30.608C68.0221 29.8859 68.6554 28.9034 69.0815 27.6605C69.5195 26.4176 69.7385 25.0031 69.7385 23.4169C69.7385 21.8307 69.5195 20.4162 69.0815 19.1733C68.6554 17.9304 68.0221 16.9479 67.1817 16.2259C66.3412 15.5038 65.2937 15.1428 64.0389 15.1428C62.7723 15.1428 61.707 15.5038 60.8429 16.2259C59.9906 16.9479 59.3455 17.9304 58.9075 19.1733C58.4814 20.4162 58.2683 21.8307 58.2683 23.4169C58.2683 25.0031 58.4814 26.4176 58.9075 27.6605C59.3455 28.9034 59.9906 29.8859 60.8429 30.608C61.707 31.3182 62.7723 31.6733 64.0389 31.6733Z" fill="white"/>
<path d="M115.689 37.4439C113.618 37.4439 111.742 36.9112 110.061 35.8459C108.392 34.7687 107.066 33.1884 106.083 31.1051C105.113 29.0099 104.627 26.4413 104.627 23.3991C104.627 20.2741 105.131 17.6759 106.137 15.6044C107.143 13.5211 108.48 11.9645 110.15 10.9347C111.83 9.89299 113.671 9.37216 115.672 9.37216C117.199 9.37216 118.471 9.63258 119.489 10.1534C120.519 10.6624 121.347 11.3016 121.975 12.071C122.614 12.8286 123.099 13.5743 123.431 14.3082H123.662V0.636363H131.208V37H123.75V32.6321H123.431C123.076 33.3897 122.573 34.1413 121.922 34.8871C121.282 35.621 120.448 36.2306 119.418 36.7159C118.4 37.2012 117.157 37.4439 115.689 37.4439ZM118.086 31.4247C119.306 31.4247 120.335 31.0933 121.176 30.4304C122.028 29.7557 122.679 28.8146 123.129 27.6072C123.591 26.3999 123.821 24.9853 123.821 23.3636C123.821 21.742 123.596 20.3333 123.147 19.1378C122.697 17.9422 122.046 17.0189 121.194 16.3679C120.341 15.7169 119.306 15.3913 118.086 15.3913C116.843 15.3913 115.796 15.7287 114.944 16.4034C114.091 17.0781 113.446 18.0133 113.008 19.2088C112.57 20.4044 112.351 21.7893 112.351 23.3636C112.351 24.9498 112.57 26.3525 113.008 27.5717C113.458 28.7791 114.103 29.7261 114.944 30.4126C115.796 31.0874 116.843 31.4247 118.086 31.4247ZM149.906 37.5327C147.1 37.5327 144.685 36.9645 142.661 35.8281C140.649 34.6799 139.098 33.0582 138.009 30.9631C136.92 28.8561 136.376 26.3643 136.376 23.4879C136.376 20.6825 136.92 18.2204 138.009 16.1016C139.098 13.9827 140.631 12.3314 142.608 11.1477C144.597 9.96401 146.929 9.37216 149.604 9.37216C151.403 9.37216 153.078 9.66217 154.629 10.2422C156.191 10.8104 157.552 11.6686 158.712 12.8168C159.884 13.965 160.796 15.4091 161.447 17.1491C162.098 18.8774 162.423 20.9015 162.423 23.2216V25.299H139.394V20.6115H155.303C155.303 19.5225 155.067 18.5578 154.593 17.7173C154.12 16.8769 153.463 16.2199 152.622 15.7464C151.794 15.2611 150.829 15.0185 149.728 15.0185C148.58 15.0185 147.562 15.2848 146.674 15.8175C145.798 16.3383 145.112 17.0426 144.614 17.9304C144.117 18.8063 143.863 19.7829 143.851 20.8601V25.3168C143.851 26.6662 144.1 27.8321 144.597 28.8146C145.106 29.7971 145.822 30.5547 146.745 31.0874C147.668 31.62 148.763 31.8864 150.03 31.8864C150.87 31.8864 151.64 31.768 152.338 31.5312C153.037 31.2945 153.634 30.9394 154.132 30.4659C154.629 29.9924 155.007 29.4124 155.268 28.7259L162.264 29.1875C161.908 30.8684 161.181 32.3362 160.08 33.5909C158.991 34.8338 157.582 35.8045 155.854 36.5028C154.137 37.1894 152.155 37.5327 149.906 37.5327ZM175.186 37.5149C173.446 37.5149 171.896 37.2131 170.534 36.6094C169.173 35.9938 168.096 35.0883 167.303 33.8928C166.522 32.6854 166.131 31.1821 166.131 29.3828C166.131 27.8677 166.409 26.5952 166.966 25.5653C167.522 24.5355 168.28 23.7069 169.238 23.0795C170.197 22.4522 171.286 21.9787 172.505 21.6591C173.736 21.3395 175.027 21.1146 176.376 20.9844C177.962 20.8187 179.241 20.6648 180.211 20.5227C181.182 20.3688 181.886 20.1439 182.324 19.848C182.762 19.5521 182.981 19.1141 182.981 18.5341V18.4276C182.981 17.303 182.626 16.433 181.916 15.8175C181.217 15.2019 180.223 14.8942 178.933 14.8942C177.572 14.8942 176.489 15.196 175.684 15.7997C174.879 16.3916 174.346 17.1373 174.086 18.0369L167.09 17.4688C167.445 15.8116 168.143 14.3793 169.185 13.1719C170.227 11.9527 171.57 11.0175 173.216 10.3665C174.873 9.7036 176.79 9.37216 178.968 9.37216C180.484 9.37216 181.934 9.54972 183.319 9.90483C184.715 10.2599 185.952 10.8104 187.03 11.5561C188.119 12.3018 188.977 13.2607 189.604 14.4325C190.231 15.5926 190.545 16.9834 190.545 18.6051V37H183.372V33.218H183.159C182.721 34.0703 182.135 34.822 181.401 35.473C180.667 36.1122 179.785 36.6153 178.755 36.9822C177.726 37.3374 176.536 37.5149 175.186 37.5149ZM177.353 32.2947C178.465 32.2947 179.448 32.0758 180.3 31.6378C181.152 31.188 181.821 30.5843 182.307 29.8267C182.792 29.0691 183.034 28.2109 183.034 27.2521V24.358C182.798 24.5118 182.472 24.6539 182.058 24.7841C181.655 24.9025 181.2 25.0149 180.691 25.1214C180.182 25.2161 179.673 25.3049 179.164 25.3878C178.655 25.4588 178.193 25.5239 177.779 25.5831C176.891 25.7133 176.116 25.9205 175.453 26.2045C174.79 26.4886 174.275 26.8733 173.908 27.3587C173.541 27.8321 173.358 28.424 173.358 29.1342C173.358 30.1641 173.731 30.9512 174.476 31.4957C175.234 32.0284 176.193 32.2947 177.353 32.2947ZM204.027 0.636363V37H196.463V0.636363H204.027ZM232.828 17.5043L225.903 17.9304C225.785 17.3385 225.531 16.8059 225.14 16.3324C224.749 15.8471 224.234 15.4624 223.595 15.1783C222.968 14.8823 222.216 14.7344 221.34 14.7344C220.168 14.7344 219.18 14.983 218.375 15.4801C217.57 15.9654 217.168 16.6165 217.168 17.4332C217.168 18.0843 217.428 18.6347 217.949 19.0845C218.47 19.5343 219.363 19.8954 220.63 20.1676L225.566 21.1619C228.218 21.7064 230.194 22.5824 231.497 23.7898C232.799 24.9972 233.45 26.5833 233.45 28.5483C233.45 30.3357 232.923 31.9041 231.869 33.2536C230.828 34.603 229.395 35.6565 227.573 36.4141C225.761 37.1598 223.672 37.5327 221.305 37.5327C217.694 37.5327 214.818 36.781 212.675 35.2777C210.545 33.7625 209.296 31.7029 208.929 29.0987L216.369 28.7081C216.594 29.8089 217.138 30.6494 218.002 31.2294C218.866 31.7976 219.973 32.0817 221.323 32.0817C222.648 32.0817 223.714 31.8272 224.519 31.3182C225.335 30.7973 225.75 30.1286 225.761 29.3118C225.75 28.6252 225.46 28.063 224.891 27.625C224.323 27.1752 223.447 26.8319 222.264 26.5952L217.541 25.6541C214.877 25.1214 212.894 24.1982 211.592 22.8842C210.302 21.5703 209.657 19.8954 209.657 17.8594C209.657 16.1075 210.131 14.5982 211.077 13.3317C212.036 12.0651 213.38 11.0885 215.108 10.402C216.848 9.71544 218.884 9.37216 221.216 9.37216C224.661 9.37216 227.371 10.1001 229.348 11.5561C231.337 13.0121 232.497 14.9948 232.828 17.5043Z" fill="#2A2A2A"/>
</svg>
