<svg width="16" height="20" viewBox="0 0 16 20" fill="none" xmlns="http://www.w3.org/2000/svg">
<path d="M2.80664 0.000610352C1.26956 0.000610352 0 1.26823 0 2.8053V19.0006C0.000219308 19.1757 0.0463814 19.3476 0.133872 19.4992C0.221363 19.6508 0.347117 19.7768 0.498566 19.8646C0.650014 19.9524 0.821852 19.9989 0.996902 19.9995C1.17195 20 1.34408 19.9546 1.49609 19.8678L8 16.151L14.5039 19.8678C14.6559 19.9546 14.828 20 15.0031 19.9995C15.1781 19.9989 15.35 19.9524 15.5014 19.8646C15.6529 19.7768 15.7786 19.6508 15.8661 19.4992C15.9536 19.3476 15.9998 19.1757 16 19.0006V2.8053C16 1.26823 14.7304 0.000610352 13.1934 0.000610352H2.80664ZM2.80664 2.00061H13.1934C13.657 2.00061 14 2.34165 14 2.8053V17.276L8.49609 14.1315C8.345 14.0452 8.17401 13.9998 8 13.9998C7.82599 13.9998 7.655 14.0452 7.50391 14.1315L2 17.276V2.8053C2 2.34165 2.34298 2.00061 2.80664 2.00061Z" fill="#DAA520"/>
</svg>
